{
.appVersion = "1342";
copyright = "Font Copyright Copyright 2019 Morisawa Inc. All rights reserved.";
customParameters = (
{
name = license;
value = "Google font";
},
{
name = vendorID;
value = MRSW;
},
{
name = panose;
value = (
2,
11,
4,
0,
0,
0,
0,
0,
0,
0
);
},
{
name = unicodeRanges;
value = (
0,
1,
2,
4,
5,
6,
7,
9,
29,
30,
31,
35,
36,
37,
38,
39,
40,
42,
43,
45,
46,
47,
48,
49,
50,
54,
55,
57,
59,
61,
65,
68
);
},
{
name = fsType;
value = (
);
},
{
name = trademark;
value = "BIZ UDMincho Medium is a trademark of Morisawa Inc.";
}
);
date = "2019-04-02 01:04:19 +0000";
designer = "TypeBank Co., Ltd.";
designerURL = "http://www.morisawa.co.jp/";
disablesAutomaticAlignment = 1;
familyName = "BIZ-UDPMinchoExt";
fontMaster = (
{
ascender = 1802;
capHeight = 1567;
customParameters = (
{
name = typoAscender;
value = 1802;
},
{
name = typoDescender;
value = -246;
},
{
name = typoLineGap;
value = 0;
},
{
name = winAscent;
value = 1802;
},
{
name = winDescent;
value = 246;
},
{
name = hheaAscender;
value = 1802;
},
{
name = hheaDescender;
value = -246;
},
{
name = strikeoutPosition;
value = 727;
},
{
name = strikeoutSize;
value = 102;
},
{
name = underlinePosition;
value = -246;
},
{
name = underlineThickness;
value = 102;
},
{
name = hheaLineGap;
value = 0;
},
{
name = vheaVertAscender;
value = 1802;
},
{
name = vheaVertDescender;
value = 246;
},
{
name = vheaVertLineGap;
value = 0;
}
);
descender = -246;
id = "4E782664-D0D5-4FED-AFC2-B9212141A2ED";
weightValue = 400;
widthValue = 5;
xHeight = 1108;
}
);
glyphs = (
{
color = 3;
glyphname = Cdotaccent;
lastChange = "2022-04-07 18:22:07 +0000";
layers = (
{
background = {
paths = (
{
closed = 1;
nodes = (
"842 1026 LINE",
"770 1026 LINE",
"751 1139 OFFCURVE",
"723 1224 OFFCURVE",
"688 1280 CURVE SMOOTH",
"645 1349 OFFCURVE",
"595 1384 OFFCURVE",
"540 1384 CURVE SMOOTH",
"455 1384 OFFCURVE",
"390 1330 OFFCURVE",
"345 1221 CURVE SMOOTH",
"300 1114 OFFCURVE",
"278 963 OFFCURVE",
"278 766 CURVE SMOOTH",
"278 555 OFFCURVE",
"306 388 OFFCURVE",
"363 263 CURVE SMOOTH",
"415 149 OFFCURVE",
"480 92 OFFCURVE",
"559 92 CURVE SMOOTH",
"629 92 OFFCURVE",
"686 136 OFFCURVE",
"731 224 CURVE SMOOTH",
"762 285 OFFCURVE",
"790 376 OFFCURVE",
"815 498 CURVE",
"887 463 LINE",
"864 302 OFFCURVE",
"830 184 OFFCURVE",
"784 107 CURVE SMOOTH",
"726 10 OFFCURVE",
"644 -39 OFFCURVE",
"538 -39 CURVE SMOOTH",
"423 -39 OFFCURVE",
"327 32 OFFCURVE",
"252 174 CURVE SMOOTH",
"173 325 OFFCURVE",
"133 523 OFFCURVE",
"133 766 CURVE SMOOTH",
"133 997 OFFCURVE",
"168 1175 OFFCURVE",
"238 1302 CURVE SMOOTH",
"309 1429 OFFCURVE",
"407 1493 OFFCURVE",
"532 1493 CURVE SMOOTH",
"605 1493 OFFCURVE",
"667 1457 OFFCURVE",
"720 1384 CURVE SMOOTH",
"731 1368 OFFCURVE",
"742 1360 OFFCURVE",
"751 1360 CURVE SMOOTH",
"762 1360 OFFCURVE",
"771 1391 OFFCURVE",
"776 1454 CURVE",
"842 1454 LINE"
);
},
{
closed = 1;
nodes = (
"551 1801 OFFCURVE",
"568 1797 OFFCURVE",
"584 1790 CURVE SMOOTH",
"629 1769 OFFCURVE",
"652 1733 OFFCURVE",
"652 1682 CURVE SMOOTH",
"652 1649 OFFCURVE",
"640 1621 OFFCURVE",
"617 1598 CURVE SMOOTH",
"594 1575 OFFCURVE",
"565 1563 OFFCURVE",
"532 1563 CURVE SMOOTH",
"512 1563 OFFCURVE",
"493 1568 OFFCURVE",
"476 1578 CURVE SMOOTH",
"435 1601 OFFCURVE",
"414 1636 OFFCURVE",
"414 1683 CURVE SMOOTH",
"414 1718 OFFCURVE",
"427 1747 OFFCURVE",
"453 1770 CURVE SMOOTH",
"475 1791 OFFCURVE",
"502 1801 OFFCURVE",
"534 1801 CURVE SMOOTH"
);
}
);
};
layerId = "4E782664-D0D5-4FED-AFC2-B9212141A2ED";
paths = (
{
closed = 1;
nodes = (
"1454 1004 LINE",
"1378 1004 LINE",
"1344 1133 OFFCURVE",
"1280 1230 OFFCURVE",
"1187 1294 CURVE SMOOTH",
"1099 1354 OFFCURVE",
"990 1384 OFFCURVE",
"861 1384 CURVE SMOOTH",
"665 1384 OFFCURVE",
"516 1308 OFFCURVE",
"413 1155 CURVE SMOOTH",
"336 1040 OFFCURVE",
"297 895 OFFCURVE",
"297 721 CURVE SMOOTH",
"297 576 OFFCURVE",
"331 451 OFFCURVE",
"400 346 CURVE SMOOTH",
"463 250 OFFCURVE",
"549 180 OFFCURVE",
"657 135 CURVE SMOOTH",
"728 106 OFFCURVE",
"804 92 OFFCURVE",
"886 92 CURVE SMOOTH",
"1063 92 OFFCURVE",
"1202 145 OFFCURVE",
"1305 252 CURVE SMOOTH",
"1366 315 OFFCURVE",
"1415 403 OFFCURVE",
"1454 518 CURVE",
"1536 485 LINE",
"1482 309 OFFCURVE",
"1405 180 OFFCURVE",
"1304 98 CURVE SMOOTH",
"1192 7 OFFCURVE",
"1044 -39 OFFCURVE",
"861 -39 CURVE SMOOTH",
"648 -39 OFFCURVE",
"473 29 OFFCURVE",
"336 165 CURVE SMOOTH",
"195 305 OFFCURVE",
"125 489 OFFCURVE",
"125 717 CURVE SMOOTH",
"125 921 OFFCURVE",
"181 1093 OFFCURVE",
"292 1233 CURVE SMOOTH",
"430 1406 OFFCURVE",
"617 1493 OFFCURVE",
"853 1493 CURVE SMOOTH",
"984 1493 OFFCURVE",
"1119 1458 OFFCURVE",
"1258 1388 CURVE SMOOTH",
"1291 1372 OFFCURVE",
"1315 1364 OFFCURVE",
"1331 1364 CURVE SMOOTH",
"1354 1364 OFFCURVE",
"1371 1395 OFFCURVE",
"1380 1456 CURVE",
"1454 1456 LINE"
);
},
{
closed = 1;
nodes = (
"872 1801 OFFCURVE",
"889 1797 OFFCURVE",
"905 1790 CURVE SMOOTH",
"950 1769 OFFCURVE",
"973 1733 OFFCURVE",
"973 1682 CURVE SMOOTH",
"973 1649 OFFCURVE",
"961 1621 OFFCURVE",
"938 1598 CURVE SMOOTH",
"915 1575 OFFCURVE",
"886 1563 OFFCURVE",
"853 1563 CURVE SMOOTH",
"833 1563 OFFCURVE",
"814 1568 OFFCURVE",
"797 1578 CURVE SMOOTH",
"756 1601 OFFCURVE",
"735 1636 OFFCURVE",
"735 1683 CURVE SMOOTH",
"735 1718 OFFCURVE",
"748 1747 OFFCURVE",
"774 1770 CURVE SMOOTH",
"796 1791 OFFCURVE",
"823 1801 OFFCURVE",
"855 1801 CURVE SMOOTH"
);
}
);
vertWidth = 2048;
width = 1659;
}
);
unicode = 010A;
},
{
color = 3;
glyphname = Dcroat;
lastChange = "2022-04-07 18:22:07 +0000";
layers = (
{
background = {
paths = (
{
closed = 1;
nodes = (
"71 1556 LINE",
"440 1556 LINE SMOOTH",
"593 1556 OFFCURVE",
"713 1481 OFFCURVE",
"802 1332 CURVE SMOOTH",
"880 1201 OFFCURVE",
"919 1017 OFFCURVE",
"919 781 CURVE SMOOTH",
"919 517 OFFCURVE",
"869 314 OFFCURVE",
"769 171 CURVE SMOOTH",
"688 57 OFFCURVE",
"579 0 OFFCURVE",
"440 0 CURVE SMOOTH",
"71 0 LINE",
"71 74 LINE",
"107 79 OFFCURVE",
"132 89 OFFCURVE",
"147 104 CURVE SMOOTH",
"161 118 OFFCURVE",
"168 142 OFFCURVE",
"168 176 CURVE SMOOTH",
"168 803 LINE",
"53 803 LINE",
"53 895 LINE",
"168 895 LINE",
"168 1384 LINE SMOOTH",
"168 1419 OFFCURVE",
"160 1444 OFFCURVE",
"145 1458 CURVE SMOOTH",
"132 1470 OFFCURVE",
"107 1478 OFFCURVE",
"71 1482 CURVE"
);
},
{
closed = 1;
nodes = (
"301 803 LINE",
"301 195 LINE SMOOTH",
"301 159 OFFCURVE",
"307 134 OFFCURVE",
"319 121 CURVE SMOOTH",
"330 108 OFFCURVE",
"354 102 OFFCURVE",
"391 102 CURVE SMOOTH",
"446 102 LINE SMOOTH",
"549 102 OFFCURVE",
"629 161 OFFCURVE",
"686 278 CURVE SMOOTH",
"743 397 OFFCURVE",
"772 570 OFFCURVE",
"772 797 CURVE SMOOTH",
"772 988 OFFCURVE",
"757 1129 OFFCURVE",
"726 1219 CURVE SMOOTH",
"672 1376 OFFCURVE",
"577 1454 OFFCURVE",
"440 1454 CURVE SMOOTH",
"378 1454 LINE SMOOTH",
"348 1454 OFFCURVE",
"328 1448 OFFCURVE",
"317 1437 CURVE SMOOTH",
"306 1426 OFFCURVE",
"301 1405 OFFCURVE",
"301 1374 CURVE SMOOTH",
"301 895 LINE",
"467 895 LINE",
"467 803 LINE"
);
}
);
};
layerId = "4E782664-D0D5-4FED-AFC2-B9212141A2ED";
paths = (
{
closed = 1;
nodes = (
"49 1556 LINE",
"751 1556 LINE SMOOTH",
"994 1556 OFFCURVE",
"1183 1480 OFFCURVE",
"1320 1327 CURVE SMOOTH",
"1449 1184 OFFCURVE",
"1513 1002 OFFCURVE",
"1513 781 CURVE SMOOTH",
"1513 534 OFFCURVE",
"1442 341 OFFCURVE",
"1301 201 CURVE SMOOTH",
"1166 67 OFFCURVE",
"980 0 OFFCURVE",
"743 0 CURVE SMOOTH",
"49 0 LINE",
"49 74 LINE",
"134 84 OFFCURVE",
"189 98 OFFCURVE",
"213 117 CURVE SMOOTH",
"239 137 OFFCURVE",
"252 177 OFFCURVE",
"252 236 CURVE SMOOTH",
"252 744 LINE",
"65 744 LINE",
"65 846 LINE",
"252 846 LINE",
"252 1321 LINE SMOOTH",
"252 1381 OFFCURVE",
"238 1421 OFFCURVE",
"211 1441 CURVE SMOOTH",
"182 1462 OFFCURVE",
"128 1476 OFFCURVE",
"49 1482 CURVE"
);
},
{
closed = 1;
nodes = (
"399 744 LINE",
"399 252 LINE SMOOTH",
"399 191 OFFCURVE",
"411 152 OFFCURVE",
"436 133 CURVE SMOOTH",
"463 113 OFFCURVE",
"518 103 OFFCURVE",
"601 103 CURVE SMOOTH",
"718 103 LINE SMOOTH",
"930 103 OFFCURVE",
"1090 167 OFFCURVE",
"1198 294 CURVE SMOOTH",
"1296 409 OFFCURVE",
"1345 571 OFFCURVE",
"1345 781 CURVE SMOOTH",
"1345 1010 OFFCURVE",
"1288 1181 OFFCURVE",
"1173 1294 CURVE SMOOTH",
"1065 1401 OFFCURVE",
"911 1454 OFFCURVE",
"710 1454 CURVE SMOOTH",
"556 1454 LINE SMOOTH",
"499 1454 OFFCURVE",
"459 1444 OFFCURVE",
"436 1423 CURVE SMOOTH",
"411 1401 OFFCURVE",
"399 1361 OFFCURVE",
"399 1304 CURVE SMOOTH",
"399 846 LINE",
"790 846 LINE",
"790 744 LINE"
);
}
);
vertWidth = 2048;
width = 1638;
}
);
unicode = 0110;
},
{
color = 3;
glyphname = Ebreve;
lastChange = "2022-04-07 18:22:07 +0000";
layers = (
{
background = {
paths = (
{
closed = 1;
nodes = (
"102 1454 LINE",
"837 1454 LINE",
"851 1063 LINE",
"788 1063 LINE",
"775 1168 OFFCURVE",
"752 1244 OFFCURVE",
"719 1291 CURVE SMOOTH",
"690 1333 OFFCURVE",
"644 1354 OFFCURVE",
"581 1354 CURVE SMOOTH",
"427 1354 LINE SMOOTH",
"393 1354 OFFCURVE",
"370 1348 OFFCURVE",
"357 1335 CURVE SMOOTH",
"346 1324 OFFCURVE",
"341 1301 OFFCURVE",
"341 1268 CURVE SMOOTH",
"341 821 LINE",
"474 821 LINE SMOOTH",
"527 821 OFFCURVE",
"564 843 OFFCURVE",
"584 888 CURVE SMOOTH",
"599 921 OFFCURVE",
"607 965 OFFCURVE",
"609 1020 CURVE",
"675 1020 LINE",
"675 496 LINE",
"609 496 LINE",
"606 573 OFFCURVE",
"594 630 OFFCURVE",
"575 666 CURVE SMOOTH",
"554 703 OFFCURVE",
"521 721 OFFCURVE",
"474 721 CURVE SMOOTH",
"341 721 LINE",
"341 186 LINE SMOOTH",
"341 153 OFFCURVE",
"348 131 OFFCURVE",
"362 119 CURVE SMOOTH",
"376 106 OFFCURVE",
"402 100 OFFCURVE",
"441 100 CURVE SMOOTH",
"570 100 LINE SMOOTH",
"652 100 OFFCURVE",
"711 126 OFFCURVE",
"747 178 CURVE SMOOTH",
"776 221 OFFCURVE",
"799 301 OFFCURVE",
"814 418 CURVE",
"876 418 LINE",
"857 0 LINE",
"102 0 LINE",
"102 72 LINE",
"143 81 OFFCURVE",
"171 91 OFFCURVE",
"185 104 CURVE SMOOTH",
"200 118 OFFCURVE",
"208 141 OFFCURVE",
"208 172 CURVE SMOOTH",
"208 1282 LINE SMOOTH",
"208 1317 OFFCURVE",
"200 1341 OFFCURVE",
"185 1354 CURVE SMOOTH",
"172 1365 OFFCURVE",
"144 1375 OFFCURVE",
"102 1382 CURVE"
);
},
{
closed = 1;
nodes = (
"813 1800 LINE",
"767 1642 OFFCURVE",
"663 1563 OFFCURVE",
"501 1563 CURVE SMOOTH",
"339 1563 OFFCURVE",
"236 1642 OFFCURVE",
"191 1800 CURVE",
"275 1800 LINE",
"310 1719 OFFCURVE",
"386 1678 OFFCURVE",
"502 1678 CURVE SMOOTH",
"617 1678 OFFCURVE",
"692 1719 OFFCURVE",
"729 1800 CURVE"
);
}
);
};
layerId = "4E782664-D0D5-4FED-AFC2-B9212141A2ED";
paths = (
{
closed = 1;
nodes = (
"43 1454 LINE",
"1298 1454 LINE",
"1320 1049 LINE",
"1249 1049 LINE",
"1235 1159 OFFCURVE",
"1201 1237 OFFCURVE",
"1146 1282 CURVE SMOOTH",
"1089 1330 OFFCURVE",
"995 1354 OFFCURVE",
"866 1354 CURVE SMOOTH",
"550 1354 LINE SMOOTH",
"494 1354 OFFCURVE",
"455 1345 OFFCURVE",
"432 1326 CURVE SMOOTH",
"406 1303 OFFCURVE",
"393 1265 OFFCURVE",
"393 1211 CURVE SMOOTH",
"393 823 LINE",
"661 823 LINE SMOOTH",
"761 823 OFFCURVE",
"830 840 OFFCURVE",
"867 873 CURVE SMOOTH",
"904 906 OFFCURVE",
"924 961 OFFCURVE",
"925 1038 CURVE",
"997 1038 LINE",
"997 481 LINE",
"925 481 LINE",
"922 572 OFFCURVE",
"899 636 OFFCURVE",
"856 672 CURVE SMOOTH",
"819 705 OFFCURVE",
"754 721 OFFCURVE",
"661 721 CURVE SMOOTH",
"393 721 LINE",
"393 243 LINE SMOOTH",
"393 186 OFFCURVE",
"406 148 OFFCURVE",
"432 131 CURVE SMOOTH",
"462 110 OFFCURVE",
"519 100 OFFCURVE",
"604 100 CURVE SMOOTH",
"839 100 LINE SMOOTH",
"997 100 OFFCURVE",
"1110 127 OFFCURVE",
"1178 181 CURVE SMOOTH",
"1243 232 OFFCURVE",
"1281 320 OFFCURVE",
"1292 446 CURVE",
"1363 446 LINE",
"1328 0 LINE",
"43 0 LINE",
"43 73 LINE",
"128 80 OFFCURVE",
"183 93 OFFCURVE",
"206 113 CURVE SMOOTH",
"233 135 OFFCURVE",
"246 173 OFFCURVE",
"246 227 CURVE SMOOTH",
"246 1227 LINE SMOOTH",
"246 1284 OFFCURVE",
"231 1323 OFFCURVE",
"201 1342 CURVE SMOOTH",
"171 1361 OFFCURVE",
"118 1373 OFFCURVE",
"43 1380 CURVE"
);
},
{
closed = 1;
nodes = (
"1083 1800 LINE",
"1037 1642 OFFCURVE",
"933 1563 OFFCURVE",
"771 1563 CURVE SMOOTH",
"609 1563 OFFCURVE",
"506 1642 OFFCURVE",
"461 1800 CURVE",
"545 1800 LINE",
"580 1719 OFFCURVE",
"656 1678 OFFCURVE",
"772 1678 CURVE SMOOTH",
"887 1678 OFFCURVE",
"962 1719 OFFCURVE",
"999 1800 CURVE"
);
}
);
vertWidth = 2048;
width = 1475;
}
);
unicode = 0114;
},
{
color = 3;
glyphname = Edotaccent;
lastChange = "2022-04-07 18:22:07 +0000";
layers = (
{
background = {
paths = (
{
closed = 1;
nodes = (
"102 1454 LINE",
"837 1454 LINE",
"851 1063 LINE",
"788 1063 LINE",
"775 1168 OFFCURVE",
"752 1244 OFFCURVE",
"719 1291 CURVE SMOOTH",
"690 1333 OFFCURVE",
"644 1354 OFFCURVE",
"581 1354 CURVE SMOOTH",
"427 1354 LINE SMOOTH",
"393 1354 OFFCURVE",
"370 1348 OFFCURVE",
"357 1335 CURVE SMOOTH",
"346 1324 OFFCURVE",
"341 1301 OFFCURVE",
"341 1268 CURVE SMOOTH",
"341 821 LINE",
"474 821 LINE SMOOTH",
"527 821 OFFCURVE",
"564 843 OFFCURVE",
"584 888 CURVE SMOOTH",
"599 921 OFFCURVE",
"607 965 OFFCURVE",
"609 1020 CURVE",
"675 1020 LINE",
"675 496 LINE",
"609 496 LINE",
"606 573 OFFCURVE",
"594 630 OFFCURVE",
"575 666 CURVE SMOOTH",
"554 703 OFFCURVE",
"521 721 OFFCURVE",
"474 721 CURVE SMOOTH",
"341 721 LINE",
"341 186 LINE SMOOTH",
"341 153 OFFCURVE",
"348 131 OFFCURVE",
"362 119 CURVE SMOOTH",
"376 106 OFFCURVE",
"402 100 OFFCURVE",
"441 100 CURVE SMOOTH",
"570 100 LINE SMOOTH",
"652 100 OFFCURVE",
"711 126 OFFCURVE",
"747 178 CURVE SMOOTH",
"776 221 OFFCURVE",
"799 301 OFFCURVE",
"814 418 CURVE",
"876 418 LINE",
"857 0 LINE",
"102 0 LINE",
"102 72 LINE",
"143 81 OFFCURVE",
"171 91 OFFCURVE",
"185 104 CURVE SMOOTH",
"200 118 OFFCURVE",
"208 141 OFFCURVE",
"208 172 CURVE SMOOTH",
"208 1282 LINE SMOOTH",
"208 1317 OFFCURVE",
"200 1341 OFFCURVE",
"185 1354 CURVE SMOOTH",
"172 1365 OFFCURVE",
"144 1375 OFFCURVE",
"102 1382 CURVE"
);
},
{
closed = 1;
nodes = (
"531 1801 OFFCURVE",
"548 1797 OFFCURVE",
"564 1790 CURVE SMOOTH",
"609 1769 OFFCURVE",
"632 1733 OFFCURVE",
"632 1682 CURVE SMOOTH",
"632 1649 OFFCURVE",
"620 1621 OFFCURVE",
"597 1598 CURVE SMOOTH",
"574 1575 OFFCURVE",
"545 1563 OFFCURVE",
"512 1563 CURVE SMOOTH",
"492 1563 OFFCURVE",
"473 1568 OFFCURVE",
"456 1578 CURVE SMOOTH",
"415 1601 OFFCURVE",
"394 1636 OFFCURVE",
"394 1683 CURVE SMOOTH",
"394 1718 OFFCURVE",
"407 1747 OFFCURVE",
"433 1770 CURVE SMOOTH",
"455 1791 OFFCURVE",
"482 1801 OFFCURVE",
"514 1801 CURVE SMOOTH"
);
}
);
};
layerId = "4E782664-D0D5-4FED-AFC2-B9212141A2ED";
paths = (
{
closed = 1;
nodes = (
"43 1454 LINE",
"1298 1454 LINE",
"1320 1049 LINE",
"1249 1049 LINE",
"1235 1159 OFFCURVE",
"1201 1237 OFFCURVE",
"1146 1282 CURVE SMOOTH",
"1089 1330 OFFCURVE",
"995 1354 OFFCURVE",
"866 1354 CURVE SMOOTH",
"550 1354 LINE SMOOTH",
"494 1354 OFFCURVE",
"455 1345 OFFCURVE",
"432 1326 CURVE SMOOTH",
"406 1303 OFFCURVE",
"393 1265 OFFCURVE",
"393 1211 CURVE SMOOTH",
"393 823 LINE",
"661 823 LINE SMOOTH",
"761 823 OFFCURVE",
"830 840 OFFCURVE",
"867 873 CURVE SMOOTH",
"904 906 OFFCURVE",
"924 961 OFFCURVE",
"925 1038 CURVE",
"997 1038 LINE",
"997 481 LINE",
"925 481 LINE",
"922 572 OFFCURVE",
"899 636 OFFCURVE",
"856 672 CURVE SMOOTH",
"819 705 OFFCURVE",
"754 721 OFFCURVE",
"661 721 CURVE SMOOTH",
"393 721 LINE",
"393 243 LINE SMOOTH",
"393 186 OFFCURVE",
"406 148 OFFCURVE",
"432 131 CURVE SMOOTH",
"462 110 OFFCURVE",
"519 100 OFFCURVE",
"604 100 CURVE SMOOTH",
"839 100 LINE SMOOTH",
"997 100 OFFCURVE",
"1110 127 OFFCURVE",
"1178 181 CURVE SMOOTH",
"1243 232 OFFCURVE",
"1281 320 OFFCURVE",
"1292 446 CURVE",
"1363 446 LINE",
"1328 0 LINE",
"43 0 LINE",
"43 73 LINE",
"128 80 OFFCURVE",
"183 93 OFFCURVE",
"206 113 CURVE SMOOTH",
"233 135 OFFCURVE",
"246 173 OFFCURVE",
"246 227 CURVE SMOOTH",
"246 1227 LINE SMOOTH",
"246 1284 OFFCURVE",
"231 1323 OFFCURVE",
"201 1342 CURVE SMOOTH",
"171 1361 OFFCURVE",
"118 1373 OFFCURVE",
"43 1380 CURVE"
);
},
{
closed = 1;
nodes = (
"751 1801 OFFCURVE",
"768 1797 OFFCURVE",
"784 1790 CURVE SMOOTH",
"829 1769 OFFCURVE",
"852 1733 OFFCURVE",
"852 1682 CURVE SMOOTH",
"852 1649 OFFCURVE",
"840 1621 OFFCURVE",
"817 1598 CURVE SMOOTH",
"794 1575 OFFCURVE",
"765 1563 OFFCURVE",
"732 1563 CURVE SMOOTH",
"712 1563 OFFCURVE",
"693 1568 OFFCURVE",
"676 1578 CURVE SMOOTH",
"635 1601 OFFCURVE",
"614 1636 OFFCURVE",
"614 1683 CURVE SMOOTH",
"614 1718 OFFCURVE",
"627 1747 OFFCURVE",
"653 1770 CURVE SMOOTH",
"675 1791 OFFCURVE",
"702 1801 OFFCURVE",
"734 1801 CURVE SMOOTH"
);
}
);
vertWidth = 2048;
width = 1475;
}
);
unicode = 0116;
},
{
color = 3;
glyphname = Gbreve;
lastChange = "2022-04-07 18:22:07 +0000";
layers = (
{
background = {
paths = (
{
closed = 1;
nodes = (
"786 -39 LINE",
"741 154 LINE",
"688 25 OFFCURVE",
"608 -39 OFFCURVE",
"500 -39 CURVE SMOOTH",
"391 -39 OFFCURVE",
"302 27 OFFCURVE",
"231 160 CURVE SMOOTH",
"155 302 OFFCURVE",
"117 491 OFFCURVE",
"117 728 CURVE SMOOTH",
"117 950 OFFCURVE",
"153 1131 OFFCURVE",
"224 1271 CURVE SMOOTH",
"299 1419 OFFCURVE",
"400 1493 OFFCURVE",
"527 1493 CURVE SMOOTH",
"613 1493 OFFCURVE",
"678 1461 OFFCURVE",
"723 1397 CURVE SMOOTH",
"738 1375 OFFCURVE",
"750 1364 OFFCURVE",
"759 1364 CURVE SMOOTH",
"776 1364 OFFCURVE",
"786 1394 OFFCURVE",
"791 1454 CURVE",
"852 1454 LINE",
"852 1049 LINE",
"782 1049 LINE",
"759 1158 OFFCURVE",
"732 1237 OFFCURVE",
"702 1286 CURVE SMOOTH",
"661 1351 OFFCURVE",
"606 1384 OFFCURVE",
"536 1384 CURVE SMOOTH",
"457 1384 OFFCURVE",
"394 1330 OFFCURVE",
"347 1223 CURVE SMOOTH",
"295 1105 OFFCURVE",
"269 939 OFFCURVE",
"269 725 CURVE SMOOTH",
"269 506 OFFCURVE",
"298 336 OFFCURVE",
"355 213 CURVE SMOOTH",
"399 118 OFFCURVE",
"451 70 OFFCURVE",
"512 70 CURVE SMOOTH",
"573 70 OFFCURVE",
"624 105 OFFCURVE",
"666 174 CURVE SMOOTH",
"704 238 OFFCURVE",
"723 312 OFFCURVE",
"723 397 CURVE SMOOTH",
"723 525 LINE SMOOTH",
"723 567 OFFCURVE",
"715 597 OFFCURVE",
"699 615 CURVE SMOOTH",
"689 626 OFFCURVE",
"659 634 OFFCURVE",
"610 641 CURVE",
"610 713 LINE",
"954 713 LINE",
"954 641 LINE",
"917 634 OFFCURVE",
"893 624 OFFCURVE",
"881 611 CURVE SMOOTH",
"867 596 OFFCURVE",
"860 563 OFFCURVE",
"860 510 CURVE SMOOTH",
"860 -39 LINE"
);
}
);
};
layerId = "4E782664-D0D5-4FED-AFC2-B9212141A2ED";
paths = (
{
closed = 1;
nodes = (
"1378 -39 LINE",
"1323 158 LINE",
"1206 27 OFFCURVE",
"1044 -39 OFFCURVE",
"839 -39 CURVE SMOOTH",
"389 -39 OFFCURVE",
"129 285 OFFCURVE",
"129 719 CURVE SMOOTH",
"129 1155 OFFCURVE",
"435 1496 OFFCURVE",
"881 1496 CURVE SMOOTH",
"1028 1496 OFFCURVE",
"1163 1459 OFFCURVE",
"1284 1385 CURVE SMOOTH",
"1307 1372 OFFCURVE",
"1324 1365 OFFCURVE",
"1336 1365 CURVE SMOOTH",
"1364 1365 OFFCURVE",
"1382 1396 OFFCURVE",
"1390 1457 CURVE",
"1462 1457 LINE",
"1462 1014 LINE",
"1390 1014 LINE",
"1328 1261 OFFCURVE",
"1155 1385 OFFCURVE",
"871 1385 CURVE SMOOTH",
"502 1385 OFFCURVE",
"301 1098 OFFCURVE",
"301 723 CURVE SMOOTH",
"301 374 OFFCURVE",
"499 72 OFFCURVE",
"844 72 CURVE SMOOTH",
"1062 72 OFFCURVE",
"1329 214 OFFCURVE",
"1329 403 CURVE SMOOTH",
"1329 475 LINE SMOOTH",
"1329 598 OFFCURVE",
"1239 616 OFFCURVE",
"1075 635 CURVE",
"1075 709 LINE",
"1679 709 LINE",
"1679 635 LINE",
"1530 616 OFFCURVE",
"1470 591 OFFCURVE",
"1470 461 CURVE SMOOTH",
"1470 -39 LINE"
);
},
{
closed = 1;
nodes = (
"1193 1800 LINE",
"1147 1642 OFFCURVE",
"1043 1563 OFFCURVE",
"881 1563 CURVE SMOOTH",
"719 1563 OFFCURVE",
"616 1642 OFFCURVE",
"571 1800 CURVE",
"655 1800 LINE",
"690 1719 OFFCURVE",
"766 1678 OFFCURVE",
"882 1678 CURVE SMOOTH",
"997 1678 OFFCURVE",
"1072 1719 OFFCURVE",
"1109 1800 CURVE"
);
}
);
vertWidth = 2048;
width = 1720;
}
);
unicode = 011E;
},
{
color = 3;
glyphname = Gcommaaccent;
lastChange = "2022-04-07 18:22:07 +0000";
layers = (
{
background = {
paths = (
{
closed = 1;
nodes = (
"786 61 LINE",
"741 258 LINE",
"690 127 OFFCURVE",
"610 61 OFFCURVE",
"501 61 CURVE SMOOTH",
"233 61 OFFCURVE",
"117 497 OFFCURVE",
"117 850 CURVE SMOOTH",
"117 1192 OFFCURVE",
"239 1596 OFFCURVE",
"528 1596 CURVE SMOOTH",
"612 1596 OFFCURVE",
"677 1563 OFFCURVE",
"723 1497 CURVE SMOOTH",
"738 1475 OFFCURVE",
"749 1464 OFFCURVE",
"758 1464 CURVE SMOOTH",
"775 1464 OFFCURVE",
"786 1495 OFFCURVE",
"791 1557 CURVE",
"852 1557 LINE",
"852 1145 LINE",
"782 1145 LINE",
"760 1250 OFFCURVE",
"736 1326 OFFCURVE",
"710 1372 CURVE SMOOTH",
"667 1447 OFFCURVE",
"609 1485 OFFCURVE",
"537 1485 CURVE SMOOTH",
"336 1485 OFFCURVE",
"269 1124 OFFCURVE",
"269 846 CURVE SMOOTH",
"269 582 OFFCURVE",
"340 172 OFFCURVE",
"512 172 CURVE SMOOTH",
"647 172 OFFCURVE",
"723 351 OFFCURVE",
"723 503 CURVE SMOOTH",
"723 642 LINE SMOOTH",
"723 685 OFFCURVE",
"715 716 OFFCURVE",
"699 734 CURVE SMOOTH",
"689 745 OFFCURVE",
"659 753 OFFCURVE",
"610 760 CURVE",
"610 834 LINE",
"954 834 LINE",
"954 760 LINE",
"915 753 OFFCURVE",
"890 742 OFFCURVE",
"878 728 CURVE SMOOTH",
"866 712 OFFCURVE",
"860 678 OFFCURVE",
"860 627 CURVE SMOOTH",
"860 61 LINE"
);
},
{
closed = 1;
nodes = (
"456 -191 LINE",
"490 -171 OFFCURVE",
"508 -151 OFFCURVE",
"510 -130 CURVE",
"439 -130 OFFCURVE",
"390 -109 OFFCURVE",
"390 -56 CURVE SMOOTH",
"390 -6 OFFCURVE",
"435 21 OFFCURVE",
"499 21 CURVE SMOOTH",
"568 21 OFFCURVE",
"619 -10 OFFCURVE",
"619 -77 CURVE SMOOTH",
"619 -153 OFFCURVE",
"570 -199 OFFCURVE",
"497 -246 CURVE"
);
}
);
};
layerId = "4E782664-D0D5-4FED-AFC2-B9212141A2ED";
paths = (
{
closed = 1;
nodes = (
"1378 61 LINE",
"1323 258 LINE",
"1206 127 OFFCURVE",
"1044 61 OFFCURVE",
"839 61 CURVE SMOOTH",
"389 61 OFFCURVE",
"129 388 OFFCURVE",
"129 824 CURVE SMOOTH",
"129 1257 OFFCURVE",
"435 1596 OFFCURVE",
"881 1596 CURVE SMOOTH",
"1028 1596 OFFCURVE",
"1163 1559 OFFCURVE",
"1284 1485 CURVE SMOOTH",
"1307 1472 OFFCURVE",
"1324 1465 OFFCURVE",
"1336 1465 CURVE SMOOTH",
"1364 1465 OFFCURVE",
"1382 1496 OFFCURVE",
"1390 1557 CURVE",
"1462 1557 LINE",
"1462 1114 LINE",
"1390 1114 LINE",
"1328 1361 OFFCURVE",
"1155 1485 OFFCURVE",
"871 1485 CURVE SMOOTH",
"502 1485 OFFCURVE",
"301 1200 OFFCURVE",
"301 828 CURVE SMOOTH",
"301 477 OFFCURVE",
"499 172 OFFCURVE",
"844 172 CURVE SMOOTH",
"1062 172 OFFCURVE",
"1329 314 OFFCURVE",
"1329 503 CURVE SMOOTH",
"1329 600 LINE SMOOTH",
"1329 723 OFFCURVE",
"1239 741 OFFCURVE",
"1075 760 CURVE",
"1075 834 LINE",
"1679 834 LINE",
"1679 760 LINE",
"1530 741 OFFCURVE",
"1470 716 OFFCURVE",
"1470 586 CURVE SMOOTH",
"1470 61 LINE"
);
},
{
closed = 1;
nodes = (
"796 -191 LINE",
"830 -171 OFFCURVE",
"848 -151 OFFCURVE",
"850 -130 CURVE",
"779 -130 OFFCURVE",
"730 -109 OFFCURVE",
"730 -56 CURVE SMOOTH",
"730 -6 OFFCURVE",
"775 21 OFFCURVE",
"839 21 CURVE SMOOTH",
"908 21 OFFCURVE",
"959 -10 OFFCURVE",
"959 -77 CURVE SMOOTH",
"959 -153 OFFCURVE",
"910 -199 OFFCURVE",
"837 -246 CURVE"
);
}
);
vertWidth = 2048;
width = 1720;
}
);
unicode = 0122;
},
{
color = 3;
glyphname = Gdotaccent;
lastChange = "2022-04-07 18:22:07 +0000";
layers = (
{
background = {
paths = (
{
closed = 1;
nodes = (
"786 -39 LINE",
"741 154 LINE",
"688 25 OFFCURVE",
"608 -39 OFFCURVE",
"500 -39 CURVE SMOOTH",
"391 -39 OFFCURVE",
"302 27 OFFCURVE",
"231 160 CURVE SMOOTH",
"155 302 OFFCURVE",
"117 491 OFFCURVE",
"117 728 CURVE SMOOTH",
"117 950 OFFCURVE",
"153 1131 OFFCURVE",
"224 1271 CURVE SMOOTH",
"299 1419 OFFCURVE",
"400 1493 OFFCURVE",
"527 1493 CURVE SMOOTH",
"613 1493 OFFCURVE",
"678 1461 OFFCURVE",
"723 1397 CURVE SMOOTH",
"738 1375 OFFCURVE",
"750 1364 OFFCURVE",
"759 1364 CURVE SMOOTH",
"776 1364 OFFCURVE",
"786 1394 OFFCURVE",
"791 1454 CURVE",
"852 1454 LINE",
"852 1049 LINE",
"782 1049 LINE",
"759 1158 OFFCURVE",
"732 1237 OFFCURVE",
"702 1286 CURVE SMOOTH",
"661 1351 OFFCURVE",
"606 1384 OFFCURVE",
"536 1384 CURVE SMOOTH",
"457 1384 OFFCURVE",
"394 1330 OFFCURVE",
"347 1223 CURVE SMOOTH",
"295 1105 OFFCURVE",
"269 939 OFFCURVE",
"269 725 CURVE SMOOTH",
"269 506 OFFCURVE",
"298 336 OFFCURVE",
"355 213 CURVE SMOOTH",
"399 118 OFFCURVE",
"451 70 OFFCURVE",
"512 70 CURVE SMOOTH",
"573 70 OFFCURVE",
"624 105 OFFCURVE",
"666 174 CURVE SMOOTH",
"704 238 OFFCURVE",
"723 312 OFFCURVE",
"723 397 CURVE SMOOTH",
"723 525 LINE SMOOTH",
"723 567 OFFCURVE",
"715 597 OFFCURVE",
"699 615 CURVE SMOOTH",
"689 626 OFFCURVE",
"659 634 OFFCURVE",
"610 641 CURVE",
"610 713 LINE",
"954 713 LINE",
"954 641 LINE",
"917 634 OFFCURVE",
"893 624 OFFCURVE",
"881 611 CURVE SMOOTH",
"867 596 OFFCURVE",
"860 563 OFFCURVE",
"860 510 CURVE SMOOTH",
"860 -39 LINE"
);
}
);
};
layerId = "4E782664-D0D5-4FED-AFC2-B9212141A2ED";
paths = (
{
closed = 1;
nodes = (
"1378 -39 LINE",
"1323 158 LINE",
"1206 27 OFFCURVE",
"1044 -39 OFFCURVE",
"839 -39 CURVE SMOOTH",
"389 -39 OFFCURVE",
"129 285 OFFCURVE",
"129 719 CURVE SMOOTH",
"129 1155 OFFCURVE",
"435 1496 OFFCURVE",
"881 1496 CURVE SMOOTH",
"1028 1496 OFFCURVE",
"1163 1459 OFFCURVE",
"1284 1385 CURVE SMOOTH",
"1307 1372 OFFCURVE",
"1324 1365 OFFCURVE",
"1336 1365 CURVE SMOOTH",
"1364 1365 OFFCURVE",
"1382 1396 OFFCURVE",
"1390 1457 CURVE",
"1462 1457 LINE",
"1462 1014 LINE",
"1390 1014 LINE",
"1328 1261 OFFCURVE",
"1155 1385 OFFCURVE",
"871 1385 CURVE SMOOTH",
"502 1385 OFFCURVE",
"301 1098 OFFCURVE",
"301 723 CURVE SMOOTH",
"301 374 OFFCURVE",
"499 72 OFFCURVE",
"844 72 CURVE SMOOTH",
"1062 72 OFFCURVE",
"1329 214 OFFCURVE",
"1329 403 CURVE SMOOTH",
"1329 475 LINE SMOOTH",
"1329 598 OFFCURVE",
"1239 616 OFFCURVE",
"1075 635 CURVE",
"1075 709 LINE",
"1679 709 LINE",
"1679 635 LINE",
"1530 616 OFFCURVE",
"1470 591 OFFCURVE",
"1470 461 CURVE SMOOTH",
"1470 -39 LINE"
);
},
{
closed = 1;
nodes = (
"900 1801 OFFCURVE",
"917 1797 OFFCURVE",
"933 1790 CURVE SMOOTH",
"978 1769 OFFCURVE",
"1001 1733 OFFCURVE",
"1001 1682 CURVE SMOOTH",
"1001 1649 OFFCURVE",
"989 1621 OFFCURVE",
"966 1598 CURVE SMOOTH",
"943 1575 OFFCURVE",
"914 1563 OFFCURVE",
"881 1563 CURVE SMOOTH",
"861 1563 OFFCURVE",
"842 1568 OFFCURVE",
"825 1578 CURVE SMOOTH",
"784 1601 OFFCURVE",
"763 1636 OFFCURVE",
"763 1683 CURVE SMOOTH",
"763 1718 OFFCURVE",
"776 1747 OFFCURVE",
"802 1770 CURVE SMOOTH",
"824 1791 OFFCURVE",
"851 1801 OFFCURVE",
"883 1801 CURVE SMOOTH"
);
}
);
vertWidth = 2048;
width = 1720;
}
);
unicode = 0120;
},
{
color = 3;
glyphname = Hbar;
lastChange = "2022-04-07 18:22:07 +0000";
layers = (
{
background = {
paths = (
{
closed = 1;
nodes = (
"37 74 LINE",
"131 79 OFFCURVE",
"189 93 OFFCURVE",
"212 116 CURVE SMOOTH",
"231 134 OFFCURVE",
"240 174 OFFCURVE",
"240 236 CURVE SMOOTH",
"240 1321 LINE SMOOTH",
"240 1384 OFFCURVE",
"230 1425 OFFCURVE",
"209 1444 CURVE SMOOTH",
"186 1465 OFFCURVE",
"128 1477 OFFCURVE",
"37 1482 CURVE",
"37 1556 LINE",
"590 1556 LINE",
"590 1482 LINE",
"493 1477 OFFCURVE",
"434 1463 OFFCURVE",
"412 1440 CURVE SMOOTH",
"394 1421 OFFCURVE",
"385 1381 OFFCURVE",
"385 1321 CURVE SMOOTH",
"385 1167 LINE",
"1254 1167 LINE",
"1254 1321 LINE SMOOTH",
"1254 1384 OFFCURVE",
"1244 1425 OFFCURVE",
"1223 1444 CURVE SMOOTH",
"1199 1465 OFFCURVE",
"1141 1478 OFFCURVE",
"1049 1482 CURVE",
"1049 1556 LINE",
"1602 1556 LINE",
"1602 1482 LINE",
"1507 1478 OFFCURVE",
"1449 1464 OFFCURVE",
"1426 1440 CURVE SMOOTH",
"1408 1421 OFFCURVE",
"1399 1381 OFFCURVE",
"1399 1321 CURVE SMOOTH",
"1399 236 LINE SMOOTH",
"1399 171 OFFCURVE",
"1409 130 OFFCURVE",
"1430 113 CURVE SMOOTH",
"1453 92 OFFCURVE",
"1511 79 OFFCURVE",
"1602 74 CURVE",
"1602 0 LINE",
"1049 0 LINE",
"1049 74 LINE",
"1146 80 OFFCURVE",
"1205 94 OFFCURVE",
"1226 116 CURVE SMOOTH",
"1245 135 OFFCURVE",
"1254 175 OFFCURVE",
"1254 236 CURVE SMOOTH",
"1254 775 LINE",
"385 775 LINE",
"385 236 LINE SMOOTH",
"385 162 OFFCURVE",
"401 117 OFFCURVE",
"432 101 CURVE SMOOTH",
"457 88 OFFCURVE",
"510 79 OFFCURVE",
"590 74 CURVE",
"590 0 LINE",
"37 0 LINE"
);
},
{
closed = 1;
nodes = (
"1254 877 LINE",
"1254 1065 LINE",
"385 1065 LINE",
"385 877 LINE"
);
}
);
};
layerId = "4E782664-D0D5-4FED-AFC2-B9212141A2ED";
paths = (
{
closed = 1;
nodes = (
"37 74 LINE",
"131 79 OFFCURVE",
"189 93 OFFCURVE",
"212 116 CURVE SMOOTH",
"231 134 OFFCURVE",
"240 174 OFFCURVE",
"240 236 CURVE SMOOTH",
"240 1321 LINE SMOOTH",
"240 1384 OFFCURVE",
"230 1425 OFFCURVE",
"209 1444 CURVE SMOOTH",
"186 1465 OFFCURVE",
"128 1477 OFFCURVE",
"37 1482 CURVE",
"37 1556 LINE",
"590 1556 LINE",
"590 1482 LINE",
"493 1477 OFFCURVE",
"434 1463 OFFCURVE",
"412 1440 CURVE SMOOTH",
"394 1421 OFFCURVE",
"385 1381 OFFCURVE",
"385 1321 CURVE SMOOTH",
"385 1167 LINE",
"1254 1167 LINE",
"1254 1321 LINE SMOOTH",
"1254 1384 OFFCURVE",
"1244 1425 OFFCURVE",
"1223 1444 CURVE SMOOTH",
"1199 1465 OFFCURVE",
"1141 1478 OFFCURVE",
"1049 1482 CURVE",
"1049 1556 LINE",
"1602 1556 LINE",
"1602 1482 LINE",
"1507 1478 OFFCURVE",
"1449 1464 OFFCURVE",
"1426 1440 CURVE SMOOTH",
"1408 1421 OFFCURVE",
"1399 1381 OFFCURVE",
"1399 1321 CURVE SMOOTH",
"1399 236 LINE SMOOTH",
"1399 171 OFFCURVE",
"1409 130 OFFCURVE",
"1430 113 CURVE SMOOTH",
"1453 92 OFFCURVE",
"1511 79 OFFCURVE",
"1602 74 CURVE",
"1602 0 LINE",
"1049 0 LINE",
"1049 74 LINE",
"1146 80 OFFCURVE",
"1205 94 OFFCURVE",
"1226 116 CURVE SMOOTH",
"1245 135 OFFCURVE",
"1254 175 OFFCURVE",
"1254 236 CURVE SMOOTH",
"1254 775 LINE",
"385 775 LINE",
"385 236 LINE SMOOTH",
"385 162 OFFCURVE",
"401 117 OFFCURVE",
"432 101 CURVE SMOOTH",
"457 88 OFFCURVE",
"510 79 OFFCURVE",
"590 74 CURVE",
"590 0 LINE",
"37 0 LINE"
);
},
{
closed = 1;
nodes = (
"1254 877 LINE",
"1254 1065 LINE",
"385 1065 LINE",
"385 877 LINE"
);
}
);
vertWidth = 2048;
width = 1638;
}
);
unicode = 0126;
},
{
color = 3;
glyphname = IJ;
lastChange = "2022-04-07 18:22:07 +0000";
layers = (
{
background = {
paths = (
{
closed = 1;
nodes = (
"574 1556 LINE",
"961 1556 LINE",
"961 1482 LINE",
"911 1479 OFFCURVE",
"877 1468 OFFCURVE",
"860 1449 CURVE SMOOTH",
"845 1433 OFFCURVE",
"838 1407 OFFCURVE",
"838 1370 CURVE SMOOTH",
"838 366 LINE SMOOTH",
"838 250 OFFCURVE",
"818 160 OFFCURVE",
"779 96 CURVE SMOOTH",
"719 -1 OFFCURVE",
"604 -39 OFFCURVE",
"472 -39 CURVE SMOOTH",
"300 -39 OFFCURVE",
"151 64 OFFCURVE",
"151 200 CURVE SMOOTH",
"151 223 OFFCURVE",
"155 243 OFFCURVE",
"164 260 CURVE SMOOTH",
"183 297 OFFCURVE",
"214 315 OFFCURVE",
"257 315 CURVE SMOOTH",
"294 315 OFFCURVE",
"324 301 OFFCURVE",
"346 274 CURVE SMOOTH",
"361 255 OFFCURVE",
"368 233 OFFCURVE",
"368 208 CURVE SMOOTH",
"368 166 OFFCURVE",
"348 133 OFFCURVE",
"307 109 CURVE",
"338 76 OFFCURVE",
"393 59 OFFCURVE",
"472 59 CURVE SMOOTH",
"627 59 OFFCURVE",
"705 163 OFFCURVE",
"705 371 CURVE SMOOTH",
"705 1370 LINE SMOOTH",
"705 1412 OFFCURVE",
"695 1441 OFFCURVE",
"674 1458 CURVE SMOOTH",
"657 1471 OFFCURVE",
"623 1479 OFFCURVE",
"574 1482 CURVE"
);
},
{
closed = 1;
nodes = (
"55 1556 LINE",
"452 1556 LINE",
"452 1482 LINE",
"401 1478 OFFCURVE",
"367 1469 OFFCURVE",
"348 1456 CURVE SMOOTH",
"330 1443 OFFCURVE",
"321 1417 OFFCURVE",
"321 1378 CURVE SMOOTH",
"321 578 LINE SMOOTH",
"321 543 OFFCURVE",
"331 517 OFFCURVE",
"352 500 CURVE SMOOTH",
"366 489 OFFCURVE",
"399 481 OFFCURVE",
"452 474 CURVE",
"452 400 LINE",
"55 400 LINE",
"55 474 LINE",
"108 481 OFFCURVE",
"143 491 OFFCURVE",
"160 504 CURVE SMOOTH",
"177 519 OFFCURVE",
"186 544 OFFCURVE",
"186 578 CURVE SMOOTH",
"186 1378 LINE SMOOTH",
"186 1417 OFFCURVE",
"177 1443 OFFCURVE",
"159 1456 CURVE SMOOTH",
"140 1469 OFFCURVE",
"106 1478 OFFCURVE",
"55 1482 CURVE"
);
}
);
};
layerId = "4E782664-D0D5-4FED-AFC2-B9212141A2ED";
paths = (
{
closed = 1;
nodes = (
"84 1556 LINE",
"694 1556 LINE",
"694 1482 LINE",
"589 1473 OFFCURVE",
"525 1456 OFFCURVE",
"500 1432 CURVE SMOOTH",
"477 1409 OFFCURVE",
"465 1363 OFFCURVE",
"465 1296 CURVE SMOOTH",
"465 740 LINE SMOOTH",
"465 592 OFFCURVE",
"520 570 OFFCURVE",
"694 554 CURVE",
"694 480 LINE",
"84 480 LINE",
"84 554 LINE",
"257 573 OFFCURVE",
"313 589 OFFCURVE",
"313 740 CURVE SMOOTH",
"313 1296 LINE SMOOTH",
"313 1378 OFFCURVE",
"293 1429 OFFCURVE",
"254 1449 CURVE SMOOTH",
"224 1464 OFFCURVE",
"167 1475 OFFCURVE",
"84 1482 CURVE"
);
},
{
closed = 1;
nodes = (
"806 1556 LINE",
"1429 1556 LINE",
"1429 1482 LINE",
"1324 1477 OFFCURVE",
"1258 1460 OFFCURVE",
"1230 1431 CURVE SMOOTH",
"1207 1407 OFFCURVE",
"1195 1362 OFFCURVE",
"1195 1296 CURVE SMOOTH",
"1195 487 LINE SMOOTH",
"1195 156 OFFCURVE",
"1092 -39 OFFCURVE",
"719 -39 CURVE SMOOTH",
"492 -39 OFFCURVE",
"290 85 OFFCURVE",
"290 272 CURVE SMOOTH",
"290 295 OFFCURVE",
"295 316 OFFCURVE",
"304 333 CURVE SMOOTH",
"327 377 OFFCURVE",
"362 399 OFFCURVE",
"409 399 CURVE SMOOTH",
"435 399 OFFCURVE",
"459 392 OFFCURVE",
"480 379 CURVE SMOOTH",
"513 358 OFFCURVE",
"530 325 OFFCURVE",
"530 282 CURVE SMOOTH",
"530 227 OFFCURVE",
"501 189 OFFCURVE",
"442 170 CURVE",
"486 96 OFFCURVE",
"576 59 OFFCURVE",
"715 59 CURVE SMOOTH",
"982 59 OFFCURVE",
"1050 235 OFFCURVE",
"1050 473 CURVE SMOOTH",
"1050 1296 LINE SMOOTH",
"1050 1369 OFFCURVE",
"1036 1417 OFFCURVE",
"1007 1439 CURVE SMOOTH",
"975 1463 OFFCURVE",
"908 1477 OFFCURVE",
"806 1482 CURVE"
);
}
);
vertWidth = 2048;
width = 1474;
}
);
unicode = 0132;
},
{
color = 3;
glyphname = Ibreve;
lastChange = "2022-04-07 18:22:07 +0000";
layers = (
{
background = {
paths = (
{
closed = 1;
nodes = (
"314 1454 LINE",
"711 1454 LINE",
"711 1382 LINE",
"660 1378 OFFCURVE",
"626 1369 OFFCURVE",
"607 1356 CURVE SMOOTH",
"589 1343 OFFCURVE",
"580 1317 OFFCURVE",
"580 1278 CURVE SMOOTH",
"580 176 LINE SMOOTH",
"580 141 OFFCURVE",
"590 115 OFFCURVE",
"611 98 CURVE SMOOTH",
"625 87 OFFCURVE",
"658 79 OFFCURVE",
"711 72 CURVE",
"711 0 LINE",
"314 0 LINE",
"314 72 LINE",
"367 78 OFFCURVE",
"402 88 OFFCURVE",
"419 102 CURVE SMOOTH",
"436 117 OFFCURVE",
"445 141 OFFCURVE",
"445 176 CURVE SMOOTH",
"445 1278 LINE SMOOTH",
"445 1317 OFFCURVE",
"436 1343 OFFCURVE",
"418 1356 CURVE SMOOTH",
"399 1369 OFFCURVE",
"365 1378 OFFCURVE",
"314 1382 CURVE"
);
},
{
closed = 1;
nodes = (
"823 1800 LINE",
"777 1642 OFFCURVE",
"673 1563 OFFCURVE",
"511 1563 CURVE SMOOTH",
"349 1563 OFFCURVE",
"246 1642 OFFCURVE",
"201 1800 CURVE",
"285 1800 LINE",
"320 1719 OFFCURVE",
"396 1678 OFFCURVE",
"512 1678 CURVE SMOOTH",
"627 1678 OFFCURVE",
"702 1719 OFFCURVE",
"739 1800 CURVE"
);
}
);
};
layerId = "4E782664-D0D5-4FED-AFC2-B9212141A2ED";
paths = (
{
closed = 1;
nodes = (
"84 1456 LINE",
"694 1456 LINE",
"694 1382 LINE",
"589 1373 OFFCURVE",
"525 1356 OFFCURVE",
"500 1332 CURVE SMOOTH",
"477 1309 OFFCURVE",
"465 1263 OFFCURVE",
"465 1196 CURVE SMOOTH",
"465 260 LINE SMOOTH",
"465 190 OFFCURVE",
"480 143 OFFCURVE",
"510 120 CURVE SMOOTH",
"537 99 OFFCURVE",
"598 83 OFFCURVE",
"694 74 CURVE",
"694 0 LINE",
"84 0 LINE",
"84 74 LINE",
"184 85 OFFCURVE",
"247 101 OFFCURVE",
"272 123 CURVE SMOOTH",
"299 146 OFFCURVE",
"313 192 OFFCURVE",
"313 260 CURVE SMOOTH",
"313 1196 LINE SMOOTH",
"313 1278 OFFCURVE",
"293 1329 OFFCURVE",
"254 1349 CURVE SMOOTH",
"224 1364 OFFCURVE",
"167 1375 OFFCURVE",
"84 1382 CURVE"
);
},
{
closed = 1;
nodes = (
"701 1800 LINE",
"655 1642 OFFCURVE",
"551 1563 OFFCURVE",
"389 1563 CURVE SMOOTH",
"227 1563 OFFCURVE",
"124 1642 OFFCURVE",
"79 1800 CURVE",
"163 1800 LINE",
"198 1719 OFFCURVE",
"274 1678 OFFCURVE",
"390 1678 CURVE SMOOTH",
"505 1678 OFFCURVE",
"580 1719 OFFCURVE",
"617 1800 CURVE"
);
}
);
vertWidth = 2048;
width = 778;
}
);
unicode = 012C;
},
{
color = 3;
glyphname = Idotaccent;
lastChange = "2022-04-07 18:22:07 +0000";
layers = (
{
background = {
paths = (
{
closed = 1;
nodes = (
"314 1454 LINE",
"711 1454 LINE",
"711 1382 LINE",
"660 1378 OFFCURVE",
"626 1369 OFFCURVE",
"607 1356 CURVE SMOOTH",
"589 1343 OFFCURVE",
"580 1317 OFFCURVE",
"580 1278 CURVE SMOOTH",
"580 176 LINE SMOOTH",
"580 141 OFFCURVE",
"590 115 OFFCURVE",
"611 98 CURVE SMOOTH",
"625 87 OFFCURVE",
"658 79 OFFCURVE",
"711 72 CURVE",
"711 0 LINE",
"314 0 LINE",
"314 72 LINE",
"367 78 OFFCURVE",
"402 88 OFFCURVE",
"419 102 CURVE SMOOTH",
"436 117 OFFCURVE",
"445 141 OFFCURVE",
"445 176 CURVE SMOOTH",
"445 1278 LINE SMOOTH",
"445 1317 OFFCURVE",
"436 1343 OFFCURVE",
"418 1356 CURVE SMOOTH",
"399 1369 OFFCURVE",
"365 1378 OFFCURVE",
"314 1382 CURVE"
);
},
{
closed = 1;
nodes = (
"532 1801 OFFCURVE",
"549 1797 OFFCURVE",
"565 1790 CURVE SMOOTH",
"610 1769 OFFCURVE",
"633 1733 OFFCURVE",
"633 1682 CURVE SMOOTH",
"633 1649 OFFCURVE",
"621 1621 OFFCURVE",
"598 1598 CURVE SMOOTH",
"575 1575 OFFCURVE",
"546 1563 OFFCURVE",
"513 1563 CURVE SMOOTH",
"493 1563 OFFCURVE",
"474 1568 OFFCURVE",
"457 1578 CURVE SMOOTH",
"416 1601 OFFCURVE",
"395 1636 OFFCURVE",
"395 1683 CURVE SMOOTH",
"395 1718 OFFCURVE",
"408 1747 OFFCURVE",
"434 1770 CURVE SMOOTH",
"456 1791 OFFCURVE",
"483 1801 OFFCURVE",
"515 1801 CURVE SMOOTH"
);
}
);
};
layerId = "4E782664-D0D5-4FED-AFC2-B9212141A2ED";
paths = (
{
closed = 1;
nodes = (
"84 1456 LINE",
"694 1456 LINE",
"694 1382 LINE",
"589 1373 OFFCURVE",
"525 1356 OFFCURVE",
"500 1332 CURVE SMOOTH",
"477 1309 OFFCURVE",
"465 1263 OFFCURVE",
"465 1196 CURVE SMOOTH",
"465 260 LINE SMOOTH",
"465 190 OFFCURVE",
"480 143 OFFCURVE",
"510 120 CURVE SMOOTH",
"537 99 OFFCURVE",
"598 83 OFFCURVE",
"694 74 CURVE",
"694 0 LINE",
"84 0 LINE",
"84 74 LINE",
"184 85 OFFCURVE",
"247 101 OFFCURVE",
"272 123 CURVE SMOOTH",
"299 146 OFFCURVE",
"313 192 OFFCURVE",
"313 260 CURVE SMOOTH",
"313 1196 LINE SMOOTH",
"313 1278 OFFCURVE",
"293 1329 OFFCURVE",
"254 1349 CURVE SMOOTH",
"224 1364 OFFCURVE",
"167 1375 OFFCURVE",
"84 1382 CURVE"
);
},
{
closed = 1;
nodes = (
"407 1801 OFFCURVE",
"424 1797 OFFCURVE",
"440 1790 CURVE SMOOTH",
"485 1769 OFFCURVE",
"508 1733 OFFCURVE",
"508 1682 CURVE SMOOTH",
"508 1649 OFFCURVE",
"496 1621 OFFCURVE",
"473 1598 CURVE SMOOTH",
"450 1575 OFFCURVE",
"421 1563 OFFCURVE",
"388 1563 CURVE SMOOTH",
"368 1563 OFFCURVE",
"349 1568 OFFCURVE",
"332 1578 CURVE SMOOTH",
"291 1601 OFFCURVE",
"270 1636 OFFCURVE",
"270 1683 CURVE SMOOTH",
"270 1718 OFFCURVE",
"283 1747 OFFCURVE",
"309 1770 CURVE SMOOTH",
"331 1791 OFFCURVE",
"358 1801 OFFCURVE",
"390 1801 CURVE SMOOTH"
);
}
);
vertWidth = 2048;
width = 778;
}
);
unicode = 0130;
},
{
color = 3;
glyphname = Iogonek;
lastChange = "2022-04-07 18:22:07 +0000";
layers = (
{
background = {
paths = (
{
closed = 1;
nodes = (
"316 -242 OFFCURVE",
"268 -231 OFFCURVE",
"231 -208 CURVE SMOOTH",
"193 -185 OFFCURVE",
"174 -151 OFFCURVE",
"174 -106 CURVE SMOOTH",
"174 -35 OFFCURVE",
"220 27 OFFCURVE",
"312 80 CURVE",
"84 80 LINE",
"84 154 LINE",
"184 165 OFFCURVE",
"247 181 OFFCURVE",
"272 203 CURVE SMOOTH",
"299 226 OFFCURVE",
"313 272 OFFCURVE",
"313 340 CURVE SMOOTH",
"313 1296 LINE SMOOTH",
"313 1378 OFFCURVE",
"293 1429 OFFCURVE",
"254 1449 CURVE SMOOTH",
"224 1464 OFFCURVE",
"167 1475 OFFCURVE",
"84 1482 CURVE",
"84 1556 LINE",
"694 1556 LINE",
"694 1482 LINE",
"589 1473 OFFCURVE",
"525 1456 OFFCURVE",
"500 1432 CURVE SMOOTH",
"477 1409 OFFCURVE",
"465 1363 OFFCURVE",
"465 1296 CURVE SMOOTH",
"465 340 LINE SMOOTH",
"465 270 OFFCURVE",
"480 223 OFFCURVE",
"510 200 CURVE SMOOTH",
"537 179 OFFCURVE",
"598 163 OFFCURVE",
"694 154 CURVE",
"694 80 LINE",
"427 80 LINE",
"353 28 OFFCURVE",
"317 -26 OFFCURVE",
"317 -79 CURVE SMOOTH",
"317 -128 OFFCURVE",
"352 -152 OFFCURVE",
"423 -152 CURVE SMOOTH",
"490 -152 OFFCURVE",
"557 -127 OFFCURVE",
"624 -78 CURVE",
"646 -141 LINE",
"569 -208 OFFCURVE",
"479 -242 OFFCURVE",
"377 -242 CURVE SMOOTH"
);
}
);
};
layerId = "4E782664-D0D5-4FED-AFC2-B9212141A2ED";
paths = (
{
closed = 1;
nodes = (
"316 -242 OFFCURVE",
"268 -231 OFFCURVE",
"231 -208 CURVE SMOOTH",
"193 -185 OFFCURVE",
"174 -151 OFFCURVE",
"174 -106 CURVE SMOOTH",
"174 -35 OFFCURVE",
"220 27 OFFCURVE",
"312 80 CURVE",
"84 80 LINE",
"84 154 LINE",
"184 165 OFFCURVE",
"247 181 OFFCURVE",
"272 203 CURVE SMOOTH",
"299 226 OFFCURVE",
"313 272 OFFCURVE",
"313 340 CURVE SMOOTH",
"313 1296 LINE SMOOTH",
"313 1378 OFFCURVE",
"293 1429 OFFCURVE",
"254 1449 CURVE SMOOTH",
"224 1464 OFFCURVE",
"167 1475 OFFCURVE",
"84 1482 CURVE",
"84 1556 LINE",
"694 1556 LINE",
"694 1482 LINE",
"589 1473 OFFCURVE",
"525 1456 OFFCURVE",
"500 1432 CURVE SMOOTH",
"477 1409 OFFCURVE",
"465 1363 OFFCURVE",
"465 1296 CURVE SMOOTH",
"465 340 LINE SMOOTH",
"465 270 OFFCURVE",
"480 223 OFFCURVE",
"510 200 CURVE SMOOTH",
"537 179 OFFCURVE",
"598 163 OFFCURVE",
"694 154 CURVE",
"694 80 LINE",
"427 80 LINE",
"353 28 OFFCURVE",
"317 -26 OFFCURVE",
"317 -79 CURVE SMOOTH",
"317 -128 OFFCURVE",
"352 -152 OFFCURVE",
"423 -152 CURVE SMOOTH",
"490 -152 OFFCURVE",
"557 -127 OFFCURVE",
"624 -78 CURVE",
"646 -141 LINE",
"569 -208 OFFCURVE",
"479 -242 OFFCURVE",
"377 -242 CURVE SMOOTH"
);
}
);
vertWidth = 2048;
width = 778;
}
);
unicode = 012E;
},
{
color = 3;
glyphname = Itilde;
lastChange = "2022-04-07 18:22:07 +0000";
layers = (
{
background = {
paths = (
{
closed = 1;
nodes = (
"314 1454 LINE",
"711 1454 LINE",
"711 1382 LINE",
"660 1378 OFFCURVE",
"626 1369 OFFCURVE",
"607 1356 CURVE SMOOTH",
"589 1343 OFFCURVE",
"580 1317 OFFCURVE",
"580 1278 CURVE SMOOTH",
"580 176 LINE SMOOTH",
"580 141 OFFCURVE",
"590 115 OFFCURVE",
"611 98 CURVE SMOOTH",
"625 87 OFFCURVE",
"658 79 OFFCURVE",
"711 72 CURVE",
"711 0 LINE",
"314 0 LINE",
"314 72 LINE",
"367 78 OFFCURVE",
"402 88 OFFCURVE",
"419 102 CURVE SMOOTH",
"436 117 OFFCURVE",
"445 141 OFFCURVE",
"445 176 CURVE SMOOTH",
"445 1278 LINE SMOOTH",
"445 1317 OFFCURVE",
"436 1343 OFFCURVE",
"418 1356 CURVE SMOOTH",
"399 1369 OFFCURVE",
"365 1378 OFFCURVE",
"314 1382 CURVE"
);
},
{
closed = 1;
nodes = (
"170 1614 LINE",
"233 1722 OFFCURVE",
"306 1776 OFFCURVE",
"391 1776 CURVE SMOOTH",
"442 1776 OFFCURVE",
"492 1759 OFFCURVE",
"541 1726 CURVE SMOOTH",
"590 1693 OFFCURVE",
"634 1677 OFFCURVE",
"673 1677 CURVE SMOOTH",
"738 1677 OFFCURVE",
"789 1706 OFFCURVE",
"827 1764 CURVE",
"875 1704 LINE",
"811 1596 OFFCURVE",
"737 1542 OFFCURVE",
"654 1542 CURVE SMOOTH",
"603 1542 OFFCURVE",
"553 1558 OFFCURVE",
"504 1591 CURVE SMOOTH",
"455 1624 OFFCURVE",
"411 1641 OFFCURVE",
"371 1641 CURVE SMOOTH",
"307 1641 OFFCURVE",
"256 1612 OFFCURVE",
"217 1555 CURVE"
);
}
);
};
layerId = "4E782664-D0D5-4FED-AFC2-B9212141A2ED";
paths = (
{
closed = 1;
nodes = (
"84 1456 LINE",
"694 1456 LINE",
"694 1382 LINE",
"589 1373 OFFCURVE",
"525 1356 OFFCURVE",
"500 1332 CURVE SMOOTH",
"477 1309 OFFCURVE",
"465 1263 OFFCURVE",
"465 1196 CURVE SMOOTH",
"465 260 LINE SMOOTH",
"465 190 OFFCURVE",
"480 143 OFFCURVE",
"510 120 CURVE SMOOTH",
"537 99 OFFCURVE",
"598 83 OFFCURVE",
"694 74 CURVE",
"694 0 LINE",
"84 0 LINE",
"84 74 LINE",
"184 85 OFFCURVE",
"247 101 OFFCURVE",
"272 123 CURVE SMOOTH",
"299 146 OFFCURVE",
"313 192 OFFCURVE",
"313 260 CURVE SMOOTH",
"313 1196 LINE SMOOTH",
"313 1278 OFFCURVE",
"293 1329 OFFCURVE",
"254 1349 CURVE SMOOTH",
"224 1364 OFFCURVE",
"167 1375 OFFCURVE",
"84 1382 CURVE"
);
},
{
closed = 1;
nodes = (
"30 1614 LINE",
"93 1722 OFFCURVE",
"166 1776 OFFCURVE",
"251 1776 CURVE SMOOTH",
"302 1776 OFFCURVE",
"352 1759 OFFCURVE",
"401 1726 CURVE SMOOTH",
"450 1693 OFFCURVE",
"494 1677 OFFCURVE",
"533 1677 CURVE SMOOTH",
"598 1677 OFFCURVE",
"649 1706 OFFCURVE",
"687 1764 CURVE",
"735 1704 LINE",
"671 1596 OFFCURVE",
"597 1542 OFFCURVE",
"514 1542 CURVE SMOOTH",
"463 1542 OFFCURVE",
"413 1558 OFFCURVE",
"364 1591 CURVE SMOOTH",
"315 1624 OFFCURVE",
"271 1641 OFFCURVE",
"231 1641 CURVE SMOOTH",
"167 1641 OFFCURVE",
"116 1612 OFFCURVE",
"77 1555 CURVE"
);
}
);
vertWidth = 2048;
width = 778;
}
);
unicode = 0128;
},
{
color = 3;
glyphname = Kcommaaccent;
lastChange = "2022-04-07 18:22:07 +0000";
layers = (
{
background = {
paths = (
{
closed = 1;
nodes = (
"35 144 LINE",
"128 152 OFFCURVE",
"186 167 OFFCURVE",
"208 188 CURVE SMOOTH",
"228 207 OFFCURVE",
"238 246 OFFCURVE",
"238 305 CURVE SMOOTH",
"238 1321 LINE SMOOTH",
"238 1382 OFFCURVE",
"227 1422 OFFCURVE",
"205 1441 CURVE SMOOTH",
"181 1462 OFFCURVE",
"124 1476 OFFCURVE",
"35 1482 CURVE",
"35 1556 LINE",
"587 1556 LINE",
"587 1482 LINE",
"494 1473 OFFCURVE",
"436 1459 OFFCURVE",
"414 1438 CURVE SMOOTH",
"395 1420 OFFCURVE",
"385 1381 OFFCURVE",
"385 1321 CURVE SMOOTH",
"385 782 LINE",
"1054 1382 LINE SMOOTH",
"1069 1396 OFFCURVE",
"1077 1409 OFFCURVE",
"1077 1422 CURVE SMOOTH",
"1077 1437 OFFCURVE",
"1057 1451 OFFCURVE",
"1018 1464 CURVE SMOOTH",
"989 1473 OFFCURVE",
"950 1479 OFFCURVE",
"901 1482 CURVE",
"901 1556 LINE",
"1454 1556 LINE",
"1454 1482 LINE",
"1390 1475 OFFCURVE",
"1337 1461 OFFCURVE",
"1295 1439 CURVE SMOOTH",
"1262 1422 OFFCURVE",
"1229 1395 OFFCURVE",
"1192 1362 CURVE SMOOTH",
"753 964 LINE",
"1370 273 LINE SMOOTH",
"1431 204 OFFCURVE",
"1509 160 OFFCURVE",
"1609 144 CURVE",
"1609 70 LINE",
"1036 70 LINE",
"1036 144 LINE",
"1152 153 OFFCURVE",
"1210 172 OFFCURVE",
"1210 200 CURVE SMOOTH",
"1210 216 OFFCURVE",
"1201 236 OFFCURVE",
"1181 258 CURVE SMOOTH",
"649 870 LINE",
"385 631 LINE",
"385 305 LINE SMOOTH",
"385 244 OFFCURVE",
"398 203 OFFCURVE",
"423 182 CURVE SMOOTH",
"444 165 OFFCURVE",
"498 153 OFFCURVE",
"587 144 CURVE",
"587 70 LINE",
"35 70 LINE"
);
},
{
closed = 1;
nodes = (
"736 -191 LINE",
"770 -171 OFFCURVE",
"788 -151 OFFCURVE",
"790 -130 CURVE",
"719 -130 OFFCURVE",
"670 -109 OFFCURVE",
"670 -56 CURVE SMOOTH",
"670 -6 OFFCURVE",
"715 21 OFFCURVE",
"779 21 CURVE SMOOTH",
"848 21 OFFCURVE",
"899 -10 OFFCURVE",
"899 -77 CURVE SMOOTH",
"899 -153 OFFCURVE",
"850 -199 OFFCURVE",
"777 -246 CURVE"
);
}
);
};
layerId = "4E782664-D0D5-4FED-AFC2-B9212141A2ED";
paths = (
{
closed = 1;
nodes = (
"35 144 LINE",
"128 152 OFFCURVE",
"186 167 OFFCURVE",
"208 188 CURVE SMOOTH",
"228 207 OFFCURVE",
"238 246 OFFCURVE",
"238 305 CURVE SMOOTH",
"238 1321 LINE SMOOTH",
"238 1382 OFFCURVE",
"227 1422 OFFCURVE",
"205 1441 CURVE SMOOTH",
"181 1462 OFFCURVE",
"124 1476 OFFCURVE",
"35 1482 CURVE",
"35 1556 LINE",
"587 1556 LINE",
"587 1482 LINE",
"494 1473 OFFCURVE",
"436 1459 OFFCURVE",
"414 1438 CURVE SMOOTH",
"395 1420 OFFCURVE",
"385 1381 OFFCURVE",
"385 1321 CURVE SMOOTH",
"385 782 LINE",
"1054 1382 LINE SMOOTH",
"1069 1396 OFFCURVE",
"1077 1409 OFFCURVE",
"1077 1422 CURVE SMOOTH",
"1077 1437 OFFCURVE",
"1057 1451 OFFCURVE",
"1018 1464 CURVE SMOOTH",
"989 1473 OFFCURVE",
"950 1479 OFFCURVE",
"901 1482 CURVE",
"901 1556 LINE",
"1454 1556 LINE",
"1454 1482 LINE",
"1390 1475 OFFCURVE",
"1337 1461 OFFCURVE",
"1295 1439 CURVE SMOOTH",
"1262 1422 OFFCURVE",
"1229 1395 OFFCURVE",
"1192 1362 CURVE SMOOTH",
"753 964 LINE",
"1370 273 LINE SMOOTH",
"1431 204 OFFCURVE",
"1509 160 OFFCURVE",
"1609 144 CURVE",
"1609 70 LINE",
"1036 70 LINE",
"1036 144 LINE",
"1152 153 OFFCURVE",
"1210 172 OFFCURVE",
"1210 200 CURVE SMOOTH",
"1210 216 OFFCURVE",
"1201 236 OFFCURVE",
"1181 258 CURVE SMOOTH",
"649 870 LINE",
"385 631 LINE",
"385 305 LINE SMOOTH",
"385 244 OFFCURVE",
"398 203 OFFCURVE",
"423 182 CURVE SMOOTH",
"444 165 OFFCURVE",
"498 153 OFFCURVE",
"587 144 CURVE",
"587 70 LINE",
"35 70 LINE"
);
},
{
closed = 1;
nodes = (
"736 -191 LINE",
"770 -171 OFFCURVE",
"788 -151 OFFCURVE",
"790 -130 CURVE",
"719 -130 OFFCURVE",
"670 -109 OFFCURVE",
"670 -56 CURVE SMOOTH",
"670 -6 OFFCURVE",
"715 21 OFFCURVE",
"779 21 CURVE SMOOTH",
"848 21 OFFCURVE",
"899 -10 OFFCURVE",
"899 -77 CURVE SMOOTH",
"899 -153 OFFCURVE",
"850 -199 OFFCURVE",
"777 -246 CURVE"
);
}
);
vertWidth = 2048;
width = 1618;
}
);
unicode = 0136;
},
{
color = 3;
glyphname = Lcommaaccent;
lastChange = "2022-04-07 18:22:07 +0000";
layers = (
{
background = {
paths = (
{
closed = 1;
nodes = (
"154 1556 LINE",
"531 1556 LINE",
"531 1482 LINE",
"480 1477 OFFCURVE",
"445 1466 OFFCURVE",
"428 1447 CURVE SMOOTH",
"413 1431 OFFCURVE",
"406 1401 OFFCURVE",
"406 1357 CURVE SMOOTH",
"406 285 LINE SMOOTH",
"406 241 OFFCURVE",
"413 211 OFFCURVE",
"428 195 CURVE SMOOTH",
"442 180 OFFCURVE",
"468 172 OFFCURVE",
"506 172 CURVE SMOOTH",
"578 172 LINE SMOOTH",
"699 172 OFFCURVE",
"774 296 OFFCURVE",
"803 545 CURVE",
"871 545 LINE",
"848 70 LINE",
"154 70 LINE",
"154 144 LINE",
"199 149 OFFCURVE",
"231 161 OFFCURVE",
"248 179 CURVE SMOOTH",
"263 194 OFFCURVE",
"271 224 OFFCURVE",
"271 269 CURVE SMOOTH",
"271 1357 LINE SMOOTH",
"271 1406 OFFCURVE",
"263 1438 OFFCURVE",
"246 1454 CURVE SMOOTH",
"231 1469 OFFCURVE",
"200 1478 OFFCURVE",
"154 1482 CURVE"
);
},
{
closed = 1;
nodes = (
"456 -191 LINE",
"490 -171 OFFCURVE",
"508 -151 OFFCURVE",
"510 -130 CURVE",
"439 -130 OFFCURVE",
"390 -109 OFFCURVE",
"390 -56 CURVE SMOOTH",
"390 -6 OFFCURVE",
"435 21 OFFCURVE",
"499 21 CURVE SMOOTH",
"568 21 OFFCURVE",
"619 -10 OFFCURVE",
"619 -77 CURVE SMOOTH",
"619 -153 OFFCURVE",
"570 -199 OFFCURVE",
"497 -246 CURVE"
);
}
);
};
layerId = "4E782664-D0D5-4FED-AFC2-B9212141A2ED";
paths = (
{
closed = 1;
nodes = (
"59 1556 LINE",
"654 1556 LINE",
"654 1482 LINE",
"552 1473 OFFCURVE",
"488 1456 OFFCURVE",
"462 1433 CURVE SMOOTH",
"436 1410 OFFCURVE",
"423 1364 OFFCURVE",
"423 1296 CURVE SMOOTH",
"423 346 LINE SMOOTH",
"423 275 OFFCURVE",
"438 228 OFFCURVE",
"468 205 CURVE SMOOTH",
"497 183 OFFCURVE",
"553 172 OFFCURVE",
"636 172 CURVE SMOOTH",
"738 172 LINE SMOOTH",
"879 172 OFFCURVE",
"985 211 OFFCURVE",
"1056 288 CURVE SMOOTH",
"1113 348 OFFCURVE",
"1151 446 OFFCURVE",
"1171 582 CURVE",
"1242 582 LINE",
"1207 70 LINE",
"59 70 LINE",
"59 144 LINE",
"140 151 OFFCURVE",
"198 170 OFFCURVE",
"233 199 CURVE SMOOTH",
"263 224 OFFCURVE",
"278 267 OFFCURVE",
"278 330 CURVE SMOOTH",
"278 1296 LINE SMOOTH",
"278 1366 OFFCURVE",
"264 1413 OFFCURVE",
"235 1437 CURVE SMOOTH",
"209 1458 OFFCURVE",
"150 1473 OFFCURVE",
"59 1482 CURVE"
);
},
{
closed = 1;
nodes = (
"646 -191 LINE",
"680 -171 OFFCURVE",
"698 -151 OFFCURVE",
"700 -130 CURVE",
"629 -130 OFFCURVE",
"580 -109 OFFCURVE",
"580 -56 CURVE SMOOTH",
"580 -6 OFFCURVE",
"625 21 OFFCURVE",
"689 21 CURVE SMOOTH",
"758 21 OFFCURVE",
"809 -10 OFFCURVE",
"809 -77 CURVE SMOOTH",
"809 -153 OFFCURVE",
"760 -199 OFFCURVE",
"687 -246 CURVE"
);
}
);
vertWidth = 2048;
width = 1290;
}
);
unicode = 013B;
},
{
color = 3;
glyphname = Ldot;
lastChange = "2022-04-07 18:22:07 +0000";
layers = (
{
background = {
paths = (
{
closed = 1;
nodes = (
"154 1556 LINE",
"531 1556 LINE",
"531 1482 LINE",
"480 1477 OFFCURVE",
"445 1466 OFFCURVE",
"428 1447 CURVE SMOOTH",
"413 1431 OFFCURVE",
"406 1401 OFFCURVE",
"406 1357 CURVE SMOOTH",
"406 215 LINE SMOOTH",
"406 171 OFFCURVE",
"413 141 OFFCURVE",
"428 125 CURVE SMOOTH",
"442 110 OFFCURVE",
"468 102 OFFCURVE",
"506 102 CURVE SMOOTH",
"578 102 LINE SMOOTH",
"699 102 OFFCURVE",
"774 226 OFFCURVE",
"803 475 CURVE",
"871 475 LINE",
"848 0 LINE",
"154 0 LINE",
"154 74 LINE",
"199 79 OFFCURVE",
"231 91 OFFCURVE",
"248 109 CURVE SMOOTH",
"263 124 OFFCURVE",
"271 154 OFFCURVE",
"271 199 CURVE SMOOTH",
"271 1357 LINE SMOOTH",
"271 1406 OFFCURVE",
"263 1438 OFFCURVE",
"246 1454 CURVE SMOOTH",
"231 1469 OFFCURVE",
"200 1478 OFFCURVE",
"154 1482 CURVE"
);
},
{
closed = 1;
nodes = (
"734 1081 OFFCURVE",
"751 1077 OFFCURVE",
"767 1070 CURVE SMOOTH",
"812 1049 OFFCURVE",
"835 1013 OFFCURVE",
"835 962 CURVE SMOOTH",
"835 929 OFFCURVE",
"823 901 OFFCURVE",
"800 878 CURVE SMOOTH",
"777 855 OFFCURVE",
"748 843 OFFCURVE",
"715 843 CURVE SMOOTH",
"695 843 OFFCURVE",
"676 848 OFFCURVE",
"659 858 CURVE SMOOTH",
"618 881 OFFCURVE",
"597 916 OFFCURVE",
"597 963 CURVE SMOOTH",
"597 998 OFFCURVE",
"610 1027 OFFCURVE",
"636 1050 CURVE SMOOTH",
"658 1071 OFFCURVE",
"685 1081 OFFCURVE",
"717 1081 CURVE SMOOTH"
);
}
);
};
layerId = "4E782664-D0D5-4FED-AFC2-B9212141A2ED";
paths = (
{
closed = 1;
nodes = (
"59 1556 LINE",
"654 1556 LINE",
"654 1482 LINE",
"552 1473 OFFCURVE",
"488 1456 OFFCURVE",
"462 1433 CURVE SMOOTH",
"436 1410 OFFCURVE",
"423 1364 OFFCURVE",
"423 1296 CURVE SMOOTH",
"423 346 LINE SMOOTH",
"423 275 OFFCURVE",
"438 228 OFFCURVE",
"468 205 CURVE SMOOTH",
"497 183 OFFCURVE",
"553 172 OFFCURVE",
"636 172 CURVE SMOOTH",
"738 172 LINE SMOOTH",
"879 172 OFFCURVE",
"985 211 OFFCURVE",
"1056 288 CURVE SMOOTH",
"1113 348 OFFCURVE",
"1151 446 OFFCURVE",
"1171 582 CURVE",
"1242 582 LINE",
"1207 70 LINE",
"59 70 LINE",
"59 144 LINE",
"140 151 OFFCURVE",
"198 170 OFFCURVE",
"233 199 CURVE SMOOTH",
"263 224 OFFCURVE",
"278 267 OFFCURVE",
"278 330 CURVE SMOOTH",
"278 1296 LINE SMOOTH",
"278 1366 OFFCURVE",
"264 1413 OFFCURVE",
"235 1437 CURVE SMOOTH",
"209 1458 OFFCURVE",
"150 1473 OFFCURVE",
"59 1482 CURVE"
);
},
{
closed = 1;
nodes = (
"884 1081 OFFCURVE",
"901 1077 OFFCURVE",
"917 1070 CURVE SMOOTH",
"962 1049 OFFCURVE",
"985 1013 OFFCURVE",
"985 962 CURVE SMOOTH",
"985 929 OFFCURVE",
"973 901 OFFCURVE",
"950 878 CURVE SMOOTH",
"927 855 OFFCURVE",
"898 843 OFFCURVE",
"865 843 CURVE SMOOTH",
"845 843 OFFCURVE",
"826 848 OFFCURVE",
"809 858 CURVE SMOOTH",
"768 881 OFFCURVE",
"747 916 OFFCURVE",
"747 963 CURVE SMOOTH",
"747 998 OFFCURVE",
"760 1027 OFFCURVE",
"786 1050 CURVE SMOOTH",
"808 1071 OFFCURVE",
"835 1081 OFFCURVE",
"867 1081 CURVE SMOOTH"
);
}
);
vertWidth = 2048;
width = 1290;
}
);
unicode = 013F;
},
{
color = 3;
glyphname = Ncommaaccent;
lastChange = "2022-04-07 18:22:07 +0000";
layers = (
{
background = {
paths = (
{
closed = 1;
nodes = (
"74 1556 LINE",
"352 1556 LINE",
"760 365 LINE",
"768 365 LINE",
"768 1382 LINE SMOOTH",
"768 1414 OFFCURVE",
"760 1437 OFFCURVE",
"745 1450 CURVE SMOOTH",
"727 1465 OFFCURVE",
"698 1476 OFFCURVE",
"657 1482 CURVE",
"657 1556 LINE",
"967 1556 LINE",
"967 1482 LINE",
"927 1476 OFFCURVE",
"898 1465 OFFCURVE",
"881 1450 CURVE SMOOTH",
"866 1436 OFFCURVE",
"858 1413 OFFCURVE",
"858 1382 CURVE SMOOTH",
"858 45 LINE",
"733 45 LINE",
"278 1370 LINE",
"270 1370 LINE",
"270 244 LINE SMOOTH",
"270 207 OFFCURVE",
"278 181 OFFCURVE",
"295 166 CURVE SMOOTH",
"308 155 OFFCURVE",
"336 147 OFFCURVE",
"379 144 CURVE",
"379 70 LINE",
"74 70 LINE",
"74 144 LINE",
"120 151 OFFCURVE",
"149 161 OFFCURVE",
"161 174 CURVE SMOOTH",
"174 188 OFFCURVE",
"180 211 OFFCURVE",
"180 244 CURVE SMOOTH",
"180 1382 LINE SMOOTH",
"180 1418 OFFCURVE",
"173 1442 OFFCURVE",
"159 1454 CURVE SMOOTH",
"146 1466 OFFCURVE",
"117 1475 OFFCURVE",
"74 1482 CURVE"
);
},
{
closed = 1;
nodes = (
"456 -191 LINE",
"490 -171 OFFCURVE",
"508 -151 OFFCURVE",
"510 -130 CURVE",
"439 -130 OFFCURVE",
"390 -109 OFFCURVE",
"390 -56 CURVE SMOOTH",
"390 -6 OFFCURVE",
"435 21 OFFCURVE",
"499 21 CURVE SMOOTH",
"568 21 OFFCURVE",
"619 -10 OFFCURVE",
"619 -77 CURVE SMOOTH",
"619 -153 OFFCURVE",
"570 -199 OFFCURVE",
"497 -246 CURVE"
);
}
);
};
layerId = "4E782664-D0D5-4FED-AFC2-B9212141A2ED";
paths = (
{
closed = 1;
nodes = (
"43 1556 LINE",
"406 1556 LINE",
"1352 365 LINE",
"1360 365 LINE",
"1360 1321 LINE SMOOTH",
"1360 1382 OFFCURVE",
"1348 1422 OFFCURVE",
"1323 1441 CURVE SMOOTH",
"1296 1462 OFFCURVE",
"1241 1475 OFFCURVE",
"1157 1482 CURVE",
"1157 1556 LINE",
"1678 1556 LINE",
"1678 1482 LINE",
"1585 1475 OFFCURVE",
"1527 1462 OFFCURVE",
"1504 1441 CURVE SMOOTH",
"1483 1424 OFFCURVE",
"1473 1384 OFFCURVE",
"1473 1321 CURVE SMOOTH",
"1473 45 LINE",
"1393 45 LINE",
"369 1370 LINE",
"361 1370 LINE",
"361 305 LINE SMOOTH",
"361 241 OFFCURVE",
"375 199 OFFCURVE",
"404 180 CURVE SMOOTH",
"428 163 OFFCURVE",
"481 151 OFFCURVE",
"563 144 CURVE",
"563 70 LINE",
"43 70 LINE",
"43 144 LINE",
"136 152 OFFCURVE",
"194 167 OFFCURVE",
"216 188 CURVE SMOOTH",
"237 208 OFFCURVE",
"248 247 OFFCURVE",
"248 305 CURVE SMOOTH",
"248 1321 LINE SMOOTH",
"248 1394 OFFCURVE",
"232 1438 OFFCURVE",
"200 1455 CURVE SMOOTH",
"175 1469 OFFCURVE",
"122 1478 OFFCURVE",
"43 1482 CURVE"
);
},
{
closed = 1;
nodes = (
"806 -191 LINE",
"840 -171 OFFCURVE",
"858 -151 OFFCURVE",
"860 -130 CURVE",
"789 -130 OFFCURVE",
"740 -109 OFFCURVE",
"740 -56 CURVE SMOOTH",
"740 -6 OFFCURVE",
"785 21 OFFCURVE",
"849 21 CURVE SMOOTH",
"918 21 OFFCURVE",
"969 -10 OFFCURVE",
"969 -77 CURVE SMOOTH",
"969 -153 OFFCURVE",
"920 -199 OFFCURVE",
"847 -246 CURVE"
);
}
);
vertWidth = 2048;
width = 1720;
}
);
unicode = 0145;
},
{
color = 3;
glyphname = Eng;
lastChange = "2022-04-07 18:22:07 +0000";
layers = (
{
background = {
paths = (
{
closed = 1;
nodes = (
"1016 -244 OFFCURVE",
"902 -136 OFFCURVE",
"902 0 CURVE SMOOTH",
"902 71 OFFCURVE",
"947 123 OFFCURVE",
"1015 123 CURVE SMOOTH",
"1074 123 OFFCURVE",
"1123 81 OFFCURVE",
"1123 13 CURVE SMOOTH",
"1123 -41 OFFCURVE",
"1096 -76 OFFCURVE",
"1041 -92 CURVE",
"1064 -137 OFFCURVE",
"1103 -160 OFFCURVE",
"1157 -160 CURVE SMOOTH",
"1293 -160 OFFCURVE",
"1340 -49 OFFCURVE",
"1353 97 CURVE",
"369 1370 LINE",
"361 1370 LINE",
"361 305 LINE SMOOTH",
"361 241 OFFCURVE",
"375 199 OFFCURVE",
"404 180 CURVE SMOOTH",
"428 163 OFFCURVE",
"481 151 OFFCURVE",
"563 144 CURVE",
"563 70 LINE",
"43 70 LINE",
"43 144 LINE",
"136 152 OFFCURVE",
"194 167 OFFCURVE",
"216 188 CURVE SMOOTH",
"237 208 OFFCURVE",
"248 247 OFFCURVE",
"248 305 CURVE SMOOTH",
"248 1321 LINE SMOOTH",
"248 1394 OFFCURVE",
"232 1438 OFFCURVE",
"200 1455 CURVE SMOOTH",
"175 1469 OFFCURVE",
"122 1478 OFFCURVE",
"43 1482 CURVE",
"43 1556 LINE",
"406 1556 LINE",
"1352 365 LINE",
"1360 365 LINE",
"1360 1321 LINE SMOOTH",
"1360 1382 OFFCURVE",
"1348 1422 OFFCURVE",
"1323 1441 CURVE SMOOTH",
"1296 1462 OFFCURVE",
"1241 1475 OFFCURVE",
"1157 1482 CURVE",
"1157 1556 LINE",
"1678 1556 LINE",
"1678 1482 LINE",
"1585 1475 OFFCURVE",
"1527 1462 OFFCURVE",
"1504 1441 CURVE SMOOTH",
"1483 1424 OFFCURVE",
"1473 1384 OFFCURVE",
"1473 1321 CURVE SMOOTH",
"1473 227 LINE SMOOTH",
"1473 -40 OFFCURVE",
"1400 -244 OFFCURVE",
"1159 -244 CURVE SMOOTH"
);
}
);
};
layerId = "4E782664-D0D5-4FED-AFC2-B9212141A2ED";
paths = (
{
closed = 1;
nodes = (
"1016 -244 OFFCURVE",
"902 -136 OFFCURVE",
"902 0 CURVE SMOOTH",
"902 71 OFFCURVE",
"947 123 OFFCURVE",
"1015 123 CURVE SMOOTH",
"1074 123 OFFCURVE",
"1123 81 OFFCURVE",
"1123 13 CURVE SMOOTH",
"1123 -41 OFFCURVE",
"1096 -76 OFFCURVE",
"1041 -92 CURVE",
"1064 -137 OFFCURVE",
"1103 -160 OFFCURVE",
"1157 -160 CURVE SMOOTH",
"1293 -160 OFFCURVE",
"1340 -49 OFFCURVE",
"1353 97 CURVE",
"369 1370 LINE",
"361 1370 LINE",
"361 305 LINE SMOOTH",
"361 241 OFFCURVE",
"375 199 OFFCURVE",
"404 180 CURVE SMOOTH",
"428 163 OFFCURVE",
"481 151 OFFCURVE",
"563 144 CURVE",
"563 70 LINE",
"43 70 LINE",
"43 144 LINE",
"136 152 OFFCURVE",
"194 167 OFFCURVE",
"216 188 CURVE SMOOTH",
"237 208 OFFCURVE",
"248 247 OFFCURVE",
"248 305 CURVE SMOOTH",
"248 1321 LINE SMOOTH",
"248 1394 OFFCURVE",
"232 1438 OFFCURVE",
"200 1455 CURVE SMOOTH",
"175 1469 OFFCURVE",
"122 1478 OFFCURVE",
"43 1482 CURVE",
"43 1556 LINE",
"406 1556 LINE",
"1352 365 LINE",
"1360 365 LINE",
"1360 1321 LINE SMOOTH",
"1360 1382 OFFCURVE",
"1348 1422 OFFCURVE",
"1323 1441 CURVE SMOOTH",
"1296 1462 OFFCURVE",
"1241 1475 OFFCURVE",
"1157 1482 CURVE",
"1157 1556 LINE",
"1678 1556 LINE",
"1678 1482 LINE",
"1585 1475 OFFCURVE",
"1527 1462 OFFCURVE",
"1504 1441 CURVE SMOOTH",
"1483 1424 OFFCURVE",
"1473 1384 OFFCURVE",
"1473 1321 CURVE SMOOTH",
"1473 227 LINE SMOOTH",
"1473 -40 OFFCURVE",
"1400 -244 OFFCURVE",
"1159 -244 CURVE SMOOTH"
);
}
);
vertWidth = 2048;
width = 1720;
}
);
unicode = 014A;
},
{
color = 3;
glyphname = Obreve;
lastChange = "2022-04-07 18:22:07 +0000";
layers = (
{
background = {
paths = (
{
closed = 1;
nodes = (
"630 1493 OFFCURVE",
"724 1427 OFFCURVE",
"797 1294 CURVE SMOOTH",
"875 1151 OFFCURVE",
"914 961 OFFCURVE",
"914 724 CURVE SMOOTH",
"914 507 OFFCURVE",
"884 332 OFFCURVE",
"823 198 CURVE SMOOTH",
"752 40 OFFCURVE",
"648 -39 OFFCURVE",
"511 -39 CURVE SMOOTH",
"379 -39 OFFCURVE",
"277 37 OFFCURVE",
"206 189 CURVE SMOOTH",
"143 323 OFFCURVE",
"111 501 OFFCURVE",
"111 722 CURVE SMOOTH",
"111 983 OFFCURVE",
"157 1184 OFFCURVE",
"248 1327 CURVE SMOOTH",
"319 1438 OFFCURVE",
"407 1493 OFFCURVE",
"514 1493 CURVE SMOOTH"
);
},
{
closed = 1;
nodes = (
"438 1382 OFFCURVE",
"380 1328 OFFCURVE",
"337 1220 CURVE SMOOTH",
"292 1106 OFFCURVE",
"269 941 OFFCURVE",
"269 724 CURVE SMOOTH",
"269 525 OFFCURVE",
"290 368 OFFCURVE",
"331 253 CURVE SMOOTH",
"374 132 OFFCURVE",
"435 72 OFFCURVE",
"513 72 CURVE SMOOTH",
"585 72 OFFCURVE",
"642 124 OFFCURVE",
"685 229 CURVE SMOOTH",
"732 345 OFFCURVE",
"756 510 OFFCURVE",
"756 725 CURVE SMOOTH",
"756 956 OFFCURVE",
"730 1128 OFFCURVE",
"678 1243 CURVE SMOOTH",
"637 1336 OFFCURVE",
"581 1382 OFFCURVE",
"511 1382 CURVE SMOOTH"
);
},
{
closed = 1;
nodes = (
"826 1800 LINE",
"780 1642 OFFCURVE",
"676 1563 OFFCURVE",
"514 1563 CURVE SMOOTH",
"352 1563 OFFCURVE",
"249 1642 OFFCURVE",
"204 1800 CURVE",
"288 1800 LINE",
"323 1719 OFFCURVE",
"399 1678 OFFCURVE",
"515 1678 CURVE SMOOTH",
"630 1678 OFFCURVE",
"705 1719 OFFCURVE",
"742 1800 CURVE"
);
}
);
};
layerId = "4E782664-D0D5-4FED-AFC2-B9212141A2ED";
paths = (
{
closed = 1;
nodes = (
"1098 1493 OFFCURVE",
"1283 1406 OFFCURVE",
"1420 1233 CURVE SMOOTH",
"1530 1094 OFFCURVE",
"1585 923 OFFCURVE",
"1585 722 CURVE SMOOTH",
"1585 519 OFFCURVE",
"1533 350 OFFCURVE",
"1429 215 CURVE SMOOTH",
"1298 46 OFFCURVE",
"1108 -39 OFFCURVE",
"859 -39 CURVE SMOOTH",
"620 -39 OFFCURVE",
"435 41 OFFCURVE",
"304 200 CURVE SMOOTH",
"191 335 OFFCURVE",
"135 510 OFFCURVE",
"135 724 CURVE SMOOTH",
"135 858 OFFCURVE",
"161 980 OFFCURVE",
"213 1091 CURVE SMOOTH",
"300 1276 OFFCURVE",
"437 1399 OFFCURVE",
"626 1458 CURVE SMOOTH",
"699 1481 OFFCURVE",
"778 1493 OFFCURVE",
"863 1493 CURVE SMOOTH"
);
},
{
closed = 1;
nodes = (
"719 1384 OFFCURVE",
"603 1343 OFFCURVE",
"509 1261 CURVE SMOOTH",
"374 1143 OFFCURVE",
"307 965 OFFCURVE",
"307 726 CURVE SMOOTH",
"307 579 OFFCURVE",
"335 452 OFFCURVE",
"391 347 CURVE SMOOTH",
"488 162 OFFCURVE",
"645 70 OFFCURVE",
"861 70 CURVE SMOOTH",
"1055 70 OFFCURVE",
"1202 147 OFFCURVE",
"1303 302 CURVE SMOOTH",
"1376 415 OFFCURVE",
"1413 556 OFFCURVE",
"1413 725 CURVE SMOOTH",
"1413 934 OFFCURVE",
"1361 1097 OFFCURVE",
"1256 1216 CURVE SMOOTH",
"1157 1328 OFFCURVE",
"1023 1384 OFFCURVE",
"856 1384 CURVE SMOOTH"
);
},
{
closed = 1;
nodes = (
"1175 1800 LINE",
"1129 1642 OFFCURVE",
"1025 1563 OFFCURVE",
"863 1563 CURVE SMOOTH",
"701 1563 OFFCURVE",
"598 1642 OFFCURVE",
"553 1800 CURVE",
"637 1800 LINE",
"672 1719 OFFCURVE",
"748 1678 OFFCURVE",
"864 1678 CURVE SMOOTH",
"979 1678 OFFCURVE",
"1054 1719 OFFCURVE",
"1091 1800 CURVE"
);
}
);
vertWidth = 2048;
width = 1720;
}
);
unicode = 014E;
},
{
color = 3;
glyphname = Rcommaaccent;
lastChange = "2022-04-07 18:22:07 +0000";
layers = (
{
background = {
paths = (
{
closed = 1;
nodes = (
"90 1556 LINE",
"489 1556 LINE SMOOTH",
"714 1556 OFFCURVE",
"851 1402 OFFCURVE",
"851 1172 CURVE SMOOTH",
"851 979 OFFCURVE",
"760 842 OFFCURVE",
"559 817 CURVE",
"559 811 LINE",
"626 792 OFFCURVE",
"675 749 OFFCURVE",
"705 682 CURVE SMOOTH",
"734 620 OFFCURVE",
"772 497 OFFCURVE",
"833 307 CURVE SMOOTH",
"866 204 OFFCURVE",
"884 159 OFFCURVE",
"974 142 CURVE",
"974 70 LINE",
"745 70 LINE",
"668 382 OFFCURVE",
"607 577 OFFCURVE",
"570 660 CURVE SMOOTH",
"536 736 OFFCURVE",
"493 774 OFFCURVE",
"440 774 CURVE SMOOTH",
"319 774 LINE",
"319 244 LINE SMOOTH",
"319 207 OFFCURVE",
"326 181 OFFCURVE",
"339 166 CURVE SMOOTH",
"352 153 OFFCURVE",
"378 146 OFFCURVE",
"417 144 CURVE",
"417 70 LINE",
"90 70 LINE",
"90 144 LINE",
"129 150 OFFCURVE",
"155 159 OFFCURVE",
"168 172 CURVE SMOOTH",
"180 185 OFFCURVE",
"186 209 OFFCURVE",
"186 244 CURVE SMOOTH",
"186 1382 LINE SMOOTH",
"186 1421 OFFCURVE",
"180 1447 OFFCURVE",
"168 1460 CURVE SMOOTH",
"156 1472 OFFCURVE",
"130 1479 OFFCURVE",
"90 1482 CURVE"
);
},
{
closed = 1;
nodes = (
"319 876 LINE",
"438 876 LINE SMOOTH",
"613 876 OFFCURVE",
"708 993 OFFCURVE",
"708 1174 CURVE SMOOTH",
"708 1361 OFFCURVE",
"632 1454 OFFCURVE",
"479 1454 CURVE SMOOTH",
"399 1454 LINE SMOOTH",
"368 1454 OFFCURVE",
"347 1448 OFFCURVE",
"335 1435 CURVE SMOOTH",
"324 1424 OFFCURVE",
"319 1401 OFFCURVE",
"319 1366 CURVE SMOOTH"
);
},
{
closed = 1;
nodes = (
"456 -191 LINE",
"490 -171 OFFCURVE",
"508 -151 OFFCURVE",
"510 -130 CURVE",
"439 -130 OFFCURVE",
"390 -109 OFFCURVE",
"390 -56 CURVE SMOOTH",
"390 -6 OFFCURVE",
"435 21 OFFCURVE",
"499 21 CURVE SMOOTH",
"568 21 OFFCURVE",
"619 -10 OFFCURVE",
"619 -77 CURVE SMOOTH",
"619 -153 OFFCURVE",
"570 -199 OFFCURVE",
"497 -246 CURVE"
);
}
);
};
layerId = "4E782664-D0D5-4FED-AFC2-B9212141A2ED";
paths = (
{
closed = 1;
nodes = (
"35 1556 LINE",
"708 1556 LINE SMOOTH",
"1047 1556 OFFCURVE",
"1317 1468 OFFCURVE",
"1317 1179 CURVE SMOOTH",
"1317 937 OFFCURVE",
"1100 829 OFFCURVE",
"811 818 CURVE",
"811 812 LINE",
"900 795 OFFCURVE",
"968 762 OFFCURVE",
"1015 713 CURVE SMOOTH",
"1057 668 OFFCURVE",
"1148 540 OFFCURVE",
"1257 314 CURVE SMOOTH",
"1310 205 OFFCURVE",
"1375 162 OFFCURVE",
"1505 142 CURVE",
"1505 70 LINE",
"1186 70 LINE",
"1043 390 OFFCURVE",
"941 584 OFFCURVE",
"886 656 CURVE SMOOTH",
"826 735 OFFCURVE",
"733 775 OFFCURVE",
"606 775 CURVE SMOOTH",
"383 775 LINE",
"383 306 LINE SMOOTH",
"383 189 OFFCURVE",
"448 162 OFFCURVE",
"592 144 CURVE",
"592 70 LINE",
"35 70 LINE",
"35 144 LINE",
"182 160 OFFCURVE",
"238 179 OFFCURVE",
"238 306 CURVE SMOOTH",
"238 1321 LINE SMOOTH",
"238 1383 OFFCURVE",
"221 1425 OFFCURVE",
"188 1446 CURVE SMOOTH",
"165 1462 OFFCURVE",
"114 1474 OFFCURVE",
"35 1482 CURVE"
);
},
{
closed = 1;
nodes = (
"383 877 LINE",
"631 877 LINE SMOOTH",
"974 877 OFFCURVE",
"1145 977 OFFCURVE",
"1145 1177 CURVE SMOOTH",
"1145 1362 OFFCURVE",
"997 1454 OFFCURVE",
"702 1454 CURVE SMOOTH",
"542 1454 LINE SMOOTH",
"481 1454 OFFCURVE",
"439 1443 OFFCURVE",
"417 1420 CURVE SMOOTH",
"394 1397 OFFCURVE",
"383 1359 OFFCURVE",
"383 1304 CURVE SMOOTH"
);
},
{
closed = 1;
nodes = (
"736 -191 LINE",
"770 -171 OFFCURVE",
"788 -151 OFFCURVE",
"790 -130 CURVE",
"719 -130 OFFCURVE",
"670 -109 OFFCURVE",
"670 -56 CURVE SMOOTH",
"670 -6 OFFCURVE",
"715 21 OFFCURVE",
"779 21 CURVE SMOOTH",
"848 21 OFFCURVE",
"899 -10 OFFCURVE",
"899 -77 CURVE SMOOTH",
"899 -153 OFFCURVE",
"850 -199 OFFCURVE",
"777 -246 CURVE"
);
}
);
vertWidth = 2048;
width = 1536;
}
);
unicode = 0156;
},
{
color = 3;
glyphname = Tbar;
lastChange = "2022-04-07 18:22:07 +0000";
layers = (
{
background = {
paths = (
{
closed = 1;
nodes = (
"438 74 LINE",
"593 87 OFFCURVE",
"641 101 OFFCURVE",
"641 235 CURVE SMOOTH",
"641 705 LINE",
"374 705 LINE",
"374 807 LINE",
"641 807 LINE",
"641 1454 LINE",
"496 1454 LINE SMOOTH",
"249 1454 OFFCURVE",
"145 1352 OFFCURVE",
"113 1106 CURVE",
"41 1106 LINE",
"72 1556 LINE",
"1362 1556 LINE",
"1393 1106 LINE",
"1321 1106 LINE",
"1288 1356 OFFCURVE",
"1183 1454 OFFCURVE",
"938 1454 CURVE SMOOTH",
"793 1454 LINE",
"793 807 LINE",
"1060 807 LINE",
"1060 705 LINE",
"793 705 LINE",
"793 235 LINE SMOOTH",
"793 100 OFFCURVE",
"843 90 OFFCURVE",
"996 74 CURVE",
"996 0 LINE",
"438 0 LINE"
);
}
);
};
layerId = "4E782664-D0D5-4FED-AFC2-B9212141A2ED";
paths = (
{
closed = 1;
nodes = (
"438 74 LINE",
"593 87 OFFCURVE",
"641 101 OFFCURVE",
"641 235 CURVE SMOOTH",
"641 705 LINE",
"374 705 LINE",
"374 807 LINE",
"641 807 LINE",
"641 1454 LINE",
"496 1454 LINE SMOOTH",
"249 1454 OFFCURVE",
"145 1352 OFFCURVE",
"113 1106 CURVE",
"41 1106 LINE",
"72 1556 LINE",
"1362 1556 LINE",
"1393 1106 LINE",
"1321 1106 LINE",
"1288 1356 OFFCURVE",
"1183 1454 OFFCURVE",
"938 1454 CURVE SMOOTH",
"793 1454 LINE",
"793 807 LINE",
"1060 807 LINE",
"1060 705 LINE",
"793 705 LINE",
"793 235 LINE SMOOTH",
"793 100 OFFCURVE",
"843 90 OFFCURVE",
"996 74 CURVE",
"996 0 LINE",
"438 0 LINE"
);
}
);
vertWidth = 2048;
width = 1434;
}
);
unicode = 0166;
},
{
color = 3;
glyphname = Uogonek;
lastChange = "2022-04-07 18:22:07 +0000";
layers = (
{
background = {
paths = (
{
closed = 1;
nodes = (
"766 -242 OFFCURVE",
"718 -231 OFFCURVE",
"681 -208 CURVE SMOOTH",
"643 -185 OFFCURVE",
"624 -151 OFFCURVE",
"624 -106 CURVE SMOOTH",
"624 -38 OFFCURVE",
"665 21 OFFCURVE",
"747 71 CURVE",
"404 110 OFFCURVE",
"230 351 OFFCURVE",
"230 744 CURVE SMOOTH",
"230 1321 LINE SMOOTH",
"230 1381 OFFCURVE",
"218 1420 OFFCURVE",
"193 1439 CURVE SMOOTH",
"170 1457 OFFCURVE",
"114 1471 OFFCURVE",
"27 1482 CURVE",
"27 1556 LINE",
"580 1556 LINE",
"580 1482 LINE",
"485 1473 OFFCURVE",
"428 1460 OFFCURVE",
"408 1441 CURVE SMOOTH",
"386 1421 OFFCURVE",
"375 1381 OFFCURVE",
"375 1321 CURVE SMOOTH",
"375 744 LINE SMOOTH",
"375 392 OFFCURVE",
"529 193 OFFCURVE",
"865 193 CURVE SMOOTH",
"1183 193 OFFCURVE",
"1344 411 OFFCURVE",
"1344 752 CURVE SMOOTH",
"1344 1321 LINE SMOOTH",
"1344 1382 OFFCURVE",
"1332 1422 OFFCURVE",
"1307 1441 CURVE SMOOTH",
"1284 1459 OFFCURVE",
"1228 1473 OFFCURVE",
"1141 1482 CURVE",
"1141 1556 LINE",
"1662 1556 LINE",
"1662 1482 LINE",
"1566 1473 OFFCURVE",
"1507 1459 OFFCURVE",
"1486 1438 CURVE SMOOTH",
"1467 1420 OFFCURVE",
"1457 1381 OFFCURVE",
"1457 1321 CURVE SMOOTH",
"1457 752 LINE SMOOTH",
"1457 340 OFFCURVE",
"1248 70 OFFCURVE",
"858 66 CURVE",
"797 18 OFFCURVE",
"767 -30 OFFCURVE",
"767 -79 CURVE SMOOTH",
"767 -128 OFFCURVE",
"802 -152 OFFCURVE",
"873 -152 CURVE SMOOTH",
"940 -152 OFFCURVE",
"1007 -127 OFFCURVE",
"1074 -78 CURVE",
"1096 -141 LINE",
"1019 -208 OFFCURVE",
"929 -242 OFFCURVE",
"827 -242 CURVE SMOOTH"
);
}
);
};
layerId = "4E782664-D0D5-4FED-AFC2-B9212141A2ED";
paths = (
{
closed = 1;
nodes = (
"766 -242 OFFCURVE",
"718 -231 OFFCURVE",
"681 -208 CURVE SMOOTH",
"643 -185 OFFCURVE",
"624 -151 OFFCURVE",
"624 -106 CURVE SMOOTH",
"624 -38 OFFCURVE",
"665 21 OFFCURVE",
"747 71 CURVE",
"404 110 OFFCURVE",
"230 351 OFFCURVE",
"230 744 CURVE SMOOTH",
"230 1321 LINE SMOOTH",
"230 1381 OFFCURVE",
"218 1420 OFFCURVE",
"193 1439 CURVE SMOOTH",
"170 1457 OFFCURVE",
"114 1471 OFFCURVE",
"27 1482 CURVE",
"27 1556 LINE",
"580 1556 LINE",
"580 1482 LINE",
"485 1473 OFFCURVE",
"428 1460 OFFCURVE",
"408 1441 CURVE SMOOTH",
"386 1421 OFFCURVE",
"375 1381 OFFCURVE",
"375 1321 CURVE SMOOTH",
"375 744 LINE SMOOTH",
"375 392 OFFCURVE",
"529 193 OFFCURVE",
"865 193 CURVE SMOOTH",
"1183 193 OFFCURVE",
"1344 411 OFFCURVE",
"1344 752 CURVE SMOOTH",
"1344 1321 LINE SMOOTH",
"1344 1382 OFFCURVE",
"1332 1422 OFFCURVE",
"1307 1441 CURVE SMOOTH",
"1284 1459 OFFCURVE",
"1228 1473 OFFCURVE",
"1141 1482 CURVE",
"1141 1556 LINE",
"1662 1556 LINE",
"1662 1482 LINE",
"1566 1473 OFFCURVE",
"1507 1459 OFFCURVE",
"1486 1438 CURVE SMOOTH",
"1467 1420 OFFCURVE",
"1457 1381 OFFCURVE",
"1457 1321 CURVE SMOOTH",
"1457 752 LINE SMOOTH",
"1457 340 OFFCURVE",
"1248 70 OFFCURVE",
"858 66 CURVE",
"797 18 OFFCURVE",
"767 -30 OFFCURVE",
"767 -79 CURVE SMOOTH",
"767 -128 OFFCURVE",
"802 -152 OFFCURVE",
"873 -152 CURVE SMOOTH",
"940 -152 OFFCURVE",
"1007 -127 OFFCURVE",
"1074 -78 CURVE",
"1096 -141 LINE",
"1019 -208 OFFCURVE",
"929 -242 OFFCURVE",
"827 -242 CURVE SMOOTH"
);
}
);
vertWidth = 2048;
width = 1679;
}
);
unicode = 0172;
},
{
color = 3;
glyphname = Utilde;
lastChange = "2022-04-07 18:22:07 +0000";
layers = (
{
background = {
paths = (
{
closed = 1;
nodes = (
"72 1454 LINE",
"399 1454 LINE",
"399 1380 LINE",
"365 1376 OFFCURVE",
"341 1367 OFFCURVE",
"326 1352 CURVE SMOOTH",
"312 1338 OFFCURVE",
"305 1314 OFFCURVE",
"305 1280 CURVE SMOOTH",
"305 578 LINE SMOOTH",
"305 405 OFFCURVE",
"318 286 OFFCURVE",
"343 219 CURVE SMOOTH",
"376 132 OFFCURVE",
"439 88 OFFCURVE",
"533 88 CURVE SMOOTH",
"625 88 OFFCURVE",
"686 131 OFFCURVE",
"717 218 CURVE SMOOTH",
"744 295 OFFCURVE",
"758 417 OFFCURVE",
"758 586 CURVE SMOOTH",
"758 1280 LINE SMOOTH",
"758 1312 OFFCURVE",
"752 1335 OFFCURVE",
"740 1349 CURVE SMOOTH",
"726 1365 OFFCURVE",
"701 1375 OFFCURVE",
"666 1380 CURVE",
"666 1454 LINE",
"942 1454 LINE",
"942 1380 LINE",
"904 1373 OFFCURVE",
"879 1364 OFFCURVE",
"866 1352 CURVE SMOOTH",
"854 1339 OFFCURVE",
"848 1315 OFFCURVE",
"848 1280 CURVE SMOOTH",
"848 586 LINE SMOOTH",
"848 436 OFFCURVE",
"840 325 OFFCURVE",
"825 254 CURVE SMOOTH",
"783 59 OFFCURVE",
"684 -39 OFFCURVE",
"527 -39 CURVE SMOOTH",
"399 -39 OFFCURVE",
"303 16 OFFCURVE",
"240 125 CURVE SMOOTH",
"209 178 OFFCURVE",
"189 250 OFFCURVE",
"180 340 CURVE SMOOTH",
"175 400 OFFCURVE",
"172 479 OFFCURVE",
"172 578 CURVE SMOOTH",
"172 1280 LINE SMOOTH",
"172 1319 OFFCURVE",
"165 1345 OFFCURVE",
"151 1358 CURVE SMOOTH",
"139 1370 OFFCURVE",
"113 1377 OFFCURVE",
"72 1380 CURVE"
);
},
{
closed = 1;
nodes = (
"170 1614 LINE",
"233 1722 OFFCURVE",
"306 1776 OFFCURVE",
"391 1776 CURVE SMOOTH",
"442 1776 OFFCURVE",
"492 1759 OFFCURVE",
"541 1726 CURVE SMOOTH",
"590 1693 OFFCURVE",
"634 1677 OFFCURVE",
"673 1677 CURVE SMOOTH",
"738 1677 OFFCURVE",
"789 1706 OFFCURVE",
"827 1764 CURVE",
"875 1704 LINE",
"811 1596 OFFCURVE",
"737 1542 OFFCURVE",
"654 1542 CURVE SMOOTH",
"603 1542 OFFCURVE",
"553 1558 OFFCURVE",
"504 1591 CURVE SMOOTH",
"455 1624 OFFCURVE",
"411 1641 OFFCURVE",
"371 1641 CURVE SMOOTH",
"307 1641 OFFCURVE",
"256 1612 OFFCURVE",
"217 1555 CURVE"
);
}
);
};
layerId = "4E782664-D0D5-4FED-AFC2-B9212141A2ED";
paths = (
{
closed = 1;
nodes = (
"545 1614 LINE",
"608 1722 OFFCURVE",
"681 1776 OFFCURVE",
"766 1776 CURVE SMOOTH",
"817 1776 OFFCURVE",
"867 1759 OFFCURVE",
"916 1726 CURVE",
"965 1693 OFFCURVE",
"1009 1677 OFFCURVE",
"1048 1677 CURVE SMOOTH",
"1113 1677 OFFCURVE",
"1164 1706 OFFCURVE",
"1202 1764 CURVE",
"1250 1704 LINE",
"1186 1596 OFFCURVE",
"1112 1542 OFFCURVE",
"1029 1542 CURVE SMOOTH",
"978 1542 OFFCURVE",
"928 1558 OFFCURVE",
"879 1591 CURVE SMOOTH",
"830 1624 OFFCURVE",
"786 1641 OFFCURVE",
"746 1641 CURVE SMOOTH",
"682 1641 OFFCURVE",
"631 1612 OFFCURVE",
"592 1555 CURVE"
);
},
{
closed = 1;
nodes = (
"27 1456 LINE",
"580 1456 LINE",
"580 1382 LINE",
"485 1373 OFFCURVE",
"428 1360 OFFCURVE",
"408 1341 CURVE SMOOTH",
"386 1321 OFFCURVE",
"375 1281 OFFCURVE",
"375 1221 CURVE SMOOTH",
"375 639 LINE SMOOTH",
"375 468 OFFCURVE",
"407 342 OFFCURVE",
"470 261 CURVE SMOOTH",
"560 146 OFFCURVE",
"692 88 OFFCURVE",
"865 88 CURVE SMOOTH",
"986 88 OFFCURVE",
"1085 119 OFFCURVE",
"1163 182 CURVE SMOOTH",
"1218 227 OFFCURVE",
"1259 278 OFFCURVE",
"1286 335 CURVE SMOOTH",
"1325 418 OFFCURVE",
"1344 522 OFFCURVE",
"1344 647 CURVE SMOOTH",
"1344 1221 LINE SMOOTH",
"1344 1282 OFFCURVE",
"1332 1322 OFFCURVE",
"1307 1341 CURVE SMOOTH",
"1284 1359 OFFCURVE",
"1228 1373 OFFCURVE",
"1141 1382 CURVE",
"1141 1456 LINE",
"1662 1456 LINE",
"1662 1382 LINE",
"1566 1373 OFFCURVE",
"1507 1359 OFFCURVE",
"1486 1338 CURVE SMOOTH",
"1467 1320 OFFCURVE",
"1457 1281 OFFCURVE",
"1457 1221 CURVE SMOOTH",
"1457 647 LINE SMOOTH",
"1457 441 OFFCURVE",
"1409 280 OFFCURVE",
"1314 164 CURVE SMOOTH",
"1203 29 OFFCURVE",
"1048 -39 OFFCURVE",
"849 -39 CURVE SMOOTH",
"635 -39 OFFCURVE",
"469 35 OFFCURVE",
"350 182 CURVE SMOOTH",
"294 251 OFFCURVE",
"258 337 OFFCURVE",
"242 440 CURVE SMOOTH",
"234 494 OFFCURVE",
"230 560 OFFCURVE",
"230 639 CURVE SMOOTH",
"230 1221 LINE SMOOTH",
"230 1281 OFFCURVE",
"218 1320 OFFCURVE",
"193 1339 CURVE SMOOTH",
"170 1357 OFFCURVE",
"114 1371 OFFCURVE",
"27 1382 CURVE"
);
}
);
vertWidth = 2048;
width = 1679;
}
);
unicode = 0168;
},
{
color = 3;
glyphname = Wcircumflex;
lastChange = "2022-04-07 18:22:07 +0000";
layers = (
{
background = {
paths = (
{
closed = 1;
nodes = (
"10 1456 LINE",
"248 1456 LINE",
"248 1382 LINE",
"215 1365 OFFCURVE",
"198 1342 OFFCURVE",
"198 1314 CURVE SMOOTH",
"198 1293 OFFCURVE",
"200 1264 OFFCURVE",
"205 1229 CURVE SMOOTH",
"332 291 LINE",
"340 291 LINE",
"461 1337 LINE",
"600 1337 LINE",
"733 291 LINE",
"739 291 LINE",
"850 1214 LINE SMOOTH",
"853 1241 OFFCURVE",
"854 1270 OFFCURVE",
"854 1301 CURVE SMOOTH",
"854 1348 OFFCURVE",
"829 1375 OFFCURVE",
"778 1382 CURVE",
"778 1456 LINE",
"1011 1456 LINE",
"1011 1384 LINE",
"974 1364 OFFCURVE",
"951 1310 OFFCURVE",
"940 1223 CURVE SMOOTH",
"784 -25 LINE",
"663 -25 LINE",
"522 1030 LINE",
"516 1030 LINE",
"387 -25 LINE",
"268 -25 LINE",
"80 1247 LINE SMOOTH",
"69 1322 OFFCURVE",
"46 1367 OFFCURVE",
"10 1382 CURVE"
);
},
{
closed = 1;
nodes = (
"443 1800 LINE",
"611 1800 LINE",
"871 1563 LINE",
"744 1563 LINE",
"527 1696 LINE",
"310 1563 LINE",
"183 1563 LINE"
);
}
);
};
layerId = "4E782664-D0D5-4FED-AFC2-B9212141A2ED";
paths = (
{
closed = 1;
nodes = (
"4 1456 LINE",
"496 1456 LINE",
"496 1382 LINE",
"444 1379 OFFCURVE",
"405 1373 OFFCURVE",
"379 1363 CURVE SMOOTH",
"336 1347 OFFCURVE",
"315 1327 OFFCURVE",
"315 1302 CURVE SMOOTH",
"315 1273 OFFCURVE",
"322 1230 OFFCURVE",
"342 1173 CURVE SMOOTH",
"655 291 LINE",
"663 291 LINE",
"977 1337 LINE",
"1114 1337 LINE",
"1436 291 LINE",
"1444 291 LINE",
"1702 1186 LINE SMOOTH",
"1717 1237 OFFCURVE",
"1722 1274 OFFCURVE",
"1722 1295 CURVE SMOOTH",
"1722 1320 OFFCURVE",
"1704 1341 OFFCURVE",
"1669 1358 CURVE SMOOTH",
"1640 1371 OFFCURVE",
"1601 1379 OFFCURVE",
"1550 1382 CURVE",
"1550 1456 LINE",
"1997 1456 LINE",
"1997 1384 LINE",
"1902 1351 OFFCURVE",
"1844 1280 OFFCURVE",
"1812 1171 CURVE SMOOTH",
"1464 -25 LINE",
"1366 -25 LINE",
"1032 1112 LINE",
"1024 1112 LINE",
"692 -25 LINE",
"608 -25 LINE",
"180 1212 LINE SMOOTH",
"144 1315 OFFCURVE",
"89 1371 OFFCURVE",
"4 1382 CURVE"
);
},
{
closed = 1;
nodes = (
"953 1800 LINE",
"1121 1800 LINE",
"1381 1563 LINE",
"1254 1563 LINE",
"1037 1696 LINE",
"820 1563 LINE",
"693 1563 LINE"
);
}
);
vertWidth = 2048;
width = 2007;
}
);
unicode = 0174;
},
{
color = 3;
glyphname = Ycircumflex;
lastChange = "2022-04-07 18:22:07 +0000";
layers = (
{
background = {
paths = (
{
closed = 1;
nodes = (
"72 1454 LINE",
"418 1454 LINE",
"418 1378 LINE",
"357 1372 OFFCURVE",
"326 1352 OFFCURVE",
"326 1319 CURVE SMOOTH",
"326 1302 OFFCURVE",
"329 1284 OFFCURVE",
"336 1266 CURVE SMOOTH",
"537 723 LINE",
"737 1249 LINE SMOOTH",
"746 1270 OFFCURVE",
"750 1290 OFFCURVE",
"750 1307 CURVE SMOOTH",
"750 1345 OFFCURVE",
"719 1369 OFFCURVE",
"656 1378 CURVE",
"656 1454 LINE",
"953 1454 LINE",
"953 1378 LINE",
"920 1368 OFFCURVE",
"897 1355 OFFCURVE",
"885 1340 CURVE SMOOTH",
"867 1317 OFFCURVE",
"849 1281 OFFCURVE",
"830 1233 CURVE SMOOTH",
"576 588 LINE",
"576 172 LINE SMOOTH",
"576 141 OFFCURVE",
"584 119 OFFCURVE",
"601 104 CURVE SMOOTH",
"615 92 OFFCURVE",
"645 81 OFFCURVE",
"690 72 CURVE",
"690 0 LINE",
"330 0 LINE",
"330 72 LINE",
"377 77 OFFCURVE",
"407 87 OFFCURVE",
"422 102 CURVE SMOOTH",
"436 115 OFFCURVE",
"443 139 OFFCURVE",
"443 172 CURVE SMOOTH",
"443 594 LINE",
"189 1268 LINE SMOOTH",
"164 1333 OFFCURVE",
"125 1369 OFFCURVE",
"72 1378 CURVE"
);
},
{
closed = 1;
nodes = (
"443 1800 LINE",
"611 1800 LINE",
"871 1563 LINE",
"744 1563 LINE",
"527 1696 LINE",
"310 1563 LINE",
"183 1563 LINE"
);
}
);
};
layerId = "4E782664-D0D5-4FED-AFC2-B9212141A2ED";
paths = (
{
closed = 1;
nodes = (
"10 1454 LINE",
"595 1454 LINE",
"595 1376 LINE",
"516 1370 OFFCURVE",
"464 1361 OFFCURVE",
"439 1349 CURVE SMOOTH",
"416 1338 OFFCURVE",
"405 1323 OFFCURVE",
"405 1304 CURVE SMOOTH",
"405 1289 OFFCURVE",
"411 1272 OFFCURVE",
"423 1255 CURVE SMOOTH",
"798 729 LINE",
"1162 1235 LINE SMOOTH",
"1174 1252 OFFCURVE",
"1181 1271 OFFCURVE",
"1181 1290 CURVE SMOOTH",
"1181 1337 OFFCURVE",
"1119 1365 OFFCURVE",
"996 1376 CURVE",
"996 1454 LINE",
"1535 1454 LINE",
"1535 1376 LINE",
"1440 1371 OFFCURVE",
"1354 1317 OFFCURVE",
"1279 1212 CURVE SMOOTH",
"851 618 LINE",
"851 227 LINE SMOOTH",
"851 171 OFFCURVE",
"864 134 OFFCURVE",
"890 115 CURVE SMOOTH",
"913 98 OFFCURVE",
"967 85 OFFCURVE",
"1054 74 CURVE",
"1054 0 LINE",
"501 0 LINE",
"501 74 LINE",
"588 84 OFFCURVE",
"643 98 OFFCURVE",
"667 115 CURVE SMOOTH",
"692 132 OFFCURVE",
"704 170 OFFCURVE",
"704 227 CURVE SMOOTH",
"704 600 LINE",
"278 1231 LINE SMOOTH",
"243 1282 OFFCURVE",
"205 1318 OFFCURVE",
"163 1339 CURVE SMOOTH",
"126 1358 OFFCURVE",
"75 1370 OFFCURVE",
"10 1376 CURVE"
);
},
{
closed = 1;
nodes = (
"703 1800 LINE",
"871 1800 LINE",
"1131 1563 LINE",
"1004 1563 LINE",
"787 1696 LINE",
"570 1563 LINE",
"443 1563 LINE"
);
}
);
vertWidth = 2048;
width = 1556;
}
);
unicode = 0176;
},
{
color = 3;
glyphname = Ydieresis;
lastChange = "2022-04-07 18:22:07 +0000";
layers = (
{
background = {
paths = (
{
closed = 1;
nodes = (
"72 1454 LINE",
"418 1454 LINE",
"418 1378 LINE",
"357 1372 OFFCURVE",
"326 1352 OFFCURVE",
"326 1319 CURVE SMOOTH",
"326 1302 OFFCURVE",
"329 1284 OFFCURVE",
"336 1266 CURVE SMOOTH",
"537 723 LINE",
"737 1249 LINE SMOOTH",
"745 1270 OFFCURVE",
"750 1290 OFFCURVE",
"750 1307 CURVE SMOOTH",
"750 1345 OFFCURVE",
"719 1369 OFFCURVE",
"656 1378 CURVE",
"656 1454 LINE",
"953 1454 LINE",
"953 1378 LINE",
"920 1368 OFFCURVE",
"897 1355 OFFCURVE",
"885 1340 CURVE SMOOTH",
"867 1317 OFFCURVE",
"849 1281 OFFCURVE",
"830 1233 CURVE SMOOTH",
"576 588 LINE",
"576 172 LINE SMOOTH",
"576 141 OFFCURVE",
"584 119 OFFCURVE",
"601 104 CURVE SMOOTH",
"615 92 OFFCURVE",
"645 81 OFFCURVE",
"690 72 CURVE",
"690 0 LINE",
"330 0 LINE",
"330 72 LINE",
"377 77 OFFCURVE",
"407 87 OFFCURVE",
"422 102 CURVE SMOOTH",
"436 115 OFFCURVE",
"443 139 OFFCURVE",
"443 172 CURVE SMOOTH",
"443 594 LINE",
"189 1268 LINE SMOOTH",
"164 1333 OFFCURVE",
"125 1369 OFFCURVE",
"72 1378 CURVE"
);
},
{
closed = 1;
nodes = (
"313 1801 OFFCURVE",
"330 1797 OFFCURVE",
"346 1790 CURVE SMOOTH",
"391 1768 OFFCURVE",
"414 1732 OFFCURVE",
"414 1682 CURVE SMOOTH",
"414 1649 OFFCURVE",
"402 1621 OFFCURVE",
"379 1598 CURVE SMOOTH",
"356 1575 OFFCURVE",
"327 1563 OFFCURVE",
"294 1563 CURVE SMOOTH",
"274 1563 OFFCURVE",
"255 1568 OFFCURVE",
"238 1578 CURVE SMOOTH",
"197 1601 OFFCURVE",
"176 1636 OFFCURVE",
"176 1683 CURVE SMOOTH",
"176 1718 OFFCURVE",
"189 1747 OFFCURVE",
"215 1770 CURVE SMOOTH",
"237 1791 OFFCURVE",
"264 1801 OFFCURVE",
"296 1801 CURVE SMOOTH"
);
},
{
closed = 1;
nodes = (
"768 1801 OFFCURVE",
"785 1797 OFFCURVE",
"801 1790 CURVE SMOOTH",
"846 1768 OFFCURVE",
"869 1732 OFFCURVE",
"869 1682 CURVE SMOOTH",
"869 1649 OFFCURVE",
"857 1621 OFFCURVE",
"834 1598 CURVE SMOOTH",
"811 1575 OFFCURVE",
"782 1563 OFFCURVE",
"749 1563 CURVE SMOOTH",
"729 1563 OFFCURVE",
"710 1568 OFFCURVE",
"693 1578 CURVE SMOOTH",
"652 1601 OFFCURVE",
"631 1636 OFFCURVE",
"631 1683 CURVE SMOOTH",
"631 1717 OFFCURVE",
"644 1746 OFFCURVE",
"670 1770 CURVE SMOOTH",
"692 1791 OFFCURVE",
"719 1801 OFFCURVE",
"751 1801 CURVE SMOOTH"
);
}
);
};
layerId = "4E782664-D0D5-4FED-AFC2-B9212141A2ED";
paths = (
{
closed = 1;
nodes = (
"10 1454 LINE",
"595 1454 LINE",
"595 1376 LINE",
"516 1370 OFFCURVE",
"464 1361 OFFCURVE",
"439 1349 CURVE SMOOTH",
"416 1338 OFFCURVE",
"405 1323 OFFCURVE",
"405 1304 CURVE SMOOTH",
"405 1289 OFFCURVE",
"411 1272 OFFCURVE",
"423 1255 CURVE SMOOTH",
"798 729 LINE",
"1162 1235 LINE SMOOTH",
"1174 1252 OFFCURVE",
"1181 1271 OFFCURVE",
"1181 1290 CURVE SMOOTH",
"1181 1337 OFFCURVE",
"1119 1365 OFFCURVE",
"996 1376 CURVE",
"996 1454 LINE",
"1535 1454 LINE",
"1535 1376 LINE",
"1440 1371 OFFCURVE",
"1354 1317 OFFCURVE",
"1279 1212 CURVE SMOOTH",
"851 618 LINE",
"851 227 LINE SMOOTH",
"851 171 OFFCURVE",
"864 134 OFFCURVE",
"890 115 CURVE SMOOTH",
"913 98 OFFCURVE",
"967 85 OFFCURVE",
"1054 74 CURVE",
"1054 0 LINE",
"501 0 LINE",
"501 74 LINE",
"588 84 OFFCURVE",
"643 98 OFFCURVE",
"667 115 CURVE SMOOTH",
"692 132 OFFCURVE",
"704 170 OFFCURVE",
"704 227 CURVE SMOOTH",
"704 600 LINE",
"278 1231 LINE SMOOTH",
"243 1282 OFFCURVE",
"205 1318 OFFCURVE",
"163 1339 CURVE SMOOTH",
"126 1358 OFFCURVE",
"75 1370 OFFCURVE",
"10 1376 CURVE"
);
},
{
closed = 1;
nodes = (
"573 1801 OFFCURVE",
"590 1797 OFFCURVE",
"606 1790 CURVE SMOOTH",
"651 1768 OFFCURVE",
"674 1732 OFFCURVE",
"674 1682 CURVE SMOOTH",
"674 1649 OFFCURVE",
"662 1621 OFFCURVE",
"639 1598 CURVE SMOOTH",
"616 1575 OFFCURVE",
"587 1563 OFFCURVE",
"554 1563 CURVE SMOOTH",
"534 1563 OFFCURVE",
"515 1568 OFFCURVE",
"498 1578 CURVE SMOOTH",
"457 1601 OFFCURVE",
"436 1636 OFFCURVE",
"436 1683 CURVE SMOOTH",
"436 1718 OFFCURVE",
"449 1747 OFFCURVE",
"475 1770 CURVE SMOOTH",
"497 1791 OFFCURVE",
"524 1801 OFFCURVE",
"556 1801 CURVE SMOOTH"
);
},
{
closed = 1;
nodes = (
"1028 1801 OFFCURVE",
"1045 1797 OFFCURVE",
"1061 1790 CURVE SMOOTH",
"1106 1768 OFFCURVE",
"1129 1732 OFFCURVE",
"1129 1682 CURVE SMOOTH",
"1129 1649 OFFCURVE",
"1117 1621 OFFCURVE",
"1094 1598 CURVE SMOOTH",
"1071 1575 OFFCURVE",
"1042 1563 OFFCURVE",
"1009 1563 CURVE SMOOTH",
"989 1563 OFFCURVE",
"970 1568 OFFCURVE",
"953 1578 CURVE SMOOTH",
"912 1601 OFFCURVE",
"891 1636 OFFCURVE",
"891 1683 CURVE SMOOTH",
"891 1717 OFFCURVE",
"904 1746 OFFCURVE",
"930 1770 CURVE SMOOTH",
"952 1791 OFFCURVE",
"979 1801 OFFCURVE",
"1011 1801 CURVE SMOOTH"
);
}
);
vertWidth = 2048;
width = 1556;
}
);
unicode = 0178;
},
{
color = 3;
glyphname = cdotaccent;
lastChange = "2022-04-07 18:22:07 +0000";
layers = (
{
background = {
paths = (
{
closed = 1;
nodes = (
"848 272 LINE",
"789 63 OFFCURVE",
"684 -41 OFFCURVE",
"533 -41 CURVE SMOOTH",
"417 -41 OFFCURVE",
"324 19 OFFCURVE",
"254 140 CURVE SMOOTH",
"191 247 OFFCURVE",
"160 385 OFFCURVE",
"160 554 CURVE SMOOTH",
"160 705 OFFCURVE",
"189 833 OFFCURVE",
"246 940 CURVE SMOOTH",
"321 1078 OFFCURVE",
"422 1147 OFFCURVE",
"549 1147 CURVE SMOOTH",
"630 1147 OFFCURVE",
"695 1122 OFFCURVE",
"746 1071 CURVE SMOOTH",
"797 1021 OFFCURVE",
"822 967 OFFCURVE",
"822 910 CURVE SMOOTH",
"822 879 OFFCURVE",
"813 854 OFFCURVE",
"796 834 CURVE SMOOTH",
"777 812 OFFCURVE",
"752 801 OFFCURVE",
"721 801 CURVE SMOOTH",
"678 801 OFFCURVE",
"648 820 OFFCURVE",
"630 858 CURVE SMOOTH",
"624 870 OFFCURVE",
"621 883 OFFCURVE",
"621 897 CURVE SMOOTH",
"621 936 OFFCURVE",
"637 966 OFFCURVE",
"670 987 CURVE",
"653 1028 OFFCURVE",
"615 1049 OFFCURVE",
"557 1049 CURVE SMOOTH",
"498 1049 OFFCURVE",
"448 1015 OFFCURVE",
"405 946 CURVE SMOOTH",
"346 852 OFFCURVE",
"316 721 OFFCURVE",
"316 553 CURVE SMOOTH",
"316 408 OFFCURVE",
"340 290 OFFCURVE",
"388 201 CURVE SMOOTH",
"433 116 OFFCURVE",
"489 74 OFFCURVE",
"554 74 CURVE SMOOTH",
"655 74 OFFCURVE",
"731 157 OFFCURVE",
"783 322 CURVE"
);
},
{
closed = 1;
nodes = (
"565 1596 OFFCURVE",
"589 1589 OFFCURVE",
"612 1575 CURVE SMOOTH",
"658 1548 OFFCURVE",
"681 1507 OFFCURVE",
"681 1454 CURVE SMOOTH",
"681 1418 OFFCURVE",
"669 1386 OFFCURVE",
"644 1359 CURVE SMOOTH",
"616 1328 OFFCURVE",
"581 1313 OFFCURVE",
"538 1313 CURVE SMOOTH",
"515 1313 OFFCURVE",
"493 1319 OFFCURVE",
"472 1330 CURVE SMOOTH",
"423 1357 OFFCURVE",
"398 1399 OFFCURVE",
"398 1455 CURVE SMOOTH",
"398 1494 OFFCURVE",
"412 1528 OFFCURVE",
"441 1556 CURVE SMOOTH",
"468 1583 OFFCURVE",
"501 1596 OFFCURVE",
"540 1596 CURVE SMOOTH"
);
}
);
};
layerId = "4E782664-D0D5-4FED-AFC2-B9212141A2ED";
paths = (
{
closed = 1;
nodes = (
"1116 272 LINE",
"1009 63 OFFCURVE",
"849 -41 OFFCURVE",
"637 -41 CURVE SMOOTH",
"521 -41 OFFCURVE",
"419 -10 OFFCURVE",
"330 51 CURVE SMOOTH",
"173 159 OFFCURVE",
"94 327 OFFCURVE",
"94 555 CURVE SMOOTH",
"94 706 OFFCURVE",
"132 832 OFFCURVE",
"207 934 CURVE SMOOTH",
"275 1027 OFFCURVE",
"366 1090 OFFCURVE",
"479 1123 CURVE SMOOTH",
"535 1139 OFFCURVE",
"592 1147 OFFCURVE",
"651 1147 CURVE SMOOTH",
"772 1147 OFFCURVE",
"872 1116 OFFCURVE",
"950 1054 CURVE SMOOTH",
"1020 999 OFFCURVE",
"1055 940 OFFCURVE",
"1055 877 CURVE SMOOTH",
"1055 854 OFFCURVE",
"1050 832 OFFCURVE",
"1041 811 CURVE SMOOTH",
"1021 769 OFFCURVE",
"987 748 OFFCURVE",
"940 748 CURVE SMOOTH",
"901 748 OFFCURVE",
"871 763 OFFCURVE",
"850 793 CURVE SMOOTH",
"837 810 OFFCURVE",
"831 831 OFFCURVE",
"831 855 CURVE SMOOTH",
"831 903 OFFCURVE",
"847 935 OFFCURVE",
"880 952 CURVE",
"838 1017 OFFCURVE",
"762 1049 OFFCURVE",
"653 1049 CURVE SMOOTH",
"532 1049 OFFCURVE",
"433 998 OFFCURVE",
"357 896 CURVE SMOOTH",
"291 807 OFFCURVE",
"258 693 OFFCURVE",
"258 555 CURVE SMOOTH",
"258 454 OFFCURVE",
"276 367 OFFCURVE",
"313 292 CURVE SMOOTH",
"346 223 OFFCURVE",
"393 170 OFFCURVE",
"452 131 CURVE SMOOTH",
"511 93 OFFCURVE",
"578 74 OFFCURVE",
"651 74 CURVE SMOOTH",
"815 74 OFFCURVE",
"949 162 OFFCURVE",
"1052 338 CURVE"
);
},
{
closed = 1;
nodes = (
"675 1596 OFFCURVE",
"699 1589 OFFCURVE",
"722 1575 CURVE SMOOTH",
"768 1548 OFFCURVE",
"791 1507 OFFCURVE",
"791 1454 CURVE SMOOTH",
"791 1418 OFFCURVE",
"779 1386 OFFCURVE",
"754 1359 CURVE SMOOTH",
"726 1328 OFFCURVE",
"691 1313 OFFCURVE",
"648 1313 CURVE SMOOTH",
"625 1313 OFFCURVE",
"603 1319 OFFCURVE",
"582 1330 CURVE SMOOTH",
"533 1357 OFFCURVE",
"508 1399 OFFCURVE",
"508 1455 CURVE SMOOTH",
"508 1494 OFFCURVE",
"522 1528 OFFCURVE",
"551 1556 CURVE SMOOTH",
"578 1583 OFFCURVE",
"611 1596 OFFCURVE",
"650 1596 CURVE SMOOTH"
);
}
);
vertWidth = 2048;
width = 1188;
}
);
unicode = 010B;
},
{
color = 3;
glyphname = ebreve;
lastChange = "2022-04-07 18:22:07 +0000";
layers = (
{
background = {
paths = (
{
closed = 1;
nodes = (
"297 564 LINE",
"297 525 LINE SMOOTH",
"297 390 OFFCURVE",
"321 281 OFFCURVE",
"368 198 CURVE SMOOTH",
"415 115 OFFCURVE",
"474 74 OFFCURVE",
"545 74 CURVE SMOOTH",
"643 74 OFFCURVE",
"722 154 OFFCURVE",
"783 314 CURVE",
"844 252 LINE",
"770 57 OFFCURVE",
"662 -41 OFFCURVE",
"521 -41 CURVE SMOOTH",
"432 -41 OFFCURVE",
"355 -2 OFFCURVE",
"290 77 CURVE SMOOTH",
"202 185 OFFCURVE",
"158 339 OFFCURVE",
"158 539 CURVE SMOOTH",
"158 716 OFFCURVE",
"192 863 OFFCURVE",
"261 979 CURVE SMOOTH",
"328 1091 OFFCURVE",
"412 1147 OFFCURVE",
"511 1147 CURVE SMOOTH",
"610 1147 OFFCURVE",
"693 1090 OFFCURVE",
"760 976 CURVE SMOOTH",
"820 872 OFFCURVE",
"850 748 OFFCURVE",
"850 605 CURVE SMOOTH",
"850 564 LINE"
);
},
{
closed = 1;
nodes = (
"703 662 LINE",
"700 780 OFFCURVE",
"681 874 OFFCURVE",
"647 943 CURVE SMOOTH",
"612 1015 OFFCURVE",
"567 1051 OFFCURVE",
"512 1051 CURVE SMOOTH",
"463 1051 OFFCURVE",
"419 1016 OFFCURVE",
"378 946 CURVE SMOOTH",
"333 870 OFFCURVE",
"308 775 OFFCURVE",
"303 662 CURVE"
);
},
{
closed = 1;
nodes = (
"820 1557 LINE",
"818 1481 OFFCURVE",
"799 1420 OFFCURVE",
"764 1373 CURVE SMOOTH",
"709 1300 OFFCURVE",
"625 1264 OFFCURVE",
"512 1264 CURVE SMOOTH",
"390 1264 OFFCURVE",
"303 1306 OFFCURVE",
"250 1389 CURVE SMOOTH",
"222 1434 OFFCURVE",
"207 1490 OFFCURVE",
"205 1557 CURVE",
"302 1557 LINE",
"317 1444 OFFCURVE",
"387 1387 OFFCURVE",
"513 1387 CURVE SMOOTH",
"638 1387 OFFCURVE",
"708 1444 OFFCURVE",
"723 1557 CURVE"
);
}
);
};
layerId = "4E782664-D0D5-4FED-AFC2-B9212141A2ED";
paths = (
{
closed = 1;
nodes = (
"277 564 LINE",
"277 548 LINE SMOOTH",
"277 441 OFFCURVE",
"298 348 OFFCURVE",
"341 270 CURVE SMOOTH",
"412 139 OFFCURVE",
"522 74 OFFCURVE",
"670 74 CURVE SMOOTH",
"834 74 OFFCURVE",
"971 158 OFFCURVE",
"1080 326 CURVE",
"1145 261 LINE",
"1029 60 OFFCURVE",
"866 -41 OFFCURVE",
"657 -41 CURVE SMOOTH",
"473 -41 OFFCURVE",
"331 28 OFFCURVE",
"230 166 CURVE SMOOTH",
"155 269 OFFCURVE",
"117 397 OFFCURVE",
"117 549 CURVE SMOOTH",
"117 706 OFFCURVE",
"159 839 OFFCURVE",
"243 949 CURVE SMOOTH",
"345 1081 OFFCURVE",
"479 1147 OFFCURVE",
"646 1147 CURVE SMOOTH",
"763 1147 OFFCURVE",
"864 1114 OFFCURVE",
"951 1048 CURVE SMOOTH",
"1048 975 OFFCURVE",
"1112 874 OFFCURVE",
"1141 747 CURVE SMOOTH",
"1152 701 OFFCURVE",
"1157 654 OFFCURVE",
"1157 605 CURVE SMOOTH",
"1157 564 LINE"
);
},
{
closed = 1;
nodes = (
"985 662 LINE",
"980 775 OFFCURVE",
"955 861 OFFCURVE",
"910 920 CURVE SMOOTH",
"844 1007 OFFCURVE",
"757 1051 OFFCURVE",
"648 1051 CURVE SMOOTH",
"546 1051 OFFCURVE",
"459 1007 OFFCURVE",
"387 920 CURVE SMOOTH",
"330 851 OFFCURVE",
"294 765 OFFCURVE",
"281 662 CURVE"
);
},
{
closed = 1;
nodes = (
"954 1557 LINE",
"952 1481 OFFCURVE",
"933 1420 OFFCURVE",
"898 1373 CURVE SMOOTH",
"843 1300 OFFCURVE",
"759 1264 OFFCURVE",
"646 1264 CURVE SMOOTH",
"524 1264 OFFCURVE",
"437 1306 OFFCURVE",
"384 1389 CURVE SMOOTH",
"356 1434 OFFCURVE",
"341 1490 OFFCURVE",
"339 1557 CURVE",
"436 1557 LINE",
"451 1444 OFFCURVE",
"521 1387 OFFCURVE",
"647 1387 CURVE SMOOTH",
"772 1387 OFFCURVE",
"842 1444 OFFCURVE",
"857 1557 CURVE"
);
}
);
vertWidth = 2048;
width = 1290;
}
);
unicode = 0115;
},
{
color = 3;
glyphname = edotaccent;
lastChange = "2022-04-07 18:22:07 +0000";
layers = (
{
background = {
paths = (
{
closed = 1;
nodes = (
"297 564 LINE",
"297 525 LINE SMOOTH",
"297 390 OFFCURVE",
"321 281 OFFCURVE",
"368 198 CURVE SMOOTH",
"415 115 OFFCURVE",
"474 74 OFFCURVE",
"545 74 CURVE SMOOTH",
"643 74 OFFCURVE",
"722 154 OFFCURVE",
"783 314 CURVE",
"844 252 LINE",
"770 57 OFFCURVE",
"662 -41 OFFCURVE",
"521 -41 CURVE SMOOTH",
"432 -41 OFFCURVE",
"355 -2 OFFCURVE",
"290 77 CURVE SMOOTH",
"202 185 OFFCURVE",
"158 339 OFFCURVE",
"158 539 CURVE SMOOTH",
"158 716 OFFCURVE",
"192 863 OFFCURVE",
"261 979 CURVE SMOOTH",
"328 1091 OFFCURVE",
"412 1147 OFFCURVE",
"511 1147 CURVE SMOOTH",
"610 1147 OFFCURVE",
"693 1090 OFFCURVE",
"760 976 CURVE SMOOTH",
"820 872 OFFCURVE",
"850 748 OFFCURVE",
"850 605 CURVE SMOOTH",
"850 564 LINE"
);
},
{
closed = 1;
nodes = (
"703 662 LINE",
"700 780 OFFCURVE",
"681 874 OFFCURVE",
"647 943 CURVE SMOOTH",
"612 1015 OFFCURVE",
"567 1051 OFFCURVE",
"512 1051 CURVE SMOOTH",
"463 1051 OFFCURVE",
"419 1016 OFFCURVE",
"378 946 CURVE SMOOTH",
"333 870 OFFCURVE",
"308 775 OFFCURVE",
"303 662 CURVE"
);
},
{
closed = 1;
nodes = (
"538 1596 OFFCURVE",
"562 1589 OFFCURVE",
"585 1575 CURVE SMOOTH",
"631 1548 OFFCURVE",
"654 1507 OFFCURVE",
"654 1454 CURVE SMOOTH",
"654 1418 OFFCURVE",
"642 1386 OFFCURVE",
"617 1359 CURVE SMOOTH",
"589 1328 OFFCURVE",
"554 1313 OFFCURVE",
"511 1313 CURVE SMOOTH",
"488 1313 OFFCURVE",
"466 1319 OFFCURVE",
"445 1330 CURVE SMOOTH",
"396 1357 OFFCURVE",
"371 1399 OFFCURVE",
"371 1455 CURVE SMOOTH",
"371 1494 OFFCURVE",
"385 1528 OFFCURVE",
"414 1556 CURVE SMOOTH",
"441 1583 OFFCURVE",
"474 1596 OFFCURVE",
"513 1596 CURVE SMOOTH"
);
}
);
};
layerId = "4E782664-D0D5-4FED-AFC2-B9212141A2ED";
paths = (
{
closed = 1;
nodes = (
"277 564 LINE",
"277 548 LINE SMOOTH",
"277 441 OFFCURVE",
"298 348 OFFCURVE",
"341 270 CURVE SMOOTH",
"412 139 OFFCURVE",
"522 74 OFFCURVE",
"670 74 CURVE SMOOTH",
"834 74 OFFCURVE",
"971 158 OFFCURVE",
"1080 326 CURVE",
"1145 261 LINE",
"1029 60 OFFCURVE",
"866 -41 OFFCURVE",
"657 -41 CURVE SMOOTH",
"473 -41 OFFCURVE",
"331 28 OFFCURVE",
"230 166 CURVE SMOOTH",
"155 269 OFFCURVE",
"117 397 OFFCURVE",
"117 549 CURVE SMOOTH",
"117 706 OFFCURVE",
"159 839 OFFCURVE",
"243 949 CURVE SMOOTH",
"345 1081 OFFCURVE",
"479 1147 OFFCURVE",
"646 1147 CURVE SMOOTH",
"763 1147 OFFCURVE",
"864 1114 OFFCURVE",
"951 1048 CURVE SMOOTH",
"1048 975 OFFCURVE",
"1112 874 OFFCURVE",
"1141 747 CURVE SMOOTH",
"1152 701 OFFCURVE",
"1157 654 OFFCURVE",
"1157 605 CURVE SMOOTH",
"1157 564 LINE"
);
},
{
closed = 1;
nodes = (
"985 662 LINE",
"980 775 OFFCURVE",
"955 861 OFFCURVE",
"910 920 CURVE SMOOTH",
"844 1007 OFFCURVE",
"757 1051 OFFCURVE",
"648 1051 CURVE SMOOTH",
"546 1051 OFFCURVE",
"459 1007 OFFCURVE",
"387 920 CURVE SMOOTH",
"330 851 OFFCURVE",
"294 765 OFFCURVE",
"281 662 CURVE"
);
},
{
closed = 1;
nodes = (
"673 1596 OFFCURVE",
"697 1589 OFFCURVE",
"720 1575 CURVE SMOOTH",
"766 1548 OFFCURVE",
"789 1507 OFFCURVE",
"789 1454 CURVE SMOOTH",
"789 1418 OFFCURVE",
"777 1386 OFFCURVE",
"752 1359 CURVE SMOOTH",
"724 1328 OFFCURVE",
"689 1313 OFFCURVE",
"646 1313 CURVE SMOOTH",
"623 1313 OFFCURVE",
"601 1319 OFFCURVE",
"580 1330 CURVE SMOOTH",
"531 1357 OFFCURVE",
"506 1399 OFFCURVE",
"506 1455 CURVE SMOOTH",
"506 1494 OFFCURVE",
"520 1528 OFFCURVE",
"549 1556 CURVE SMOOTH",
"576 1583 OFFCURVE",
"609 1596 OFFCURVE",
"648 1596 CURVE SMOOTH"
);
}
);
vertWidth = 2048;
width = 1290;
}
);
unicode = 0117;
},
{
color = 3;
glyphname = gbreve;
lastChange = "2022-04-07 18:22:07 +0000";
layers = (
{
background = {
paths = (
{
closed = 1;
nodes = (
"287 264 LINE",
"212 294 OFFCURVE",
"174 342 OFFCURVE",
"174 407 CURVE SMOOTH",
"174 470 OFFCURVE",
"210 516 OFFCURVE",
"283 543 CURVE",
"212 601 OFFCURVE",
"176 688 OFFCURVE",
"176 804 CURVE SMOOTH",
"176 879 OFFCURVE",
"195 947 OFFCURVE",
"232 1007 CURVE SMOOTH",
"291 1100 OFFCURVE",
"373 1147 OFFCURVE",
"478 1147 CURVE SMOOTH",
"557 1147 OFFCURVE",
"621 1118 OFFCURVE",
"668 1059 CURVE",
"693 1109 OFFCURVE",
"729 1146 OFFCURVE",
"774 1169 CURVE SMOOTH",
"799 1182 OFFCURVE",
"823 1188 OFFCURVE",
"845 1188 CURVE SMOOTH",
"873 1188 OFFCURVE",
"897 1177 OFFCURVE",
"918 1156 CURVE SMOOTH",
"942 1131 OFFCURVE",
"954 1099 OFFCURVE",
"954 1062 CURVE SMOOTH",
"954 1000 OFFCURVE",
"927 969 OFFCURVE",
"873 969 CURVE SMOOTH",
"854 969 OFFCURVE",
"838 975 OFFCURVE",
"824 987 CURVE SMOOTH",
"805 1002 OFFCURVE",
"796 1024 OFFCURVE",
"796 1052 CURVE SMOOTH",
"796 1061 OFFCURVE",
"798 1072 OFFCURVE",
"801 1085 CURVE",
"773 1083 OFFCURVE",
"746 1056 OFFCURVE",
"721 1004 CURVE",
"759 944 OFFCURVE",
"778 877 OFFCURVE",
"778 802 CURVE SMOOTH",
"778 710 OFFCURVE",
"757 636 OFFCURVE",
"716 579 CURVE SMOOTH",
"664 510 OFFCURVE",
"586 475 OFFCURVE",
"482 475 CURVE SMOOTH",
"436 475 OFFCURVE",
"396 481 OFFCURVE",
"361 494 CURVE",
"316 489 OFFCURVE",
"293 466 OFFCURVE",
"293 426 CURVE SMOOTH",
"293 401 OFFCURVE",
"304 383 OFFCURVE",
"327 372 CURVE SMOOTH",
"351 360 OFFCURVE",
"386 351 OFFCURVE",
"432 346 CURVE SMOOTH",
"598 328 LINE SMOOTH",
"688 318 OFFCURVE",
"756 294 OFFCURVE",
"801 257 CURVE SMOOTH",
"857 212 OFFCURVE",
"885 142 OFFCURVE",
"885 49 CURVE SMOOTH",
"885 -146 OFFCURVE",
"753 -244 OFFCURVE",
"488 -244 CURVE SMOOTH",
"383 -244 OFFCURVE",
"298 -221 OFFCURVE",
"234 -175 CURVE SMOOTH",
"161 -122 OFFCURVE",
"125 -48 OFFCURVE",
"125 47 CURVE SMOOTH",
"125 149 OFFCURVE",
"179 218 OFFCURVE",
"287 254 CURVE"
);
},
{
closed = 1;
nodes = (
"423 1055 OFFCURVE",
"381 1029 OFFCURVE",
"350 977 CURVE SMOOTH",
"323 930 OFFCURVE",
"309 871 OFFCURVE",
"309 800 CURVE SMOOTH",
"309 745 OFFCURVE",
"317 698 OFFCURVE",
"334 660 CURVE SMOOTH",
"362 597 OFFCURVE",
"410 565 OFFCURVE",
"479 565 CURVE SMOOTH",
"535 565 OFFCURVE",
"578 589 OFFCURVE",
"608 638 CURVE SMOOTH",
"634 681 OFFCURVE",
"647 736 OFFCURVE",
"647 804 CURVE SMOOTH",
"647 887 OFFCURVE",
"626 953 OFFCURVE",
"585 1002 CURVE SMOOTH",
"555 1037 OFFCURVE",
"519 1055 OFFCURVE",
"476 1055 CURVE SMOOTH"
);
},
{
closed = 1;
nodes = (
"329 207 OFFCURVE",
"248 156 OFFCURVE",
"248 54 CURVE SMOOTH",
"248 11 OFFCURVE",
"262 -29 OFFCURVE",
"291 -65 CURVE SMOOTH",
"338 -124 OFFCURVE",
"406 -154 OFFCURVE",
"493 -154 CURVE SMOOTH",
"552 -154 OFFCURVE",
"603 -142 OFFCURVE",
"645 -118 CURVE SMOOTH",
"709 -81 OFFCURVE",
"741 -28 OFFCURVE",
"741 42 CURVE SMOOTH",
"741 152 OFFCURVE",
"657 207 OFFCURVE",
"490 207 CURVE SMOOTH"
);
},
{
closed = 1;
nodes = (
"786 1557 LINE",
"784 1481 OFFCURVE",
"765 1420 OFFCURVE",
"730 1373 CURVE SMOOTH",
"675 1300 OFFCURVE",
"591 1264 OFFCURVE",
"478 1264 CURVE SMOOTH",
"356 1264 OFFCURVE",
"269 1306 OFFCURVE",
"216 1389 CURVE SMOOTH",
"188 1434 OFFCURVE",
"173 1490 OFFCURVE",
"171 1557 CURVE",
"268 1557 LINE",
"283 1444 OFFCURVE",
"353 1387 OFFCURVE",
"479 1387 CURVE SMOOTH",
"604 1387 OFFCURVE",
"674 1444 OFFCURVE",
"689 1557 CURVE"
);
}
);
};
layerId = "4E782664-D0D5-4FED-AFC2-B9212141A2ED";
paths = (
{
closed = 1;
nodes = (
"362 252 LINE",
"316 261 OFFCURVE",
"278 276 OFFCURVE",
"247 299 CURVE SMOOTH",
"208 328 OFFCURVE",
"188 363 OFFCURVE",
"188 403 CURVE SMOOTH",
"188 484 OFFCURVE",
"243 534 OFFCURVE",
"354 555 CURVE",
"237 596 OFFCURVE",
"178 679 OFFCURVE",
"178 806 CURVE SMOOTH",
"178 893 OFFCURVE",
"213 967 OFFCURVE",
"283 1030 CURVE SMOOTH",
"370 1108 OFFCURVE",
"482 1147 OFFCURVE",
"619 1147 CURVE SMOOTH",
"746 1147 OFFCURVE",
"849 1118 OFFCURVE",
"929 1059 CURVE",
"966 1098 OFFCURVE",
"1010 1130 OFFCURVE",
"1062 1154 CURVE SMOOTH",
"1112 1177 OFFCURVE",
"1158 1188 OFFCURVE",
"1200 1188 CURVE SMOOTH",
"1228 1188 OFFCURVE",
"1253 1181 OFFCURVE",
"1276 1168 CURVE SMOOTH",
"1319 1143 OFFCURVE",
"1341 1107 OFFCURVE",
"1341 1059 CURVE SMOOTH",
"1341 1032 OFFCURVE",
"1333 1007 OFFCURVE",
"1318 984 CURVE SMOOTH",
"1297 955 OFFCURVE",
"1269 940 OFFCURVE",
"1234 940 CURVE SMOOTH",
"1205 940 OFFCURVE",
"1180 951 OFFCURVE",
"1158 973 CURVE SMOOTH",
"1136 995 OFFCURVE",
"1125 1020 OFFCURVE",
"1125 1048 CURVE SMOOTH",
"1125 1059 OFFCURVE",
"1127 1071 OFFCURVE",
"1132 1085 CURVE",
"1089 1084 OFFCURVE",
"1041 1054 OFFCURVE",
"987 997 CURVE",
"1040 948 OFFCURVE",
"1067 886 OFFCURVE",
"1067 810 CURVE SMOOTH",
"1067 702 OFFCURVE",
"1024 620 OFFCURVE",
"938 563 CURVE SMOOTH",
"861 512 OFFCURVE",
"757 487 OFFCURVE",
"626 487 CURVE SMOOTH",
"566 487 OFFCURVE",
"511 493 OFFCURVE",
"462 506 CURVE",
"373 498 OFFCURVE",
"329 470 OFFCURVE",
"329 422 CURVE SMOOTH",
"329 397 OFFCURVE",
"350 377 OFFCURVE",
"392 360 CURVE SMOOTH",
"436 342 OFFCURVE",
"493 332 OFFCURVE",
"563 328 CURVE SMOOTH",
"762 317 LINE SMOOTH",
"905 309 OFFCURVE",
"1007 292 OFFCURVE",
"1068 265 CURVE SMOOTH",
"1156 226 OFFCURVE",
"1200 158 OFFCURVE",
"1200 61 CURVE SMOOTH",
"1200 -53 OFFCURVE",
"1145 -134 OFFCURVE",
"1035 -183 CURVE SMOOTH",
"944 -224 OFFCURVE",
"810 -244 OFFCURVE",
"634 -244 CURVE SMOOTH",
"469 -244 OFFCURVE",
"340 -221 OFFCURVE",
"248 -176 CURVE SMOOTH",
"149 -128 OFFCURVE",
"100 -58 OFFCURVE",
"100 34 CURVE SMOOTH",
"100 93 OFFCURVE",
"128 142 OFFCURVE",
"183 180 CURVE SMOOTH",
"227 211 OFFCURVE",
"287 231 OFFCURVE",
"362 242 CURVE"
);
},
{
closed = 1;
nodes = (
"551 1055 OFFCURVE",
"494 1041 OFFCURVE",
"445 1013 CURVE SMOOTH",
"367 968 OFFCURVE",
"328 899 OFFCURVE",
"328 807 CURVE SMOOTH",
"328 654 OFFCURVE",
"426 577 OFFCURVE",
"621 577 CURVE SMOOTH",
"712 577 OFFCURVE",
"784 596 OFFCURVE",
"837 634 CURVE SMOOTH",
"894 675 OFFCURVE",
"922 733 OFFCURVE",
"922 810 CURVE SMOOTH",
"922 902 OFFCURVE",
"878 971 OFFCURVE",
"790 1016 CURVE SMOOTH",
"740 1042 OFFCURVE",
"682 1055 OFFCURVE",
"617 1055 CURVE SMOOTH"
);
},
{
closed = 1;
nodes = (
"503 180 OFFCURVE",
"410 172 OFFCURVE",
"353 155 CURVE SMOOTH",
"286 135 OFFCURVE",
"252 97 OFFCURVE",
"252 41 CURVE SMOOTH",
"252 -13 OFFCURVE",
"282 -58 OFFCURVE",
"343 -93 CURVE SMOOTH",
"413 -134 OFFCURVE",
"512 -154 OFFCURVE",
"641 -154 CURVE SMOOTH",
"916 -154 OFFCURVE",
"1053 -85 OFFCURVE",
"1053 54 CURVE SMOOTH",
"1053 138 OFFCURVE",
"912 180 OFFCURVE",
"630 180 CURVE SMOOTH"
);
},
{
closed = 1;
nodes = (
"927 1557 LINE",
"925 1481 OFFCURVE",
"906 1420 OFFCURVE",
"871 1373 CURVE SMOOTH",
"816 1300 OFFCURVE",
"732 1264 OFFCURVE",
"619 1264 CURVE SMOOTH",
"497 1264 OFFCURVE",
"410 1306 OFFCURVE",
"357 1389 CURVE SMOOTH",
"329 1434 OFFCURVE",
"314 1490 OFFCURVE",
"312 1557 CURVE",
"409 1557 LINE",
"424 1444 OFFCURVE",
"494 1387 OFFCURVE",
"620 1387 CURVE SMOOTH",
"745 1387 OFFCURVE",
"815 1444 OFFCURVE",
"830 1557 CURVE"
);
}
);
vertWidth = 2048;
width = 1352;
}
);
unicode = 011F;
},
{
color = 3;
glyphname = gcommaaccent;
lastChange = "2022-04-07 18:22:07 +0000";
layers = (
{
background = {
paths = (
{
closed = 1;
nodes = (
"287 264 LINE",
"212 294 OFFCURVE",
"174 342 OFFCURVE",
"174 407 CURVE SMOOTH",
"174 470 OFFCURVE",
"210 516 OFFCURVE",
"283 543 CURVE",
"212 601 OFFCURVE",
"176 688 OFFCURVE",
"176 804 CURVE SMOOTH",
"176 879 OFFCURVE",
"195 947 OFFCURVE",
"232 1007 CURVE SMOOTH",
"291 1100 OFFCURVE",
"373 1147 OFFCURVE",
"478 1147 CURVE SMOOTH",
"557 1147 OFFCURVE",
"621 1118 OFFCURVE",
"668 1059 CURVE",
"693 1109 OFFCURVE",
"729 1146 OFFCURVE",
"774 1169 CURVE SMOOTH",
"799 1182 OFFCURVE",
"823 1188 OFFCURVE",
"845 1188 CURVE SMOOTH",
"873 1188 OFFCURVE",
"897 1177 OFFCURVE",
"918 1156 CURVE SMOOTH",
"942 1131 OFFCURVE",
"954 1099 OFFCURVE",
"954 1062 CURVE SMOOTH",
"954 1000 OFFCURVE",
"927 969 OFFCURVE",
"873 969 CURVE SMOOTH",
"854 969 OFFCURVE",
"838 975 OFFCURVE",
"824 987 CURVE SMOOTH",
"805 1002 OFFCURVE",
"796 1024 OFFCURVE",
"796 1052 CURVE SMOOTH",
"796 1061 OFFCURVE",
"798 1072 OFFCURVE",
"801 1085 CURVE",
"773 1083 OFFCURVE",
"746 1056 OFFCURVE",
"721 1004 CURVE",
"759 944 OFFCURVE",
"778 877 OFFCURVE",
"778 802 CURVE SMOOTH",
"778 710 OFFCURVE",
"757 636 OFFCURVE",
"716 579 CURVE SMOOTH",
"664 510 OFFCURVE",
"586 475 OFFCURVE",
"482 475 CURVE SMOOTH",
"436 475 OFFCURVE",
"396 481 OFFCURVE",
"361 494 CURVE",
"316 489 OFFCURVE",
"293 466 OFFCURVE",
"293 426 CURVE SMOOTH",
"293 401 OFFCURVE",
"304 383 OFFCURVE",
"327 372 CURVE SMOOTH",
"351 360 OFFCURVE",
"386 351 OFFCURVE",
"432 346 CURVE SMOOTH",
"598 328 LINE SMOOTH",
"688 318 OFFCURVE",
"756 294 OFFCURVE",
"801 257 CURVE SMOOTH",
"857 212 OFFCURVE",
"885 142 OFFCURVE",
"885 49 CURVE SMOOTH",
"885 -146 OFFCURVE",
"753 -244 OFFCURVE",
"488 -244 CURVE SMOOTH",
"383 -244 OFFCURVE",
"298 -221 OFFCURVE",
"234 -175 CURVE SMOOTH",
"161 -122 OFFCURVE",
"125 -48 OFFCURVE",
"125 47 CURVE SMOOTH",
"125 149 OFFCURVE",
"179 218 OFFCURVE",
"287 254 CURVE"
);
},
{
closed = 1;
nodes = (
"423 1055 OFFCURVE",
"381 1029 OFFCURVE",
"350 977 CURVE SMOOTH",
"323 930 OFFCURVE",
"309 871 OFFCURVE",
"309 800 CURVE SMOOTH",
"309 745 OFFCURVE",
"317 698 OFFCURVE",
"334 660 CURVE SMOOTH",
"362 597 OFFCURVE",
"410 565 OFFCURVE",
"479 565 CURVE SMOOTH",
"535 565 OFFCURVE",
"578 589 OFFCURVE",
"608 638 CURVE SMOOTH",
"634 681 OFFCURVE",
"647 736 OFFCURVE",
"647 804 CURVE SMOOTH",
"647 887 OFFCURVE",
"626 953 OFFCURVE",
"585 1002 CURVE SMOOTH",
"555 1037 OFFCURVE",
"519 1055 OFFCURVE",
"476 1055 CURVE SMOOTH"
);
},
{
closed = 1;
nodes = (
"329 207 OFFCURVE",
"248 156 OFFCURVE",
"248 54 CURVE SMOOTH",
"248 11 OFFCURVE",
"262 -29 OFFCURVE",
"291 -65 CURVE SMOOTH",
"338 -124 OFFCURVE",
"406 -154 OFFCURVE",
"493 -154 CURVE SMOOTH",
"552 -154 OFFCURVE",
"603 -142 OFFCURVE",
"645 -118 CURVE SMOOTH",
"709 -81 OFFCURVE",
"741 -28 OFFCURVE",
"741 42 CURVE SMOOTH",
"741 152 OFFCURVE",
"657 207 OFFCURVE",
"490 207 CURVE SMOOTH"
);
},
{
closed = 1;
nodes = (
"551 1606 LINE",
"511 1576 OFFCURVE",
"489 1546 OFFCURVE",
"487 1515 CURVE",
"558 1515 OFFCURVE",
"607 1488 OFFCURVE",
"607 1421 CURVE SMOOTH",
"607 1352 OFFCURVE",
"554 1314 OFFCURVE",
"478 1314 CURVE SMOOTH",
"398 1314 OFFCURVE",
"338 1354 OFFCURVE",
"338 1442 CURVE SMOOTH",
"338 1540 OFFCURVE",
"407 1600 OFFCURVE",
"510 1661 CURVE"
);
}
);
};
layerId = "4E782664-D0D5-4FED-AFC2-B9212141A2ED";
paths = (
{
closed = 1;
nodes = (
"362 252 LINE",
"316 261 OFFCURVE",
"278 276 OFFCURVE",
"247 299 CURVE SMOOTH",
"208 328 OFFCURVE",
"188 363 OFFCURVE",
"188 403 CURVE SMOOTH",
"188 484 OFFCURVE",
"243 534 OFFCURVE",
"354 555 CURVE",
"237 596 OFFCURVE",
"178 679 OFFCURVE",
"178 806 CURVE SMOOTH",
"178 893 OFFCURVE",
"213 967 OFFCURVE",
"283 1030 CURVE SMOOTH",
"370 1108 OFFCURVE",
"482 1147 OFFCURVE",
"619 1147 CURVE SMOOTH",
"746 1147 OFFCURVE",
"849 1118 OFFCURVE",
"929 1059 CURVE",
"966 1098 OFFCURVE",
"1010 1130 OFFCURVE",
"1062 1154 CURVE SMOOTH",
"1112 1177 OFFCURVE",
"1158 1188 OFFCURVE",
"1200 1188 CURVE SMOOTH",
"1228 1188 OFFCURVE",
"1253 1181 OFFCURVE",
"1276 1168 CURVE SMOOTH",
"1319 1143 OFFCURVE",
"1341 1107 OFFCURVE",
"1341 1059 CURVE SMOOTH",
"1341 1032 OFFCURVE",
"1333 1007 OFFCURVE",
"1318 984 CURVE SMOOTH",
"1297 955 OFFCURVE",
"1269 940 OFFCURVE",
"1234 940 CURVE SMOOTH",
"1205 940 OFFCURVE",
"1180 951 OFFCURVE",
"1158 973 CURVE SMOOTH",
"1136 995 OFFCURVE",
"1125 1020 OFFCURVE",
"1125 1048 CURVE SMOOTH",
"1125 1059 OFFCURVE",
"1127 1071 OFFCURVE",
"1132 1085 CURVE",
"1089 1084 OFFCURVE",
"1041 1054 OFFCURVE",
"987 997 CURVE",
"1040 948 OFFCURVE",
"1067 886 OFFCURVE",
"1067 810 CURVE SMOOTH",
"1067 702 OFFCURVE",
"1024 620 OFFCURVE",
"938 563 CURVE SMOOTH",
"861 512 OFFCURVE",
"757 487 OFFCURVE",
"626 487 CURVE SMOOTH",
"566 487 OFFCURVE",
"511 493 OFFCURVE",
"462 506 CURVE",
"373 498 OFFCURVE",
"329 470 OFFCURVE",
"329 422 CURVE SMOOTH",
"329 397 OFFCURVE",
"350 377 OFFCURVE",
"392 360 CURVE SMOOTH",
"436 342 OFFCURVE",
"493 332 OFFCURVE",
"563 328 CURVE SMOOTH",
"762 317 LINE SMOOTH",
"905 309 OFFCURVE",
"1007 292 OFFCURVE",
"1068 265 CURVE SMOOTH",
"1156 226 OFFCURVE",
"1200 158 OFFCURVE",
"1200 61 CURVE SMOOTH",
"1200 -53 OFFCURVE",
"1145 -134 OFFCURVE",
"1035 -183 CURVE SMOOTH",
"944 -224 OFFCURVE",
"810 -244 OFFCURVE",
"634 -244 CURVE SMOOTH",
"469 -244 OFFCURVE",
"340 -221 OFFCURVE",
"248 -176 CURVE SMOOTH",
"149 -128 OFFCURVE",
"100 -58 OFFCURVE",
"100 34 CURVE SMOOTH",
"100 93 OFFCURVE",
"128 142 OFFCURVE",
"183 180 CURVE SMOOTH",
"227 211 OFFCURVE",
"287 231 OFFCURVE",
"362 242 CURVE"
);
},
{
closed = 1;
nodes = (
"551 1055 OFFCURVE",
"494 1041 OFFCURVE",
"445 1013 CURVE SMOOTH",
"367 968 OFFCURVE",
"328 899 OFFCURVE",
"328 807 CURVE SMOOTH",
"328 654 OFFCURVE",
"426 577 OFFCURVE",
"621 577 CURVE SMOOTH",
"712 577 OFFCURVE",
"784 596 OFFCURVE",
"837 634 CURVE SMOOTH",
"894 675 OFFCURVE",
"922 733 OFFCURVE",
"922 810 CURVE SMOOTH",
"922 902 OFFCURVE",
"878 971 OFFCURVE",
"790 1016 CURVE SMOOTH",
"740 1042 OFFCURVE",
"682 1055 OFFCURVE",
"617 1055 CURVE SMOOTH"
);
},
{
closed = 1;
nodes = (
"503 180 OFFCURVE",
"410 172 OFFCURVE",
"353 155 CURVE SMOOTH",
"286 135 OFFCURVE",
"252 97 OFFCURVE",
"252 41 CURVE SMOOTH",
"252 -13 OFFCURVE",
"282 -58 OFFCURVE",
"343 -93 CURVE SMOOTH",
"413 -134 OFFCURVE",
"512 -154 OFFCURVE",
"641 -154 CURVE SMOOTH",
"916 -154 OFFCURVE",
"1053 -85 OFFCURVE",
"1053 54 CURVE SMOOTH",
"1053 138 OFFCURVE",
"912 180 OFFCURVE",
"630 180 CURVE SMOOTH"
);
},
{
closed = 1;
nodes = (
"692 1606 LINE",
"652 1576 OFFCURVE",
"630 1546 OFFCURVE",
"628 1515 CURVE",
"699 1515 OFFCURVE",
"748 1488 OFFCURVE",
"748 1421 CURVE SMOOTH",
"748 1352 OFFCURVE",
"695 1314 OFFCURVE",
"619 1314 CURVE SMOOTH",
"539 1314 OFFCURVE",
"479 1354 OFFCURVE",
"479 1442 CURVE SMOOTH",
"479 1540 OFFCURVE",
"548 1600 OFFCURVE",
"651 1661 CURVE"
);
}
);
vertWidth = 2048;
width = 1352;
}
);
unicode = 0123;
},
{
color = 3;
glyphname = gdotaccent;
lastChange = "2022-04-07 18:22:07 +0000";
layers = (
{
background = {
paths = (
{
closed = 1;
nodes = (
"287 264 LINE",
"212 294 OFFCURVE",
"174 342 OFFCURVE",
"174 407 CURVE SMOOTH",
"174 470 OFFCURVE",
"210 516 OFFCURVE",
"283 543 CURVE",
"212 601 OFFCURVE",
"176 688 OFFCURVE",
"176 804 CURVE SMOOTH",
"176 879 OFFCURVE",
"195 947 OFFCURVE",
"232 1007 CURVE SMOOTH",
"291 1100 OFFCURVE",
"373 1147 OFFCURVE",
"478 1147 CURVE SMOOTH",
"557 1147 OFFCURVE",
"621 1118 OFFCURVE",
"668 1059 CURVE",
"693 1109 OFFCURVE",
"729 1146 OFFCURVE",
"774 1169 CURVE SMOOTH",
"799 1182 OFFCURVE",
"823 1188 OFFCURVE",
"845 1188 CURVE SMOOTH",
"873 1188 OFFCURVE",
"897 1177 OFFCURVE",
"918 1156 CURVE SMOOTH",
"942 1131 OFFCURVE",
"954 1099 OFFCURVE",
"954 1062 CURVE SMOOTH",
"954 1000 OFFCURVE",
"927 969 OFFCURVE",
"873 969 CURVE SMOOTH",
"854 969 OFFCURVE",
"838 975 OFFCURVE",
"824 987 CURVE SMOOTH",
"805 1002 OFFCURVE",
"796 1024 OFFCURVE",
"796 1052 CURVE SMOOTH",
"796 1061 OFFCURVE",
"798 1072 OFFCURVE",
"801 1085 CURVE",
"773 1083 OFFCURVE",
"746 1056 OFFCURVE",
"721 1004 CURVE",
"759 944 OFFCURVE",
"778 877 OFFCURVE",
"778 802 CURVE SMOOTH",
"778 710 OFFCURVE",
"757 636 OFFCURVE",
"716 579 CURVE SMOOTH",
"664 510 OFFCURVE",
"586 475 OFFCURVE",
"482 475 CURVE SMOOTH",
"436 475 OFFCURVE",
"396 481 OFFCURVE",
"361 494 CURVE",
"316 489 OFFCURVE",
"293 466 OFFCURVE",
"293 426 CURVE SMOOTH",
"293 401 OFFCURVE",
"304 383 OFFCURVE",
"327 372 CURVE SMOOTH",
"351 360 OFFCURVE",
"386 351 OFFCURVE",
"432 346 CURVE SMOOTH",
"598 328 LINE SMOOTH",
"688 318 OFFCURVE",
"756 294 OFFCURVE",
"801 257 CURVE SMOOTH",
"857 212 OFFCURVE",
"885 142 OFFCURVE",
"885 49 CURVE SMOOTH",
"885 -146 OFFCURVE",
"753 -244 OFFCURVE",
"488 -244 CURVE SMOOTH",
"383 -244 OFFCURVE",
"298 -221 OFFCURVE",
"234 -175 CURVE SMOOTH",
"161 -122 OFFCURVE",
"125 -48 OFFCURVE",
"125 47 CURVE SMOOTH",
"125 149 OFFCURVE",
"179 218 OFFCURVE",
"287 254 CURVE"
);
},
{
closed = 1;
nodes = (
"423 1055 OFFCURVE",
"381 1029 OFFCURVE",
"350 977 CURVE SMOOTH",
"323 930 OFFCURVE",
"309 871 OFFCURVE",
"309 800 CURVE SMOOTH",
"309 745 OFFCURVE",
"317 698 OFFCURVE",
"334 660 CURVE SMOOTH",
"362 597 OFFCURVE",
"410 565 OFFCURVE",
"479 565 CURVE SMOOTH",
"535 565 OFFCURVE",
"578 589 OFFCURVE",
"608 638 CURVE SMOOTH",
"634 681 OFFCURVE",
"647 736 OFFCURVE",
"647 804 CURVE SMOOTH",
"647 887 OFFCURVE",
"626 953 OFFCURVE",
"585 1002 CURVE SMOOTH",
"555 1037 OFFCURVE",
"519 1055 OFFCURVE",
"476 1055 CURVE SMOOTH"
);
},
{
closed = 1;
nodes = (
"329 207 OFFCURVE",
"248 156 OFFCURVE",
"248 54 CURVE SMOOTH",
"248 11 OFFCURVE",
"262 -29 OFFCURVE",
"291 -65 CURVE SMOOTH",
"338 -124 OFFCURVE",
"406 -154 OFFCURVE",
"493 -154 CURVE SMOOTH",
"552 -154 OFFCURVE",
"603 -142 OFFCURVE",
"645 -118 CURVE SMOOTH",
"709 -81 OFFCURVE",
"741 -28 OFFCURVE",
"741 42 CURVE SMOOTH",
"741 152 OFFCURVE",
"657 207 OFFCURVE",
"490 207 CURVE SMOOTH"
);
},
{
closed = 1;
nodes = (
"505 1596 OFFCURVE",
"529 1589 OFFCURVE",
"552 1575 CURVE SMOOTH",
"598 1548 OFFCURVE",
"621 1507 OFFCURVE",
"621 1454 CURVE SMOOTH",
"621 1418 OFFCURVE",
"609 1386 OFFCURVE",
"584 1359 CURVE SMOOTH",
"556 1328 OFFCURVE",
"521 1313 OFFCURVE",
"478 1313 CURVE SMOOTH",
"455 1313 OFFCURVE",
"433 1319 OFFCURVE",
"412 1330 CURVE SMOOTH",
"363 1357 OFFCURVE",
"338 1399 OFFCURVE",
"338 1455 CURVE SMOOTH",
"338 1494 OFFCURVE",
"352 1528 OFFCURVE",
"381 1556 CURVE SMOOTH",
"408 1583 OFFCURVE",
"441 1596 OFFCURVE",
"480 1596 CURVE SMOOTH"
);
}
);
};
layerId = "4E782664-D0D5-4FED-AFC2-B9212141A2ED";
paths = (
{
closed = 1;
nodes = (
"362 252 LINE",
"316 261 OFFCURVE",
"278 276 OFFCURVE",
"247 299 CURVE SMOOTH",
"208 328 OFFCURVE",
"188 363 OFFCURVE",
"188 403 CURVE SMOOTH",
"188 484 OFFCURVE",
"243 534 OFFCURVE",
"354 555 CURVE",
"237 596 OFFCURVE",
"178 679 OFFCURVE",
"178 806 CURVE SMOOTH",
"178 893 OFFCURVE",
"213 967 OFFCURVE",
"283 1030 CURVE SMOOTH",
"370 1108 OFFCURVE",
"482 1147 OFFCURVE",
"619 1147 CURVE SMOOTH",
"746 1147 OFFCURVE",
"849 1118 OFFCURVE",
"929 1059 CURVE",
"966 1098 OFFCURVE",
"1010 1130 OFFCURVE",
"1062 1154 CURVE SMOOTH",
"1112 1177 OFFCURVE",
"1158 1188 OFFCURVE",
"1200 1188 CURVE SMOOTH",
"1228 1188 OFFCURVE",
"1253 1181 OFFCURVE",
"1276 1168 CURVE SMOOTH",
"1319 1143 OFFCURVE",
"1341 1107 OFFCURVE",
"1341 1059 CURVE SMOOTH",
"1341 1032 OFFCURVE",
"1333 1007 OFFCURVE",
"1318 984 CURVE SMOOTH",
"1297 955 OFFCURVE",
"1269 940 OFFCURVE",
"1234 940 CURVE SMOOTH",
"1205 940 OFFCURVE",
"1180 951 OFFCURVE",
"1158 973 CURVE SMOOTH",
"1136 995 OFFCURVE",
"1125 1020 OFFCURVE",
"1125 1048 CURVE SMOOTH",
"1125 1059 OFFCURVE",
"1127 1071 OFFCURVE",
"1132 1085 CURVE",
"1089 1084 OFFCURVE",
"1041 1054 OFFCURVE",
"987 997 CURVE",
"1040 948 OFFCURVE",
"1067 886 OFFCURVE",
"1067 810 CURVE SMOOTH",
"1067 702 OFFCURVE",
"1024 620 OFFCURVE",
"938 563 CURVE SMOOTH",
"861 512 OFFCURVE",
"757 487 OFFCURVE",
"626 487 CURVE SMOOTH",
"566 487 OFFCURVE",
"511 493 OFFCURVE",
"462 506 CURVE",
"373 498 OFFCURVE",
"329 470 OFFCURVE",
"329 422 CURVE SMOOTH",
"329 397 OFFCURVE",
"350 377 OFFCURVE",
"392 360 CURVE SMOOTH",
"436 342 OFFCURVE",
"493 332 OFFCURVE",
"563 328 CURVE SMOOTH",
"762 317 LINE SMOOTH",
"905 309 OFFCURVE",
"1007 292 OFFCURVE",
"1068 265 CURVE SMOOTH",
"1156 226 OFFCURVE",
"1200 158 OFFCURVE",
"1200 61 CURVE SMOOTH",
"1200 -53 OFFCURVE",
"1145 -134 OFFCURVE",
"1035 -183 CURVE SMOOTH",
"944 -224 OFFCURVE",
"810 -244 OFFCURVE",
"634 -244 CURVE SMOOTH",
"469 -244 OFFCURVE",
"340 -221 OFFCURVE",
"248 -176 CURVE SMOOTH",
"149 -128 OFFCURVE",
"100 -58 OFFCURVE",
"100 34 CURVE SMOOTH",
"100 93 OFFCURVE",
"128 142 OFFCURVE",
"183 180 CURVE SMOOTH",
"227 211 OFFCURVE",
"287 231 OFFCURVE",
"362 242 CURVE"
);
},
{
closed = 1;
nodes = (
"551 1055 OFFCURVE",
"494 1041 OFFCURVE",
"445 1013 CURVE SMOOTH",
"367 968 OFFCURVE",
"328 899 OFFCURVE",
"328 807 CURVE SMOOTH",
"328 654 OFFCURVE",
"426 577 OFFCURVE",
"621 577 CURVE SMOOTH",
"712 577 OFFCURVE",
"784 596 OFFCURVE",
"837 634 CURVE SMOOTH",
"894 675 OFFCURVE",
"922 733 OFFCURVE",
"922 810 CURVE SMOOTH",
"922 902 OFFCURVE",
"878 971 OFFCURVE",
"790 1016 CURVE SMOOTH",
"740 1042 OFFCURVE",
"682 1055 OFFCURVE",
"617 1055 CURVE SMOOTH"
);
},
{
closed = 1;
nodes = (
"503 180 OFFCURVE",
"410 172 OFFCURVE",
"353 155 CURVE SMOOTH",
"286 135 OFFCURVE",
"252 97 OFFCURVE",
"252 41 CURVE SMOOTH",
"252 -13 OFFCURVE",
"282 -58 OFFCURVE",
"343 -93 CURVE SMOOTH",
"413 -134 OFFCURVE",
"512 -154 OFFCURVE",
"641 -154 CURVE SMOOTH",
"916 -154 OFFCURVE",
"1053 -85 OFFCURVE",
"1053 54 CURVE SMOOTH",
"1053 138 OFFCURVE",
"912 180 OFFCURVE",
"630 180 CURVE SMOOTH"
);
},
{
closed = 1;
nodes = (
"646 1596 OFFCURVE",
"670 1589 OFFCURVE",
"693 1575 CURVE SMOOTH",
"739 1548 OFFCURVE",
"762 1507 OFFCURVE",
"762 1454 CURVE SMOOTH",
"762 1418 OFFCURVE",
"750 1386 OFFCURVE",
"725 1359 CURVE SMOOTH",
"697 1328 OFFCURVE",
"662 1313 OFFCURVE",
"619 1313 CURVE SMOOTH",
"596 1313 OFFCURVE",
"574 1319 OFFCURVE",
"553 1330 CURVE SMOOTH",
"504 1357 OFFCURVE",
"479 1399 OFFCURVE",
"479 1455 CURVE SMOOTH",
"479 1494 OFFCURVE",
"493 1528 OFFCURVE",
"522 1556 CURVE SMOOTH",
"549 1583 OFFCURVE",
"582 1596 OFFCURVE",
"621 1596 CURVE SMOOTH"
);
}
);
vertWidth = 2048;
width = 1352;
}
);
unicode = 0121;
},
{
color = 0;
glyphname = idotless;
lastChange = "2022-03-08 18:27:58 +0000";
layers = (
{
layerId = "4E782664-D0D5-4FED-AFC2-B9212141A2ED";
paths = (
{
closed = 1;
nodes = (
"76 0 LINE",
"76 74 LINE",
"168 77 OFFCURVE",
"226 91 OFFCURVE",
"249 116 CURVE SMOOTH",
"270 138 OFFCURVE",
"281 179 OFFCURVE",
"281 238 CURVE SMOOTH",
"281 887 LINE SMOOTH",
"281 942 OFFCURVE",
"267 978 OFFCURVE",
"238 996 CURVE SMOOTH",
"211 1013 OFFCURVE",
"163 1025 OFFCURVE",
"96 1032 CURVE",
"96 1106 LINE",
"196 1106 OFFCURVE",
"306 1120 OFFCURVE",
"426 1147 CURVE",
"426 238 LINE SMOOTH",
"426 174 OFFCURVE",
"439 130 OFFCURVE",
"464 107 CURVE SMOOTH",
"487 86 OFFCURVE",
"540 75 OFFCURVE",
"622 74 CURVE",
"622 0 LINE"
);
}
);
vertWidth = 2048;
width = 676;
}
);
unicode = 0131;
},
{
color = 3;
glyphname = ibreve;
lastChange = "2022-04-07 18:22:07 +0000";
layers = (
{
background = {
paths = (
{
closed = 1;
nodes = (
"311 0 LINE",
"311 74 LINE",
"368 82 OFFCURVE",
"404 93 OFFCURVE",
"421 106 CURVE SMOOTH",
"442 123 OFFCURVE",
"452 154 OFFCURVE",
"452 197 CURVE SMOOTH",
"452 928 LINE SMOOTH",
"452 965 OFFCURVE",
"444 991 OFFCURVE",
"427 1004 CURVE SMOOTH",
"409 1018 OFFCURVE",
"375 1027 OFFCURVE",
"325 1032 CURVE",
"325 1106 LINE",
"406 1107 OFFCURVE",
"492 1120 OFFCURVE",
"581 1147 CURVE",
"581 197 LINE SMOOTH",
"581 153 OFFCURVE",
"591 123 OFFCURVE",
"610 106 CURVE SMOOTH",
"629 91 OFFCURVE",
"665 80 OFFCURVE",
"718 74 CURVE",
"718 0 LINE"
);
},
{
closed = 1;
nodes = (
"806 1557 LINE",
"804 1481 OFFCURVE",
"785 1420 OFFCURVE",
"750 1373 CURVE SMOOTH",
"695 1300 OFFCURVE",
"611 1264 OFFCURVE",
"498 1264 CURVE SMOOTH",
"376 1264 OFFCURVE",
"289 1306 OFFCURVE",
"236 1389 CURVE SMOOTH",
"208 1434 OFFCURVE",
"193 1490 OFFCURVE",
"191 1557 CURVE",
"288 1557 LINE",
"303 1444 OFFCURVE",
"373 1387 OFFCURVE",
"499 1387 CURVE SMOOTH",
"624 1387 OFFCURVE",
"694 1444 OFFCURVE",
"709 1557 CURVE"
);
}
);
};
layerId = "4E782664-D0D5-4FED-AFC2-B9212141A2ED";
paths = (
{
closed = 1;
nodes = (
"76 0 LINE",
"76 74 LINE",
"168 77 OFFCURVE",
"226 91 OFFCURVE",
"249 116 CURVE SMOOTH",
"270 138 OFFCURVE",
"281 179 OFFCURVE",
"281 238 CURVE SMOOTH",
"281 887 LINE SMOOTH",
"281 942 OFFCURVE",
"267 978 OFFCURVE",
"238 996 CURVE SMOOTH",
"211 1013 OFFCURVE",
"163 1025 OFFCURVE",
"96 1032 CURVE",
"96 1106 LINE",
"196 1106 OFFCURVE",
"306 1120 OFFCURVE",
"426 1147 CURVE",
"426 238 LINE SMOOTH",
"426 174 OFFCURVE",
"439 130 OFFCURVE",
"464 107 CURVE SMOOTH",
"487 86 OFFCURVE",
"540 75 OFFCURVE",
"622 74 CURVE",
"622 0 LINE"
);
},
{
closed = 1;
nodes = (
"656 1557 LINE",
"654 1481 OFFCURVE",
"635 1420 OFFCURVE",
"600 1373 CURVE SMOOTH",
"545 1300 OFFCURVE",
"461 1264 OFFCURVE",
"348 1264 CURVE SMOOTH",
"226 1264 OFFCURVE",
"139 1306 OFFCURVE",
"86 1389 CURVE SMOOTH",
"58 1434 OFFCURVE",
"43 1490 OFFCURVE",
"41 1557 CURVE",
"138 1557 LINE",
"153 1444 OFFCURVE",
"223 1387 OFFCURVE",
"349 1387 CURVE SMOOTH",
"474 1387 OFFCURVE",
"544 1444 OFFCURVE",
"559 1557 CURVE"
);
}
);
vertWidth = 2048;
width = 676;
}
);
unicode = 012D;
},
{
color = 3;
glyphname = ij;
lastChange = "2022-04-07 18:22:07 +0000";
layers = (
{
background = {
paths = (
{
closed = 1;
nodes = (
"334 1653 OFFCURVE",
"357 1646 OFFCURVE",
"378 1633 CURVE SMOOTH",
"417 1608 OFFCURVE",
"437 1572 OFFCURVE",
"437 1526 CURVE SMOOTH",
"437 1493 OFFCURVE",
"425 1464 OFFCURVE",
"402 1439 CURVE SMOOTH",
"377 1412 OFFCURVE",
"347 1399 OFFCURVE",
"310 1399 CURVE SMOOTH",
"289 1399 OFFCURVE",
"269 1404 OFFCURVE",
"250 1414 CURVE SMOOTH",
"205 1439 OFFCURVE",
"183 1476 OFFCURVE",
"183 1526 CURVE SMOOTH",
"183 1565 OFFCURVE",
"198 1597 OFFCURVE",
"227 1622 CURVE SMOOTH",
"251 1643 OFFCURVE",
"279 1653 OFFCURVE",
"310 1653 CURVE SMOOTH"
);
},
{
closed = 1;
nodes = (
"109 200 LINE",
"109 274 LINE",
"166 282 OFFCURVE",
"202 293 OFFCURVE",
"219 306 CURVE SMOOTH",
"240 323 OFFCURVE",
"250 354 OFFCURVE",
"250 397 CURVE SMOOTH",
"250 928 LINE SMOOTH",
"250 965 OFFCURVE",
"242 991 OFFCURVE",
"225 1004 CURVE SMOOTH",
"207 1018 OFFCURVE",
"173 1027 OFFCURVE",
"123 1032 CURVE",
"123 1106 LINE",
"204 1107 OFFCURVE",
"290 1120 OFFCURVE",
"379 1147 CURVE",
"379 397 LINE SMOOTH",
"379 353 OFFCURVE",
"389 323 OFFCURVE",
"408 306 CURVE SMOOTH",
"427 291 OFFCURVE",
"463 280 OFFCURVE",
"516 274 CURVE",
"516 200 LINE"
);
},
{
closed = 1;
nodes = (
"829 1653 OFFCURVE",
"852 1646 OFFCURVE",
"873 1633 CURVE SMOOTH",
"912 1608 OFFCURVE",
"932 1572 OFFCURVE",
"932 1526 CURVE SMOOTH",
"932 1493 OFFCURVE",
"920 1464 OFFCURVE",
"897 1439 CURVE SMOOTH",
"872 1412 OFFCURVE",
"842 1399 OFFCURVE",
"805 1399 CURVE SMOOTH",
"784 1399 OFFCURVE",
"764 1404 OFFCURVE",
"745 1414 CURVE SMOOTH",
"700 1439 OFFCURVE",
"678 1476 OFFCURVE",
"678 1526 CURVE SMOOTH",
"678 1565 OFFCURVE",
"693 1597 OFFCURVE",
"722 1622 CURVE SMOOTH",
"746 1643 OFFCURVE",
"774 1653 OFFCURVE",
"805 1653 CURVE SMOOTH"
);
},
{
closed = 1;
nodes = (
"627 1106 LINE",
"706 1107 OFFCURVE",
"792 1120 OFFCURVE",
"885 1147 CURVE",
"885 272 LINE SMOOTH",
"885 -19 OFFCURVE",
"809 -244 OFFCURVE",
"491 -244 CURVE SMOOTH",
"347 -244 OFFCURVE",
"209 -168 OFFCURVE",
"209 -53 CURVE SMOOTH",
"209 -15 OFFCURVE",
"220 15 OFFCURVE",
"242 36 CURVE SMOOTH",
"261 55 OFFCURVE",
"285 64 OFFCURVE",
"312 64 CURVE SMOOTH",
"351 64 OFFCURVE",
"379 49 OFFCURVE",
"397 19 CURVE SMOOTH",
"407 2 OFFCURVE",
"412 -18 OFFCURVE",
"412 -41 CURVE SMOOTH",
"412 -84 OFFCURVE",
"397 -114 OFFCURVE",
"367 -131 CURVE",
"393 -150 OFFCURVE",
"433 -160 OFFCURVE",
"483 -160 CURVE SMOOTH",
"729 -160 OFFCURVE",
"756 50 OFFCURVE",
"756 274 CURVE SMOOTH",
"756 928 LINE SMOOTH",
"756 963 OFFCURVE",
"746 988 OFFCURVE",
"727 1003 CURVE SMOOTH",
"711 1016 OFFCURVE",
"678 1026 OFFCURVE",
"627 1032 CURVE"
);
}
);
};
layerId = "4E782664-D0D5-4FED-AFC2-B9212141A2ED";
paths = (
{
closed = 1;
nodes = (
"371 1653 OFFCURVE",
"394 1646 OFFCURVE",
"416 1633 CURVE SMOOTH",
"455 1608 OFFCURVE",
"475 1572 OFFCURVE",
"475 1526 CURVE SMOOTH",
"475 1493 OFFCURVE",
"463 1464 OFFCURVE",
"440 1439 CURVE SMOOTH",
"415 1412 OFFCURVE",
"385 1399 OFFCURVE",
"348 1399 CURVE SMOOTH",
"327 1399 OFFCURVE",
"307 1404 OFFCURVE",
"288 1414 CURVE SMOOTH",
"243 1439 OFFCURVE",
"221 1476 OFFCURVE",
"221 1526 CURVE SMOOTH",
"221 1565 OFFCURVE",
"236 1597 OFFCURVE",
"265 1622 CURVE SMOOTH",
"289 1643 OFFCURVE",
"317 1653 OFFCURVE",
"348 1653 CURVE SMOOTH"
);
},
{
closed = 1;
nodes = (
"76 200 LINE",
"76 274 LINE",
"168 277 OFFCURVE",
"226 291 OFFCURVE",
"249 316 CURVE SMOOTH",
"270 338 OFFCURVE",
"281 379 OFFCURVE",
"281 438 CURVE SMOOTH",
"281 887 LINE SMOOTH",
"281 942 OFFCURVE",
"267 978 OFFCURVE",
"238 996 CURVE SMOOTH",
"211 1013 OFFCURVE",
"163 1025 OFFCURVE",
"96 1032 CURVE",
"96 1106 LINE",
"196 1106 OFFCURVE",
"306 1120 OFFCURVE",
"426 1147 CURVE",
"426 438 LINE SMOOTH",
"426 374 OFFCURVE",
"439 330 OFFCURVE",
"464 307 CURVE SMOOTH",
"487 286 OFFCURVE",
"540 275 OFFCURVE",
"622 274 CURVE",
"622 200 LINE"
);
},
{
closed = 1;
nodes = (
"662 1106 LINE",
"761 1106 OFFCURVE",
"871 1120 OFFCURVE",
"991 1147 CURVE",
"991 267 LINE SMOOTH",
"991 -22 OFFCURVE",
"887 -244 OFFCURVE",
"547 -244 CURVE SMOOTH",
"366 -244 OFFCURVE",
"220 -136 OFFCURVE",
"220 0 CURVE SMOOTH",
"220 71 OFFCURVE",
"265 123 OFFCURVE",
"333 123 CURVE SMOOTH",
"392 123 OFFCURVE",
"441 81 OFFCURVE",
"441 13 CURVE SMOOTH",
"441 -41 OFFCURVE",
"414 -76 OFFCURVE",
"359 -92 CURVE",
"396 -137 OFFCURVE",
"458 -160 OFFCURVE",
"545 -160 CURVE SMOOTH",
"803 -160 OFFCURVE",
"846 37 OFFCURVE",
"846 257 CURVE SMOOTH",
"846 887 LINE SMOOTH",
"846 942 OFFCURVE",
"832 978 OFFCURVE",
"803 996 CURVE SMOOTH",
"776 1013 OFFCURVE",
"729 1025 OFFCURVE",
"662 1032 CURVE"
);
},
{
closed = 1;
nodes = (
"938 1653 OFFCURVE",
"961 1646 OFFCURVE",
"982 1633 CURVE SMOOTH",
"1021 1608 OFFCURVE",
"1041 1572 OFFCURVE",
"1041 1526 CURVE SMOOTH",
"1041 1493 OFFCURVE",
"1029 1464 OFFCURVE",
"1006 1439 CURVE SMOOTH",
"981 1412 OFFCURVE",
"951 1399 OFFCURVE",
"914 1399 CURVE SMOOTH",
"893 1399 OFFCURVE",
"873 1404 OFFCURVE",
"854 1414 CURVE SMOOTH",
"809 1439 OFFCURVE",
"787 1476 OFFCURVE",
"787 1526 CURVE SMOOTH",
"787 1565 OFFCURVE",
"802 1597 OFFCURVE",
"831 1622 CURVE SMOOTH",
"855 1643 OFFCURVE",
"883 1653 OFFCURVE",
"914 1653 CURVE SMOOTH"
);
}
);
vertWidth = 2048;
width = 1239;
}
);
unicode = 0133;
},
{
color = 3;
glyphname = iogonek;
lastChange = "2022-04-07 18:22:07 +0000";
layers = (
{
background = {
paths = (
{
closed = 1;
nodes = (
"276 -242 OFFCURVE",
"228 -231 OFFCURVE",
"191 -208 CURVE SMOOTH",
"153 -185 OFFCURVE",
"134 -151 OFFCURVE",
"134 -106 CURVE SMOOTH",
"134 -35 OFFCURVE",
"180 27 OFFCURVE",
"272 80 CURVE",
"76 80 LINE",
"76 154 LINE",
"168 157 OFFCURVE",
"226 171 OFFCURVE",
"249 196 CURVE SMOOTH",
"270 218 OFFCURVE",
"281 259 OFFCURVE",
"281 318 CURVE SMOOTH",
"281 887 LINE SMOOTH",
"281 942 OFFCURVE",
"267 978 OFFCURVE",
"238 996 CURVE SMOOTH",
"211 1013 OFFCURVE",
"163 1025 OFFCURVE",
"96 1032 CURVE",
"96 1106 LINE",
"196 1106 OFFCURVE",
"306 1120 OFFCURVE",
"426 1147 CURVE",
"426 318 LINE SMOOTH",
"426 254 OFFCURVE",
"439 210 OFFCURVE",
"464 187 CURVE SMOOTH",
"487 166 OFFCURVE",
"540 155 OFFCURVE",
"622 154 CURVE",
"622 80 LINE",
"387 80 LINE",
"313 28 OFFCURVE",
"277 -26 OFFCURVE",
"277 -79 CURVE SMOOTH",
"277 -128 OFFCURVE",
"312 -152 OFFCURVE",
"383 -152 CURVE SMOOTH",
"450 -152 OFFCURVE",
"517 -127 OFFCURVE",
"584 -78 CURVE",
"606 -141 LINE",
"529 -208 OFFCURVE",
"439 -242 OFFCURVE",
"337 -242 CURVE SMOOTH"
);
},
{
closed = 1;
nodes = (
"327 1399 OFFCURVE",
"307 1404 OFFCURVE",
"288 1414 CURVE SMOOTH",
"243 1439 OFFCURVE",
"221 1476 OFFCURVE",
"221 1526 CURVE SMOOTH",
"221 1565 OFFCURVE",
"236 1597 OFFCURVE",
"265 1622 CURVE SMOOTH",
"289 1643 OFFCURVE",
"317 1653 OFFCURVE",
"348 1653 CURVE SMOOTH",
"371 1653 OFFCURVE",
"394 1646 OFFCURVE",
"416 1633 CURVE SMOOTH",
"455 1608 OFFCURVE",
"475 1572 OFFCURVE",
"475 1526 CURVE SMOOTH",
"475 1493 OFFCURVE",
"463 1464 OFFCURVE",
"440 1439 CURVE SMOOTH",
"415 1412 OFFCURVE",
"385 1399 OFFCURVE",
"348 1399 CURVE SMOOTH"
);
}
);
};
layerId = "4E782664-D0D5-4FED-AFC2-B9212141A2ED";
paths = (
{
closed = 1;
nodes = (
"276 -242 OFFCURVE",
"228 -231 OFFCURVE",
"191 -208 CURVE SMOOTH",
"153 -185 OFFCURVE",
"134 -151 OFFCURVE",
"134 -106 CURVE SMOOTH",
"134 -35 OFFCURVE",
"180 27 OFFCURVE",
"272 80 CURVE",
"76 80 LINE",
"76 154 LINE",
"168 157 OFFCURVE",
"226 171 OFFCURVE",
"249 196 CURVE SMOOTH",
"270 218 OFFCURVE",
"281 259 OFFCURVE",
"281 318 CURVE SMOOTH",
"281 887 LINE SMOOTH",
"281 942 OFFCURVE",
"267 978 OFFCURVE",
"238 996 CURVE SMOOTH",
"211 1013 OFFCURVE",
"163 1025 OFFCURVE",
"96 1032 CURVE",
"96 1106 LINE",
"196 1106 OFFCURVE",
"306 1120 OFFCURVE",
"426 1147 CURVE",
"426 318 LINE SMOOTH",
"426 254 OFFCURVE",
"439 210 OFFCURVE",
"464 187 CURVE SMOOTH",
"487 166 OFFCURVE",
"540 155 OFFCURVE",
"622 154 CURVE",
"622 80 LINE",
"387 80 LINE",
"313 28 OFFCURVE",
"277 -26 OFFCURVE",
"277 -79 CURVE SMOOTH",
"277 -128 OFFCURVE",
"312 -152 OFFCURVE",
"383 -152 CURVE SMOOTH",
"450 -152 OFFCURVE",
"517 -127 OFFCURVE",
"584 -78 CURVE",
"606 -141 LINE",
"529 -208 OFFCURVE",
"439 -242 OFFCURVE",
"337 -242 CURVE SMOOTH"
);
},
{
closed = 1;
nodes = (
"327 1399 OFFCURVE",
"307 1404 OFFCURVE",
"288 1414 CURVE SMOOTH",
"243 1439 OFFCURVE",
"221 1476 OFFCURVE",
"221 1526 CURVE SMOOTH",
"221 1565 OFFCURVE",
"236 1597 OFFCURVE",
"265 1622 CURVE SMOOTH",
"289 1643 OFFCURVE",
"317 1653 OFFCURVE",
"348 1653 CURVE SMOOTH",
"371 1653 OFFCURVE",
"394 1646 OFFCURVE",
"416 1633 CURVE SMOOTH",
"455 1608 OFFCURVE",
"475 1572 OFFCURVE",
"475 1526 CURVE SMOOTH",
"475 1493 OFFCURVE",
"463 1464 OFFCURVE",
"440 1439 CURVE SMOOTH",
"415 1412 OFFCURVE",
"385 1399 OFFCURVE",
"348 1399 CURVE SMOOTH"
);
}
);
vertWidth = 2048;
width = 676;
}
);
unicode = 012F;
},
{
color = 3;
glyphname = itilde;
lastChange = "2022-04-07 18:22:07 +0000";
layers = (
{
background = {
paths = (
{
closed = 1;
nodes = (
"311 0 LINE",
"311 74 LINE",
"368 82 OFFCURVE",
"404 93 OFFCURVE",
"421 106 CURVE SMOOTH",
"442 123 OFFCURVE",
"452 154 OFFCURVE",
"452 197 CURVE SMOOTH",
"452 928 LINE SMOOTH",
"452 965 OFFCURVE",
"444 991 OFFCURVE",
"427 1004 CURVE SMOOTH",
"409 1018 OFFCURVE",
"375 1027 OFFCURVE",
"325 1032 CURVE",
"325 1106 LINE",
"406 1107 OFFCURVE",
"492 1120 OFFCURVE",
"581 1147 CURVE",
"581 197 LINE SMOOTH",
"581 153 OFFCURVE",
"591 123 OFFCURVE",
"610 106 CURVE SMOOTH",
"629 91 OFFCURVE",
"665 80 OFFCURVE",
"718 74 CURVE",
"718 0 LINE"
);
},
{
closed = 1;
nodes = (
"150 1368 LINE",
"213 1476 OFFCURVE",
"286 1530 OFFCURVE",
"371 1530 CURVE SMOOTH",
"422 1530 OFFCURVE",
"476 1511 OFFCURVE",
"531 1474 CURVE SMOOTH",
"572 1446 OFFCURVE",
"613 1432 OFFCURVE",
"653 1432 CURVE SMOOTH",
"718 1432 OFFCURVE",
"769 1461 OFFCURVE",
"807 1518 CURVE",
"854 1458 LINE",
"791 1351 OFFCURVE",
"718 1297 OFFCURVE",
"634 1297 CURVE SMOOTH",
"583 1297 OFFCURVE",
"533 1313 OFFCURVE",
"484 1346 CURVE SMOOTH",
"435 1379 OFFCURVE",
"390 1395 OFFCURVE",
"351 1395 CURVE SMOOTH",
"286 1395 OFFCURVE",
"235 1366 OFFCURVE",
"197 1309 CURVE"
);
}
);
};
layerId = "4E782664-D0D5-4FED-AFC2-B9212141A2ED";
paths = (
{
closed = 1;
nodes = (
"76 0 LINE",
"76 74 LINE",
"168 77 OFFCURVE",
"226 91 OFFCURVE",
"249 116 CURVE SMOOTH",
"270 138 OFFCURVE",
"281 179 OFFCURVE",
"281 238 CURVE SMOOTH",
"281 887 LINE SMOOTH",
"281 942 OFFCURVE",
"267 978 OFFCURVE",
"238 996 CURVE SMOOTH",
"211 1013 OFFCURVE",
"163 1025 OFFCURVE",
"96 1032 CURVE",
"96 1106 LINE",
"196 1106 OFFCURVE",
"306 1120 OFFCURVE",
"426 1147 CURVE",
"426 238 LINE SMOOTH",
"426 174 OFFCURVE",
"439 130 OFFCURVE",
"464 107 CURVE SMOOTH",
"487 86 OFFCURVE",
"540 75 OFFCURVE",
"622 74 CURVE",
"622 0 LINE"
);
},
{
closed = 1;
nodes = (
"0 1368 LINE",
"63 1476 OFFCURVE",
"136 1530 OFFCURVE",
"221 1530 CURVE SMOOTH",
"272 1530 OFFCURVE",
"326 1511 OFFCURVE",
"381 1474 CURVE SMOOTH",
"422 1446 OFFCURVE",
"463 1432 OFFCURVE",
"503 1432 CURVE SMOOTH",
"568 1432 OFFCURVE",
"619 1461 OFFCURVE",
"657 1518 CURVE",
"704 1458 LINE",
"641 1351 OFFCURVE",
"568 1297 OFFCURVE",
"484 1297 CURVE SMOOTH",
"433 1297 OFFCURVE",
"383 1313 OFFCURVE",
"334 1346 CURVE SMOOTH",
"285 1379 OFFCURVE",
"240 1395 OFFCURVE",
"201 1395 CURVE SMOOTH",
"136 1395 OFFCURVE",
"85 1366 OFFCURVE",
"47 1309 CURVE"
);
}
);
vertWidth = 2048;
width = 676;
}
);
unicode = 0129;
},
{
color = 3;
glyphname = kcommaaccent;
lastChange = "2022-04-07 18:22:07 +0000";
layers = (
{
background = {
paths = (
{
closed = 1;
nodes = (
"53 144 LINE",
"137 147 OFFCURVE",
"190 161 OFFCURVE",
"213 186 CURVE SMOOTH",
"233 207 OFFCURVE",
"243 247 OFFCURVE",
"243 308 CURVE SMOOTH",
"243 1337 LINE SMOOTH",
"243 1398 OFFCURVE",
"231 1437 OFFCURVE",
"206 1454 CURVE SMOOTH",
"184 1470 OFFCURVE",
"134 1480 OFFCURVE",
"55 1483 CURVE",
"55 1557 LINE",
"183 1558 OFFCURVE",
"293 1571 OFFCURVE",
"384 1598 CURVE",
"384 584 LINE",
"775 891 LINE SMOOTH",
"817 924 OFFCURVE",
"837 955 OFFCURVE",
"837 980 CURVE SMOOTH",
"837 999 OFFCURVE",
"823 1011 OFFCURVE",
"796 1017 CURVE SMOOTH",
"769 1023 OFFCURVE",
"730 1028 OFFCURVE",
"679 1032 CURVE",
"679 1106 LINE",
"1203 1106 LINE",
"1203 1032 LINE",
"1141 1025 OFFCURVE",
"1088 1007 OFFCURVE",
"1044 977 CURVE SMOOTH",
"1009 954 OFFCURVE",
"961 911 OFFCURVE",
"894 858 CURVE SMOOTH",
"676 685 LINE",
"1039 273 LINE SMOOTH",
"1101 202 OFFCURVE",
"1186 157 OFFCURVE",
"1299 144 CURVE",
"1299 70 LINE",
"744 70 LINE",
"744 144 LINE",
"851 151 OFFCURVE",
"904 168 OFFCURVE",
"904 195 CURVE SMOOTH",
"904 205 OFFCURVE",
"895 220 OFFCURVE",
"881 243 CURVE SMOOTH",
"878 248 LINE",
"566 599 LINE",
"384 455 LINE",
"384 308 LINE SMOOTH",
"384 244 OFFCURVE",
"397 201 OFFCURVE",
"422 180 CURVE SMOOTH",
"445 160 OFFCURVE",
"495 148 OFFCURVE",
"572 144 CURVE",
"572 70 LINE",
"53 70 LINE"
);
},
{
closed = 1;
nodes = (
"596 -191 LINE",
"630 -171 OFFCURVE",
"648 -151 OFFCURVE",
"650 -130 CURVE",
"579 -130 OFFCURVE",
"530 -109 OFFCURVE",
"530 -56 CURVE SMOOTH",
"530 -6 OFFCURVE",
"575 21 OFFCURVE",
"639 21 CURVE SMOOTH",
"708 21 OFFCURVE",
"759 -10 OFFCURVE",
"759 -77 CURVE SMOOTH",
"759 -153 OFFCURVE",
"710 -199 OFFCURVE",
"637 -246 CURVE"
);
}
);
};
layerId = "4E782664-D0D5-4FED-AFC2-B9212141A2ED";
paths = (
{
closed = 1;
nodes = (
"53 144 LINE",
"137 147 OFFCURVE",
"190 161 OFFCURVE",
"213 186 CURVE SMOOTH",
"233 207 OFFCURVE",
"243 247 OFFCURVE",
"243 308 CURVE SMOOTH",
"243 1337 LINE SMOOTH",
"243 1398 OFFCURVE",
"231 1437 OFFCURVE",
"206 1454 CURVE SMOOTH",
"184 1470 OFFCURVE",
"134 1480 OFFCURVE",
"55 1483 CURVE",
"55 1557 LINE",
"183 1558 OFFCURVE",
"293 1571 OFFCURVE",
"384 1598 CURVE",
"384 584 LINE",
"775 891 LINE SMOOTH",
"817 924 OFFCURVE",
"837 955 OFFCURVE",
"837 980 CURVE SMOOTH",
"837 999 OFFCURVE",
"823 1011 OFFCURVE",
"796 1017 CURVE SMOOTH",
"769 1023 OFFCURVE",
"730 1028 OFFCURVE",
"679 1032 CURVE",
"679 1106 LINE",
"1203 1106 LINE",
"1203 1032 LINE",
"1141 1025 OFFCURVE",
"1088 1007 OFFCURVE",
"1044 977 CURVE SMOOTH",
"1009 954 OFFCURVE",
"961 911 OFFCURVE",
"894 858 CURVE SMOOTH",
"676 685 LINE",
"1039 273 LINE SMOOTH",
"1101 202 OFFCURVE",
"1186 157 OFFCURVE",
"1299 144 CURVE",
"1299 70 LINE",
"744 70 LINE",
"744 144 LINE",
"851 151 OFFCURVE",
"904 168 OFFCURVE",
"904 195 CURVE SMOOTH",
"904 205 OFFCURVE",
"895 220 OFFCURVE",
"881 243 CURVE SMOOTH",
"878 248 LINE",
"566 599 LINE",
"384 455 LINE",
"384 308 LINE SMOOTH",
"384 244 OFFCURVE",
"397 201 OFFCURVE",
"422 180 CURVE SMOOTH",
"445 160 OFFCURVE",
"495 148 OFFCURVE",
"572 144 CURVE",
"572 70 LINE",
"53 70 LINE"
);
},
{
closed = 1;
nodes = (
"596 -191 LINE",
"630 -171 OFFCURVE",
"648 -151 OFFCURVE",
"650 -130 CURVE",
"579 -130 OFFCURVE",
"530 -109 OFFCURVE",
"530 -56 CURVE SMOOTH",
"530 -6 OFFCURVE",
"575 21 OFFCURVE",
"639 21 CURVE SMOOTH",
"708 21 OFFCURVE",
"759 -10 OFFCURVE",
"759 -77 CURVE SMOOTH",
"759 -153 OFFCURVE",
"710 -199 OFFCURVE",
"637 -246 CURVE"
);
}
);
vertWidth = 2048;
width = 1331;
}
);
unicode = 0137;
},
{
color = 3;
glyphname = kgreenlandic;
lastChange = "2022-04-07 18:22:07 +0000";
layers = (
{
background = {
paths = (
{
closed = 1;
nodes = (
"123 0 LINE",
"123 74 LINE",
"168 82 OFFCURVE",
"198 95 OFFCURVE",
"213 113 CURVE SMOOTH",
"227 130 OFFCURVE",
"234 158 OFFCURVE",
"234 197 CURVE SMOOTH",
"234 927 LINE SMOOTH",
"234 964 OFFCURVE",
"226 990 OFFCURVE",
"211 1003 CURVE SMOOTH",
"194 1018 OFFCURVE",
"165 1027 OFFCURVE",
"123 1032 CURVE",
"123 1106 LINE",
"209 1106 OFFCURVE",
"289 1120 OFFCURVE",
"363 1147 CURVE",
"363 571 LINE",
"604 905 LINE SMOOTH",
"624 933 OFFCURVE",
"635 958 OFFCURVE",
"635 980 CURVE SMOOTH",
"635 999 OFFCURVE",
"626 1012 OFFCURVE",
"608 1018 CURVE SMOOTH",
"595 1023 OFFCURVE",
"576 1027 OFFCURVE",
"551 1032 CURVE",
"551 1106 LINE",
"883 1106 LINE",
"883 1032 LINE",
"829 1022 OFFCURVE",
"772 975 OFFCURVE",
"713 891 CURVE SMOOTH",
"551 662 LINE",
"785 203 LINE SMOOTH",
"821 132 OFFCURVE",
"870 89 OFFCURVE",
"934 74 CURVE",
"934 0 LINE",
"584 0 LINE",
"584 74 LINE",
"633 90 OFFCURVE",
"658 108 OFFCURVE",
"658 129 CURVE SMOOTH",
"658 142 OFFCURVE",
"652 161 OFFCURVE",
"641 184 CURVE SMOOTH",
"463 563 LINE",
"363 420 LINE",
"363 197 LINE SMOOTH",
"363 154 OFFCURVE",
"368 125 OFFCURVE",
"379 109 CURVE SMOOTH",
"390 92 OFFCURVE",
"414 80 OFFCURVE",
"449 74 CURVE",
"449 0 LINE"
);
}
);
};
layerId = "4E782664-D0D5-4FED-AFC2-B9212141A2ED";
paths = (
{
closed = 1;
nodes = (
"53 0 LINE",
"53 74 LINE",
"137 77 OFFCURVE",
"190 91 OFFCURVE",
"213 116 CURVE SMOOTH",
"233 137 OFFCURVE",
"243 177 OFFCURVE",
"243 238 CURVE SMOOTH",
"243 886 LINE SMOOTH",
"243 947 OFFCURVE",
"231 986 OFFCURVE",
"206 1003 CURVE SMOOTH",
"184 1019 OFFCURVE",
"134 1029 OFFCURVE",
"55 1032 CURVE",
"55 1106 LINE",
"183 1107 OFFCURVE",
"293 1120 OFFCURVE",
"384 1147 CURVE",
"384 559 LINE",
"775 891 LINE SMOOTH",
"816 926 OFFCURVE",
"837 955 OFFCURVE",
"837 980 CURVE SMOOTH",
"837 999 OFFCURVE",
"823 1011 OFFCURVE",
"796 1017 CURVE SMOOTH",
"769 1023 OFFCURVE",
"730 1028 OFFCURVE",
"679 1032 CURVE",
"679 1106 LINE",
"1203 1106 LINE",
"1203 1032 LINE",
"1141 1025 OFFCURVE",
"1088 1007 OFFCURVE",
"1044 977 CURVE SMOOTH",
"1009 954 OFFCURVE",
"959 914 OFFCURVE",
"894 858 CURVE SMOOTH",
"665 662 LINE",
"1039 203 LINE SMOOTH",
"1099 130 OFFCURVE",
"1186 87 OFFCURVE",
"1299 74 CURVE",
"1299 0 LINE",
"744 0 LINE",
"744 74 LINE",
"851 81 OFFCURVE",
"904 98 OFFCURVE",
"904 125 CURVE SMOOTH",
"904 135 OFFCURVE",
"895 150 OFFCURVE",
"881 173 CURVE SMOOTH",
"878 178 LINE",
"566 563 LINE",
"384 420 LINE",
"384 238 LINE SMOOTH",
"384 174 OFFCURVE",
"397 131 OFFCURVE",
"422 110 CURVE SMOOTH",
"445 90 OFFCURVE",
"495 78 OFFCURVE",
"572 74 CURVE",
"572 0 LINE"
);
}
);
vertWidth = 2048;
width = 1331;
}
);
unicode = 0138;
},
{
color = 3;
glyphname = lcommaaccent;
lastChange = "2022-04-07 18:22:07 +0000";
layers = (
{
background = {
paths = (
{
closed = 1;
nodes = (
"311 70 LINE",
"311 144 LINE",
"368 152 OFFCURVE",
"404 163 OFFCURVE",
"421 176 CURVE SMOOTH",
"442 193 OFFCURVE",
"452 224 OFFCURVE",
"452 267 CURVE SMOOTH",
"452 1379 LINE SMOOTH",
"452 1416 OFFCURVE",
"444 1441 OFFCURVE",
"427 1454 CURVE SMOOTH",
"409 1469 OFFCURVE",
"375 1478 OFFCURVE",
"325 1483 CURVE",
"325 1557 LINE",
"406 1557 OFFCURVE",
"492 1571 OFFCURVE",
"581 1598 CURVE",
"581 267 LINE SMOOTH",
"581 223 OFFCURVE",
"591 193 OFFCURVE",
"610 176 CURVE SMOOTH",
"629 161 OFFCURVE",
"665 150 OFFCURVE",
"718 144 CURVE",
"718 70 LINE"
);
},
{
closed = 1;
nodes = (
"456 -191 LINE",
"490 -171 OFFCURVE",
"508 -151 OFFCURVE",
"510 -130 CURVE",
"439 -130 OFFCURVE",
"390 -109 OFFCURVE",
"390 -56 CURVE SMOOTH",
"390 -6 OFFCURVE",
"435 21 OFFCURVE",
"499 21 CURVE SMOOTH",
"568 21 OFFCURVE",
"619 -10 OFFCURVE",
"619 -77 CURVE SMOOTH",
"619 -153 OFFCURVE",
"570 -199 OFFCURVE",
"497 -246 CURVE"
);
}
);
};
layerId = "4E782664-D0D5-4FED-AFC2-B9212141A2ED";
paths = (
{
closed = 1;
nodes = (
"90 70 LINE",
"90 144 LINE",
"173 147 OFFCURVE",
"226 161 OFFCURVE",
"249 186 CURVE SMOOTH",
"270 208 OFFCURVE",
"280 249 OFFCURVE",
"280 308 CURVE SMOOTH",
"280 1338 LINE SMOOTH",
"280 1397 OFFCURVE",
"267 1435 OFFCURVE",
"241 1454 CURVE SMOOTH",
"218 1471 OFFCURVE",
"170 1480 OFFCURVE",
"96 1483 CURVE",
"96 1557 LINE",
"217 1558 OFFCURVE",
"327 1571 OFFCURVE",
"425 1598 CURVE",
"425 308 LINE SMOOTH",
"425 243 OFFCURVE",
"437 200 OFFCURVE",
"462 179 CURVE SMOOTH",
"484 160 OFFCURVE",
"534 148 OFFCURVE",
"613 144 CURVE",
"613 70 LINE"
);
},
{
closed = 1;
nodes = (
"301 -191 LINE",
"335 -171 OFFCURVE",
"353 -151 OFFCURVE",
"355 -130 CURVE",
"284 -130 OFFCURVE",
"235 -109 OFFCURVE",
"235 -56 CURVE SMOOTH",
"235 -6 OFFCURVE",
"280 21 OFFCURVE",
"344 21 CURVE SMOOTH",
"413 21 OFFCURVE",
"464 -10 OFFCURVE",
"464 -77 CURVE SMOOTH",
"464 -153 OFFCURVE",
"415 -199 OFFCURVE",
"342 -246 CURVE"
);
}
);
vertWidth = 2048;
width = 676;
}
);
unicode = 013C;
},
{
color = 3;
glyphname = ldot;
lastChange = "2022-04-07 18:22:07 +0000";
layers = (
{
background = {
paths = (
{
closed = 1;
nodes = (
"311 0 LINE",
"311 74 LINE",
"368 82 OFFCURVE",
"404 93 OFFCURVE",
"421 106 CURVE SMOOTH",
"442 123 OFFCURVE",
"452 154 OFFCURVE",
"452 197 CURVE SMOOTH",
"452 1379 LINE SMOOTH",
"452 1416 OFFCURVE",
"444 1441 OFFCURVE",
"427 1454 CURVE SMOOTH",
"409 1469 OFFCURVE",
"375 1478 OFFCURVE",
"325 1483 CURVE",
"325 1557 LINE",
"406 1557 OFFCURVE",
"492 1571 OFFCURVE",
"581 1598 CURVE",
"581 197 LINE SMOOTH",
"581 153 OFFCURVE",
"591 123 OFFCURVE",
"610 106 CURVE SMOOTH",
"629 91 OFFCURVE",
"665 80 OFFCURVE",
"718 74 CURVE",
"718 0 LINE"
);
},
{
closed = 1;
nodes = (
"1039 921 OFFCURVE",
"1056 917 OFFCURVE",
"1072 910 CURVE SMOOTH",
"1117 889 OFFCURVE",
"1140 853 OFFCURVE",
"1140 802 CURVE SMOOTH",
"1140 769 OFFCURVE",
"1128 741 OFFCURVE",
"1105 718 CURVE SMOOTH",
"1082 695 OFFCURVE",
"1053 683 OFFCURVE",
"1020 683 CURVE SMOOTH",
"1000 683 OFFCURVE",
"981 688 OFFCURVE",
"964 698 CURVE SMOOTH",
"923 721 OFFCURVE",
"902 756 OFFCURVE",
"902 803 CURVE SMOOTH",
"902 838 OFFCURVE",
"915 867 OFFCURVE",
"941 890 CURVE SMOOTH",
"963 911 OFFCURVE",
"990 921 OFFCURVE",
"1022 921 CURVE SMOOTH"
);
}
);
};
layerId = "4E782664-D0D5-4FED-AFC2-B9212141A2ED";
paths = (
{
closed = 1;
nodes = (
"90 0 LINE",
"90 74 LINE",
"173 77 OFFCURVE",
"226 91 OFFCURVE",
"249 116 CURVE SMOOTH",
"270 138 OFFCURVE",
"280 179 OFFCURVE",
"280 238 CURVE SMOOTH",
"280 1338 LINE SMOOTH",
"280 1397 OFFCURVE",
"267 1435 OFFCURVE",
"241 1454 CURVE SMOOTH",
"218 1471 OFFCURVE",
"170 1480 OFFCURVE",
"96 1483 CURVE",
"96 1557 LINE",
"217 1558 OFFCURVE",
"327 1571 OFFCURVE",
"425 1598 CURVE",
"425 238 LINE SMOOTH",
"425 173 OFFCURVE",
"437 130 OFFCURVE",
"462 109 CURVE SMOOTH",
"484 90 OFFCURVE",
"534 78 OFFCURVE",
"613 74 CURVE",
"613 0 LINE"
);
},
{
closed = 1;
nodes = (
"714 921 OFFCURVE",
"731 917 OFFCURVE",
"747 910 CURVE SMOOTH",
"792 889 OFFCURVE",
"815 853 OFFCURVE",
"815 802 CURVE SMOOTH",
"815 769 OFFCURVE",
"803 741 OFFCURVE",
"780 718 CURVE SMOOTH",
"757 695 OFFCURVE",
"728 683 OFFCURVE",
"695 683 CURVE SMOOTH",
"675 683 OFFCURVE",
"656 688 OFFCURVE",
"639 698 CURVE SMOOTH",
"598 721 OFFCURVE",
"577 756 OFFCURVE",
"577 803 CURVE SMOOTH",
"577 838 OFFCURVE",
"590 867 OFFCURVE",
"616 890 CURVE SMOOTH",
"638 911 OFFCURVE",
"665 921 OFFCURVE",
"697 921 CURVE SMOOTH"
);
}
);
vertWidth = 2048;
width = 676;
}
);
unicode = 0140;
},
{
color = 3;
glyphname = napostrophe;
lastChange = "2022-04-07 18:22:07 +0000";
layers = (
{
background = {
paths = (
{
closed = 1;
nodes = (
"109 0 LINE",
"109 74 LINE",
"156 82 OFFCURVE",
"186 95 OFFCURVE",
"201 113 CURVE SMOOTH",
"215 130 OFFCURVE",
"222 158 OFFCURVE",
"222 197 CURVE SMOOTH",
"222 944 LINE SMOOTH",
"222 976 OFFCURVE",
"214 997 OFFCURVE",
"199 1008 CURVE SMOOTH",
"182 1020 OFFCURVE",
"152 1028 OFFCURVE",
"111 1032 CURVE",
"111 1106 LINE",
"194 1107 OFFCURVE",
"274 1120 OFFCURVE",
"351 1147 CURVE",
"351 973 LINE",
"373 1022 OFFCURVE",
"402 1062 OFFCURVE",
"438 1092 CURVE SMOOTH",
"483 1129 OFFCURVE",
"531 1147 OFFCURVE",
"583 1147 CURVE SMOOTH",
"690 1147 OFFCURVE",
"764 1084 OFFCURVE",
"804 957 CURVE SMOOTH",
"825 890 OFFCURVE",
"836 803 OFFCURVE",
"836 696 CURVE SMOOTH",
"836 197 LINE SMOOTH",
"836 152 OFFCURVE",
"844 121 OFFCURVE",
"860 104 CURVE SMOOTH",
"876 87 OFFCURVE",
"905 77 OFFCURVE",
"946 74 CURVE",
"946 0 LINE",
"621 0 LINE",
"621 74 LINE",
"654 80 OFFCURVE",
"675 91 OFFCURVE",
"686 106 CURVE SMOOTH",
"699 125 OFFCURVE",
"705 155 OFFCURVE",
"705 197 CURVE SMOOTH",
"705 702 LINE SMOOTH",
"705 919 OFFCURVE",
"657 1028 OFFCURVE",
"560 1028 CURVE SMOOTH",
"526 1028 OFFCURVE",
"491 1010 OFFCURVE",
"456 975 CURVE SMOOTH",
"416 935 OFFCURVE",
"381 876 OFFCURVE",
"351 799 CURVE",
"351 197 LINE SMOOTH",
"351 152 OFFCURVE",
"358 121 OFFCURVE",
"371 104 CURVE SMOOTH",
"382 90 OFFCURVE",
"404 80 OFFCURVE",
"439 74 CURVE",
"439 0 LINE"
);
},
{
closed = 1;
nodes = (
"144 1329 LINE",
"184 1366 OFFCURVE",
"206 1402 OFFCURVE",
"208 1440 CURVE",
"137 1440 OFFCURVE",
"88 1470 OFFCURVE",
"88 1544 CURVE SMOOTH",
"88 1619 OFFCURVE",
"141 1661 OFFCURVE",
"217 1661 CURVE SMOOTH",
"297 1661 OFFCURVE",
"357 1621 OFFCURVE",
"357 1533 CURVE SMOOTH",
"357 1417 OFFCURVE",
"288 1346 OFFCURVE",
"185 1274 CURVE"
);
}
);
};
layerId = "4E782664-D0D5-4FED-AFC2-B9212141A2ED";
paths = (
{
closed = 1;
nodes = (
"49 0 LINE",
"49 74 LINE",
"126 77 OFFCURVE",
"176 90 OFFCURVE",
"200 113 CURVE SMOOTH",
"225 136 OFFCURVE",
"237 177 OFFCURVE",
"237 238 CURVE SMOOTH",
"237 887 LINE SMOOTH",
"237 946 OFFCURVE",
"224 985 OFFCURVE",
"198 1004 CURVE SMOOTH",
"179 1017 OFFCURVE",
"131 1027 OFFCURVE",
"55 1032 CURVE",
"55 1106 LINE",
"174 1106 OFFCURVE",
"282 1120 OFFCURVE",
"380 1147 CURVE",
"380 952 LINE",
"424 1013 OFFCURVE",
"481 1062 OFFCURVE",
"551 1099 CURVE SMOOTH",
"613 1131 OFFCURVE",
"675 1147 OFFCURVE",
"738 1147 CURVE SMOOTH",
"865 1147 OFFCURVE",
"966 1101 OFFCURVE",
"1041 1009 CURVE SMOOTH",
"1102 934 OFFCURVE",
"1132 829 OFFCURVE",
"1132 696 CURVE SMOOTH",
"1132 238 LINE SMOOTH",
"1132 174 OFFCURVE",
"1145 131 OFFCURVE",
"1170 110 CURVE SMOOTH",
"1193 90 OFFCURVE",
"1244 78 OFFCURVE",
"1322 74 CURVE",
"1322 0 LINE",
"815 0 LINE",
"815 74 LINE",
"884 78 OFFCURVE",
"931 91 OFFCURVE",
"956 113 CURVE SMOOTH",
"978 132 OFFCURVE",
"989 174 OFFCURVE",
"989 238 CURVE SMOOTH",
"989 702 LINE SMOOTH",
"989 801 OFFCURVE",
"964 881 OFFCURVE",
"915 941 CURVE SMOOTH",
"868 999 OFFCURVE",
"804 1028 OFFCURVE",
"725 1028 CURVE SMOOTH",
"600 1028 OFFCURVE",
"485 952 OFFCURVE",
"380 799 CURVE",
"380 238 LINE SMOOTH",
"380 175 OFFCURVE",
"392 134 OFFCURVE",
"415 113 CURVE SMOOTH",
"438 92 OFFCURVE",
"484 79 OFFCURVE",
"552 74 CURVE",
"552 0 LINE"
);
},
{
closed = 1;
nodes = (
"194 1329 LINE",
"234 1366 OFFCURVE",
"256 1402 OFFCURVE",
"258 1440 CURVE",
"187 1440 OFFCURVE",
"138 1470 OFFCURVE",
"138 1544 CURVE SMOOTH",
"138 1619 OFFCURVE",
"191 1661 OFFCURVE",
"267 1661 CURVE SMOOTH",
"347 1661 OFFCURVE",
"407 1621 OFFCURVE",
"407 1533 CURVE SMOOTH",
"407 1417 OFFCURVE",
"338 1346 OFFCURVE",
"235 1274 CURVE"
);
}
);
vertWidth = 2048;
width = 1352;
}
);
unicode = 0149;
},
{
color = 3;
glyphname = ncommaaccent;
lastChange = "2022-04-07 18:22:07 +0000";
layers = (
{
background = {
paths = (
{
closed = 1;
nodes = (
"109 70 LINE",
"109 144 LINE",
"156 152 OFFCURVE",
"186 165 OFFCURVE",
"201 183 CURVE SMOOTH",
"215 200 OFFCURVE",
"222 228 OFFCURVE",
"222 267 CURVE SMOOTH",
"222 944 LINE SMOOTH",
"222 976 OFFCURVE",
"214 997 OFFCURVE",
"199 1008 CURVE SMOOTH",
"182 1020 OFFCURVE",
"152 1028 OFFCURVE",
"111 1032 CURVE",
"111 1106 LINE",
"194 1107 OFFCURVE",
"274 1120 OFFCURVE",
"351 1147 CURVE",
"351 973 LINE",
"373 1022 OFFCURVE",
"402 1062 OFFCURVE",
"438 1092 CURVE SMOOTH",
"483 1129 OFFCURVE",
"531 1147 OFFCURVE",
"583 1147 CURVE SMOOTH",
"690 1147 OFFCURVE",
"764 1084 OFFCURVE",
"804 957 CURVE SMOOTH",
"825 890 OFFCURVE",
"836 803 OFFCURVE",
"836 696 CURVE SMOOTH",
"836 267 LINE SMOOTH",
"836 222 OFFCURVE",
"844 191 OFFCURVE",
"860 174 CURVE SMOOTH",
"876 157 OFFCURVE",
"905 147 OFFCURVE",
"946 144 CURVE",
"946 70 LINE",
"621 70 LINE",
"621 144 LINE",
"654 150 OFFCURVE",
"675 161 OFFCURVE",
"686 176 CURVE SMOOTH",
"699 195 OFFCURVE",
"705 225 OFFCURVE",
"705 267 CURVE SMOOTH",
"705 702 LINE SMOOTH",
"705 919 OFFCURVE",
"657 1028 OFFCURVE",
"560 1028 CURVE SMOOTH",
"526 1028 OFFCURVE",
"491 1010 OFFCURVE",
"456 975 CURVE SMOOTH",
"416 935 OFFCURVE",
"381 876 OFFCURVE",
"351 799 CURVE",
"351 267 LINE SMOOTH",
"351 222 OFFCURVE",
"358 191 OFFCURVE",
"371 174 CURVE SMOOTH",
"382 160 OFFCURVE",
"404 150 OFFCURVE",
"439 144 CURVE",
"439 70 LINE"
);
},
{
closed = 1;
nodes = (
"476 -191 LINE",
"510 -171 OFFCURVE",
"528 -151 OFFCURVE",
"530 -130 CURVE",
"459 -130 OFFCURVE",
"410 -109 OFFCURVE",
"410 -56 CURVE SMOOTH",
"410 -6 OFFCURVE",
"455 21 OFFCURVE",
"519 21 CURVE SMOOTH",
"588 21 OFFCURVE",
"639 -10 OFFCURVE",
"639 -77 CURVE SMOOTH",
"639 -153 OFFCURVE",
"590 -199 OFFCURVE",
"517 -246 CURVE"
);
}
);
};
layerId = "4E782664-D0D5-4FED-AFC2-B9212141A2ED";
paths = (
{
closed = 1;
nodes = (
"49 70 LINE",
"49 144 LINE",
"126 147 OFFCURVE",
"176 160 OFFCURVE",
"200 183 CURVE SMOOTH",
"225 206 OFFCURVE",
"237 247 OFFCURVE",
"237 308 CURVE SMOOTH",
"237 887 LINE SMOOTH",
"237 946 OFFCURVE",
"224 985 OFFCURVE",
"198 1004 CURVE SMOOTH",
"179 1017 OFFCURVE",
"131 1027 OFFCURVE",
"55 1032 CURVE",
"55 1106 LINE",
"174 1106 OFFCURVE",
"282 1120 OFFCURVE",
"380 1147 CURVE",
"380 952 LINE",
"424 1013 OFFCURVE",
"481 1062 OFFCURVE",
"551 1099 CURVE SMOOTH",
"613 1131 OFFCURVE",
"675 1147 OFFCURVE",
"738 1147 CURVE SMOOTH",
"865 1147 OFFCURVE",
"966 1101 OFFCURVE",
"1041 1009 CURVE SMOOTH",
"1102 934 OFFCURVE",
"1132 829 OFFCURVE",
"1132 696 CURVE SMOOTH",
"1132 308 LINE SMOOTH",
"1132 244 OFFCURVE",
"1145 201 OFFCURVE",
"1170 180 CURVE SMOOTH",
"1193 160 OFFCURVE",
"1244 148 OFFCURVE",
"1322 144 CURVE",
"1322 70 LINE",
"815 70 LINE",
"815 144 LINE",
"884 148 OFFCURVE",
"931 161 OFFCURVE",
"956 183 CURVE SMOOTH",
"978 202 OFFCURVE",
"989 244 OFFCURVE",
"989 308 CURVE SMOOTH",
"989 702 LINE SMOOTH",
"989 801 OFFCURVE",
"964 881 OFFCURVE",
"915 941 CURVE SMOOTH",
"868 999 OFFCURVE",
"804 1028 OFFCURVE",
"725 1028 CURVE SMOOTH",
"600 1028 OFFCURVE",
"485 952 OFFCURVE",
"380 799 CURVE",
"380 308 LINE SMOOTH",
"380 245 OFFCURVE",
"392 204 OFFCURVE",
"415 183 CURVE SMOOTH",
"438 162 OFFCURVE",
"484 149 OFFCURVE",
"552 144 CURVE",
"552 70 LINE"
);
},
{
closed = 1;
nodes = (
"632 -191 LINE",
"666 -171 OFFCURVE",
"684 -151 OFFCURVE",
"686 -130 CURVE",
"615 -130 OFFCURVE",
"566 -109 OFFCURVE",
"566 -56 CURVE SMOOTH",
"566 -6 OFFCURVE",
"611 21 OFFCURVE",
"675 21 CURVE SMOOTH",
"744 21 OFFCURVE",
"795 -10 OFFCURVE",
"795 -77 CURVE SMOOTH",
"795 -153 OFFCURVE",
"746 -199 OFFCURVE",
"673 -246 CURVE"
);
}
);
vertWidth = 2048;
width = 1352;
}
);
unicode = 0146;
},
{
color = 3;
glyphname = obreve;
lastChange = "2022-04-07 18:22:07 +0000";
layers = (
{
background = {
paths = (
{
closed = 1;
nodes = (
"612 1147 OFFCURVE",
"696 1096 OFFCURVE",
"765 995 CURVE SMOOTH",
"842 882 OFFCURVE",
"880 733 OFFCURVE",
"880 549 CURVE SMOOTH",
"880 400 OFFCURVE",
"855 273 OFFCURVE",
"804 170 CURVE SMOOTH",
"735 29 OFFCURVE",
"637 -41 OFFCURVE",
"510 -41 CURVE SMOOTH",
"400 -41 OFFCURVE",
"311 15 OFFCURVE",
"242 128 CURVE SMOOTH",
"176 236 OFFCURVE",
"143 376 OFFCURVE",
"143 549 CURVE SMOOTH",
"143 755 OFFCURVE",
"190 915 OFFCURVE",
"283 1029 CURVE SMOOTH",
"348 1108 OFFCURVE",
"424 1147 OFFCURVE",
"513 1147 CURVE SMOOTH"
);
},
{
closed = 1;
nodes = (
"454 1049 OFFCURVE",
"406 1013 OFFCURVE",
"366 941 CURVE SMOOTH",
"315 850 OFFCURVE",
"290 722 OFFCURVE",
"290 555 CURVE SMOOTH",
"290 406 OFFCURVE",
"315 282 OFFCURVE",
"364 184 CURVE SMOOTH",
"407 99 OFFCURVE",
"456 57 OFFCURVE",
"512 57 CURVE SMOOTH",
"561 57 OFFCURVE",
"605 91 OFFCURVE",
"646 160 CURVE SMOOTH",
"704 259 OFFCURVE",
"733 390 OFFCURVE",
"733 553 CURVE SMOOTH",
"733 727 OFFCURVE",
"706 859 OFFCURVE",
"652 950 CURVE SMOOTH",
"613 1016 OFFCURVE",
"566 1049 OFFCURVE",
"511 1049 CURVE SMOOTH"
);
},
{
closed = 1;
nodes = (
"821 1557 LINE",
"819 1481 OFFCURVE",
"800 1420 OFFCURVE",
"765 1373 CURVE SMOOTH",
"710 1300 OFFCURVE",
"626 1264 OFFCURVE",
"513 1264 CURVE SMOOTH",
"391 1264 OFFCURVE",
"304 1306 OFFCURVE",
"251 1389 CURVE SMOOTH",
"223 1434 OFFCURVE",
"208 1490 OFFCURVE",
"206 1557 CURVE",
"303 1557 LINE",
"318 1444 OFFCURVE",
"388 1387 OFFCURVE",
"514 1387 CURVE SMOOTH",
"639 1387 OFFCURVE",
"709 1444 OFFCURVE",
"724 1557 CURVE"
);
}
);
};
layerId = "4E782664-D0D5-4FED-AFC2-B9212141A2ED";
paths = (
{
closed = 1;
nodes = (
"815 1147 OFFCURVE",
"954 1077 OFFCURVE",
"1054 937 CURVE SMOOTH",
"1129 832 OFFCURVE",
"1167 703 OFFCURVE",
"1167 550 CURVE SMOOTH",
"1167 395 OFFCURVE",
"1130 265 OFFCURVE",
"1056 162 CURVE SMOOTH",
"959 27 OFFCURVE",
"818 -41 OFFCURVE",
"634 -41 CURVE SMOOTH",
"476 -41 OFFCURVE",
"349 11 OFFCURVE",
"252 114 CURVE SMOOTH",
"152 221 OFFCURVE",
"102 367 OFFCURVE",
"102 550 CURVE SMOOTH",
"102 722 OFFCURVE",
"149 862 OFFCURVE",
"242 971 CURVE SMOOTH",
"342 1088 OFFCURVE",
"473 1147 OFFCURVE",
"636 1147 CURVE SMOOTH"
);
},
{
closed = 1;
nodes = (
"541 1049 OFFCURVE",
"464 1016 OFFCURVE",
"399 949 CURVE SMOOTH",
"310 859 OFFCURVE",
"266 728 OFFCURVE",
"266 555 CURVE SMOOTH",
"266 416 OFFCURVE",
"303 297 OFFCURVE",
"377 200 CURVE SMOOTH",
"449 105 OFFCURVE",
"535 57 OFFCURVE",
"635 57 CURVE SMOOTH",
"726 57 OFFCURVE",
"807 99 OFFCURVE",
"878 182 CURVE SMOOTH",
"961 281 OFFCURVE",
"1003 406 OFFCURVE",
"1003 556 CURVE SMOOTH",
"1003 695 OFFCURVE",
"973 809 OFFCURVE",
"912 898 CURVE SMOOTH",
"843 999 OFFCURVE",
"750 1049 OFFCURVE",
"632 1049 CURVE SMOOTH"
);
},
{
closed = 1;
nodes = (
"944 1557 LINE",
"942 1481 OFFCURVE",
"923 1420 OFFCURVE",
"888 1373 CURVE SMOOTH",
"833 1300 OFFCURVE",
"749 1264 OFFCURVE",
"636 1264 CURVE SMOOTH",
"514 1264 OFFCURVE",
"427 1306 OFFCURVE",
"374 1389 CURVE SMOOTH",
"346 1434 OFFCURVE",
"331 1490 OFFCURVE",
"329 1557 CURVE",
"426 1557 LINE",
"441 1444 OFFCURVE",
"511 1387 OFFCURVE",
"637 1387 CURVE SMOOTH",
"762 1387 OFFCURVE",
"832 1444 OFFCURVE",
"847 1557 CURVE"
);
}
);
vertWidth = 2048;
width = 1270;
}
);
unicode = 014F;
},
{
color = 3;
glyphname = rcommaaccent;
lastChange = "2022-04-07 18:22:07 +0000";
layers = (
{
background = {
paths = (
{
closed = 1;
nodes = (
"231 70 LINE",
"231 144 LINE",
"278 150 OFFCURVE",
"309 161 OFFCURVE",
"325 176 CURVE SMOOTH",
"340 191 OFFCURVE",
"348 222 OFFCURVE",
"348 267 CURVE SMOOTH",
"348 928 LINE SMOOTH",
"348 968 OFFCURVE",
"340 995 OFFCURVE",
"323 1010 CURVE SMOOTH",
"309 1022 OFFCURVE",
"279 1029 OFFCURVE",
"233 1032 CURVE",
"233 1106 LINE",
"304 1106 OFFCURVE",
"384 1120 OFFCURVE",
"471 1147 CURVE",
"471 926 LINE",
"501 996 OFFCURVE",
"537 1049 OFFCURVE",
"580 1085 CURVE SMOOTH",
"629 1126 OFFCURVE",
"679 1147 OFFCURVE",
"730 1147 CURVE SMOOTH",
"757 1147 OFFCURVE",
"783 1140 OFFCURVE",
"806 1126 CURVE SMOOTH",
"854 1097 OFFCURVE",
"878 1056 OFFCURVE",
"878 1003 CURVE SMOOTH",
"878 981 OFFCURVE",
"873 961 OFFCURVE",
"864 943 CURVE SMOOTH",
"845 907 OFFCURVE",
"815 889 OFFCURVE",
"773 889 CURVE SMOOTH",
"750 889 OFFCURVE",
"729 896 OFFCURVE",
"711 909 CURVE SMOOTH",
"685 928 OFFCURVE",
"672 954 OFFCURVE",
"672 985 CURVE SMOOTH",
"672 1006 OFFCURVE",
"681 1028 OFFCURVE",
"698 1049 CURVE",
"664 1036 OFFCURVE",
"630 1008 OFFCURVE",
"596 965 CURVE SMOOTH",
"547 902 OFFCURVE",
"508 832 OFFCURVE",
"479 756 CURVE",
"479 267 LINE SMOOTH",
"479 225 OFFCURVE",
"489 195 OFFCURVE",
"508 176 CURVE SMOOTH",
"523 161 OFFCURVE",
"555 150 OFFCURVE",
"604 144 CURVE",
"604 70 LINE"
);
},
{
closed = 1;
nodes = (
"356 -191 LINE",
"390 -171 OFFCURVE",
"408 -151 OFFCURVE",
"410 -130 CURVE",
"339 -130 OFFCURVE",
"290 -109 OFFCURVE",
"290 -56 CURVE SMOOTH",
"290 -6 OFFCURVE",
"335 21 OFFCURVE",
"399 21 CURVE SMOOTH",
"468 21 OFFCURVE",
"519 -10 OFFCURVE",
"519 -77 CURVE SMOOTH",
"519 -153 OFFCURVE",
"470 -199 OFFCURVE",
"397 -246 CURVE"
);
}
);
};
layerId = "4E782664-D0D5-4FED-AFC2-B9212141A2ED";
paths = (
{
closed = 1;
nodes = (
"31 70 LINE",
"31 144 LINE",
"116 146 OFFCURVE",
"169 159 OFFCURVE",
"191 184 CURVE SMOOTH",
"211 206 OFFCURVE",
"221 247 OFFCURVE",
"221 308 CURVE SMOOTH",
"221 887 LINE SMOOTH",
"221 944 OFFCURVE",
"209 981 OFFCURVE",
"184 999 CURVE SMOOTH",
"161 1016 OFFCURVE",
"112 1027 OFFCURVE",
"37 1032 CURVE",
"37 1106 LINE",
"138 1106 OFFCURVE",
"245 1120 OFFCURVE",
"357 1147 CURVE",
"357 915 LINE",
"398 981 OFFCURVE",
"459 1038 OFFCURVE",
"540 1087 CURVE SMOOTH",
"606 1127 OFFCURVE",
"677 1147 OFFCURVE",
"752 1147 CURVE SMOOTH",
"806 1147 OFFCURVE",
"850 1133 OFFCURVE",
"884 1106 CURVE SMOOTH",
"923 1075 OFFCURVE",
"942 1031 OFFCURVE",
"942 976 CURVE SMOOTH",
"942 943 OFFCURVE",
"932 916 OFFCURVE",
"913 895 CURVE SMOOTH",
"892 872 OFFCURVE",
"863 860 OFFCURVE",
"828 860 CURVE SMOOTH",
"807 860 OFFCURVE",
"787 866 OFFCURVE",
"770 877 CURVE SMOOTH",
"735 900 OFFCURVE",
"718 932 OFFCURVE",
"718 973 CURVE SMOOTH",
"718 994 OFFCURVE",
"725 1015 OFFCURVE",
"739 1036 CURVE",
"678 1035 OFFCURVE",
"617 1012 OFFCURVE",
"557 969 CURVE SMOOTH",
"478 912 OFFCURVE",
"414 840 OFFCURVE",
"364 752 CURVE",
"364 308 LINE SMOOTH",
"364 244 OFFCURVE",
"376 202 OFFCURVE",
"399 181 CURVE SMOOTH",
"424 158 OFFCURVE",
"480 145 OFFCURVE",
"567 144 CURVE",
"567 70 LINE"
);
},
{
closed = 1;
nodes = (
"241 -191 LINE",
"275 -171 OFFCURVE",
"293 -151 OFFCURVE",
"295 -130 CURVE",
"224 -130 OFFCURVE",
"175 -109 OFFCURVE",
"175 -56 CURVE SMOOTH",
"175 -6 OFFCURVE",
"220 21 OFFCURVE",
"284 21 CURVE SMOOTH",
"353 21 OFFCURVE",
"404 -10 OFFCURVE",
"404 -77 CURVE SMOOTH",
"404 -153 OFFCURVE",
"355 -199 OFFCURVE",
"282 -246 CURVE"
);
}
);
vertWidth = 2048;
width = 942;
}
);
unicode = 0157;
},
{
color = 3;
glyphname = longs;
lastChange = "2022-04-07 18:22:07 +0000";
layers = (
{
background = {
paths = (
{
closed = 1;
nodes = (
"94 74 LINE",
"175 77 OFFCURVE",
"227 90 OFFCURVE",
"251 113 CURVE SMOOTH",
"274 134 OFFCURVE",
"286 176 OFFCURVE",
"286 238 CURVE SMOOTH",
"286 1217 LINE SMOOTH",
"286 1334 OFFCURVE",
"319 1430 OFFCURVE",
"385 1506 CURVE SMOOTH",
"447 1577 OFFCURVE",
"532 1612 OFFCURVE",
"641 1612 CURVE SMOOTH",
"726 1612 OFFCURVE",
"796 1591 OFFCURVE",
"849 1550 CURVE SMOOTH",
"901 1511 OFFCURVE",
"927 1460 OFFCURVE",
"927 1399 CURVE SMOOTH",
"927 1378 OFFCURVE",
"922 1359 OFFCURVE",
"913 1342 CURVE SMOOTH",
"891 1302 OFFCURVE",
"858 1282 OFFCURVE",
"814 1282 CURVE SMOOTH",
"777 1282 OFFCURVE",
"748 1297 OFFCURVE",
"727 1328 CURVE SMOOTH",
"714 1347 OFFCURVE",
"708 1368 OFFCURVE",
"708 1393 CURVE SMOOTH",
"708 1435 OFFCURVE",
"726 1464 OFFCURVE",
"761 1479 CURVE",
"736 1504 OFFCURVE",
"698 1516 OFFCURVE",
"645 1516 CURVE SMOOTH",
"568 1516 OFFCURVE",
"510 1482 OFFCURVE",
"471 1413 CURVE SMOOTH",
"443 1362 OFFCURVE",
"429 1296 OFFCURVE",
"429 1215 CURVE SMOOTH",
"429 238 LINE SMOOTH",
"429 173 OFFCURVE",
"441 130 OFFCURVE",
"465 110 CURVE SMOOTH",
"488 90 OFFCURVE",
"539 78 OFFCURVE",
"617 74 CURVE",
"617 0 LINE",
"94 0 LINE"
);
}
);
};
layerId = "4E782664-D0D5-4FED-AFC2-B9212141A2ED";
paths = (
{
closed = 1;
nodes = (
"94 74 LINE",
"175 77 OFFCURVE",
"227 90 OFFCURVE",
"251 113 CURVE SMOOTH",
"274 134 OFFCURVE",
"286 176 OFFCURVE",
"286 238 CURVE SMOOTH",
"286 1217 LINE SMOOTH",
"286 1334 OFFCURVE",
"319 1430 OFFCURVE",
"385 1506 CURVE SMOOTH",
"447 1577 OFFCURVE",
"532 1612 OFFCURVE",
"641 1612 CURVE SMOOTH",
"726 1612 OFFCURVE",
"796 1591 OFFCURVE",
"849 1550 CURVE SMOOTH",
"901 1511 OFFCURVE",
"927 1460 OFFCURVE",
"927 1399 CURVE SMOOTH",
"927 1378 OFFCURVE",
"922 1359 OFFCURVE",
"913 1342 CURVE SMOOTH",
"891 1302 OFFCURVE",
"858 1282 OFFCURVE",
"814 1282 CURVE SMOOTH",
"777 1282 OFFCURVE",
"748 1297 OFFCURVE",
"727 1328 CURVE SMOOTH",
"714 1347 OFFCURVE",
"708 1368 OFFCURVE",
"708 1393 CURVE SMOOTH",
"708 1435 OFFCURVE",
"726 1464 OFFCURVE",
"761 1479 CURVE",
"736 1504 OFFCURVE",
"698 1516 OFFCURVE",
"645 1516 CURVE SMOOTH",
"568 1516 OFFCURVE",
"510 1482 OFFCURVE",
"471 1413 CURVE SMOOTH",
"443 1362 OFFCURVE",
"429 1296 OFFCURVE",
"429 1215 CURVE SMOOTH",
"429 238 LINE SMOOTH",
"429 173 OFFCURVE",
"441 130 OFFCURVE",
"465 110 CURVE SMOOTH",
"488 90 OFFCURVE",
"539 78 OFFCURVE",
"617 74 CURVE",
"617 0 LINE",
"94 0 LINE"
);
}
);
vertWidth = 2048;
width = 942;
}
);
unicode = 017F;
},
{
color = 3;
glyphname = tbar;
lastChange = "2022-04-07 18:22:07 +0000";
layers = (
{
background = {
paths = (
{
closed = 1;
nodes = (
"407 -35 OFFCURVE",
"334 7 OFFCURVE",
"291 91 CURVE SMOOTH",
"264 144 OFFCURVE",
"250 216 OFFCURVE",
"250 307 CURVE SMOOTH",
"250 589 LINE",
"14 589 LINE",
"14 687 LINE",
"250 687 LINE",
"250 1008 LINE",
"14 1008 LINE",
"14 1104 LINE",
"122 1124 OFFCURVE",
"201 1169 OFFCURVE",
"251 1240 CURVE SMOOTH",
"287 1291 OFFCURVE",
"310 1362 OFFCURVE",
"321 1452 CURVE",
"395 1452 LINE",
"395 1106 LINE",
"767 1106 LINE",
"767 1008 LINE",
"395 1008 LINE",
"395 687 LINE",
"767 687 LINE",
"767 589 LINE",
"395 589 LINE",
"395 322 LINE SMOOTH",
"395 243 OFFCURVE",
"405 185 OFFCURVE",
"425 150 CURVE SMOOTH",
"449 110 OFFCURVE",
"490 90 OFFCURVE",
"548 90 CURVE SMOOTH",
"637 90 OFFCURVE",
"710 132 OFFCURVE",
"767 217 CURVE",
"814 139 LINE",
"736 23 OFFCURVE",
"634 -35 OFFCURVE",
"508 -35 CURVE SMOOTH"
);
}
);
};
layerId = "4E782664-D0D5-4FED-AFC2-B9212141A2ED";
paths = (
{
closed = 1;
nodes = (
"407 -35 OFFCURVE",
"334 7 OFFCURVE",
"291 91 CURVE SMOOTH",
"264 144 OFFCURVE",
"250 216 OFFCURVE",
"250 307 CURVE SMOOTH",
"250 589 LINE",
"14 589 LINE",
"14 687 LINE",
"250 687 LINE",
"250 1008 LINE",
"14 1008 LINE",
"14 1104 LINE",
"122 1124 OFFCURVE",
"201 1169 OFFCURVE",
"251 1240 CURVE SMOOTH",
"287 1291 OFFCURVE",
"310 1362 OFFCURVE",
"321 1452 CURVE",
"395 1452 LINE",
"395 1106 LINE",
"767 1106 LINE",
"767 1008 LINE",
"395 1008 LINE",
"395 687 LINE",
"767 687 LINE",
"767 589 LINE",
"395 589 LINE",
"395 322 LINE SMOOTH",
"395 243 OFFCURVE",
"405 185 OFFCURVE",
"425 150 CURVE SMOOTH",
"449 110 OFFCURVE",
"490 90 OFFCURVE",
"548 90 CURVE SMOOTH",
"637 90 OFFCURVE",
"710 132 OFFCURVE",
"767 217 CURVE",
"814 139 LINE",
"736 23 OFFCURVE",
"634 -35 OFFCURVE",
"508 -35 CURVE SMOOTH"
);
}
);
vertWidth = 2048;
width = 1024;
}
);
unicode = 0167;
},
{
color = 3;
glyphname = uogonek;
lastChange = "2022-04-07 18:22:07 +0000";
layers = (
{
background = {
paths = (
{
closed = 1;
nodes = (
"913 -242 OFFCURVE",
"864 -231 OFFCURVE",
"827 -208 CURVE SMOOTH",
"789 -185 OFFCURVE",
"770 -150 OFFCURVE",
"770 -105 CURVE SMOOTH",
"770 -9 OFFCURVE",
"845 71 OFFCURVE",
"993 134 CURVE",
"975 272 LINE",
"866 137 OFFCURVE",
"741 69 OFFCURVE",
"599 69 CURVE SMOOTH",
"450 69 OFFCURVE",
"342 129 OFFCURVE",
"275 248 CURVE SMOOTH",
"235 319 OFFCURVE",
"215 410 OFFCURVE",
"215 520 CURVE SMOOTH",
"215 887 LINE SMOOTH",
"215 948 OFFCURVE",
"203 987 OFFCURVE",
"178 1004 CURVE SMOOTH",
"157 1018 OFFCURVE",
"108 1027 OFFCURVE",
"31 1032 CURVE",
"31 1106 LINE",
"140 1107 OFFCURVE",
"249 1120 OFFCURVE",
"358 1147 CURVE",
"358 528 LINE SMOOTH",
"358 415 OFFCURVE",
"385 329 OFFCURVE",
"438 268 CURVE SMOOTH",
"485 215 OFFCURVE",
"549 188 OFFCURVE",
"630 188 CURVE SMOOTH",
"760 188 OFFCURVE",
"872 264 OFFCURVE",
"965 417 CURVE",
"965 887 LINE SMOOTH",
"965 950 OFFCURVE",
"951 989 OFFCURVE",
"924 1006 CURVE SMOOTH",
"904 1019 OFFCURVE",
"857 1027 OFFCURVE",
"782 1032 CURVE",
"782 1106 LINE",
"903 1107 OFFCURVE",
"1012 1120 OFFCURVE",
"1110 1147 CURVE",
"1110 378 LINE SMOOTH",
"1110 301 OFFCURVE",
"1121 250 OFFCURVE",
"1144 223 CURVE SMOOTH",
"1162 202 OFFCURVE",
"1203 189 OFFCURVE",
"1268 184 CURVE",
"1268 110 LINE",
"1061 110 LINE",
"963 50 OFFCURVE",
"913 -13 OFFCURVE",
"913 -80 CURVE SMOOTH",
"913 -128 OFFCURVE",
"948 -152 OFFCURVE",
"1019 -152 CURVE SMOOTH",
"1085 -152 OFFCURVE",
"1152 -127 OFFCURVE",
"1220 -78 CURVE",
"1243 -141 LINE",
"1164 -208 OFFCURVE",
"1074 -242 OFFCURVE",
"973 -242 CURVE SMOOTH"
);
}
);
};
layerId = "4E782664-D0D5-4FED-AFC2-B9212141A2ED";
paths = (
{
closed = 1;
nodes = (
"913 -242 OFFCURVE",
"864 -231 OFFCURVE",
"827 -208 CURVE SMOOTH",
"789 -185 OFFCURVE",
"770 -150 OFFCURVE",
"770 -105 CURVE SMOOTH",
"770 -9 OFFCURVE",
"845 71 OFFCURVE",
"993 134 CURVE",
"975 272 LINE",
"866 137 OFFCURVE",
"741 69 OFFCURVE",
"599 69 CURVE SMOOTH",
"450 69 OFFCURVE",
"342 129 OFFCURVE",
"275 248 CURVE SMOOTH",
"235 319 OFFCURVE",
"215 410 OFFCURVE",
"215 520 CURVE SMOOTH",
"215 887 LINE SMOOTH",
"215 948 OFFCURVE",
"203 987 OFFCURVE",
"178 1004 CURVE SMOOTH",
"157 1018 OFFCURVE",
"108 1027 OFFCURVE",
"31 1032 CURVE",
"31 1106 LINE",
"140 1107 OFFCURVE",
"249 1120 OFFCURVE",
"358 1147 CURVE",
"358 528 LINE SMOOTH",
"358 415 OFFCURVE",
"385 329 OFFCURVE",
"438 268 CURVE SMOOTH",
"485 215 OFFCURVE",
"549 188 OFFCURVE",
"630 188 CURVE SMOOTH",
"760 188 OFFCURVE",
"872 264 OFFCURVE",
"965 417 CURVE",
"965 887 LINE SMOOTH",
"965 950 OFFCURVE",
"951 989 OFFCURVE",
"924 1006 CURVE SMOOTH",
"904 1019 OFFCURVE",
"857 1027 OFFCURVE",
"782 1032 CURVE",
"782 1106 LINE",
"903 1107 OFFCURVE",
"1012 1120 OFFCURVE",
"1110 1147 CURVE",
"1110 378 LINE SMOOTH",
"1110 301 OFFCURVE",
"1121 250 OFFCURVE",
"1144 223 CURVE SMOOTH",
"1162 202 OFFCURVE",
"1203 189 OFFCURVE",
"1268 184 CURVE",
"1268 110 LINE",
"1061 110 LINE",
"963 50 OFFCURVE",
"913 -13 OFFCURVE",
"913 -80 CURVE SMOOTH",
"913 -128 OFFCURVE",
"948 -152 OFFCURVE",
"1019 -152 CURVE SMOOTH",
"1085 -152 OFFCURVE",
"1152 -127 OFFCURVE",
"1220 -78 CURVE",
"1243 -141 LINE",
"1164 -208 OFFCURVE",
"1074 -242 OFFCURVE",
"973 -242 CURVE SMOOTH"
);
}
);
vertWidth = 2048;
width = 1311;
}
);
unicode = 0173;
},
{
color = 3;
glyphname = utilde;
lastChange = "2022-04-07 18:22:07 +0000";
layers = (
{
background = {
paths = (
{
closed = 1;
nodes = (
"720 0 LINE",
"700 141 LINE",
"679 80 OFFCURVE",
"646 33 OFFCURVE",
"600 0 CURVE SMOOTH",
"561 -27 OFFCURVE",
"516 -41 OFFCURVE",
"466 -41 CURVE SMOOTH",
"385 -41 OFFCURVE",
"319 -3 OFFCURVE",
"268 74 CURVE SMOOTH",
"229 133 OFFCURVE",
"209 229 OFFCURVE",
"209 360 CURVE SMOOTH",
"209 928 LINE SMOOTH",
"209 962 OFFCURVE",
"201 987 OFFCURVE",
"184 1002 CURVE SMOOTH",
"171 1013 OFFCURVE",
"141 1023 OFFCURVE",
"92 1032 CURVE",
"92 1106 LINE",
"171 1107 OFFCURVE",
"253 1120 OFFCURVE",
"338 1147 CURVE",
"338 367 LINE SMOOTH",
"338 174 OFFCURVE",
"386 78 OFFCURVE",
"483 78 CURVE SMOOTH",
"523 78 OFFCURVE",
"562 99 OFFCURVE",
"599 140 CURVE SMOOTH",
"639 185 OFFCURVE",
"669 247 OFFCURVE",
"690 326 CURVE",
"690 928 LINE SMOOTH",
"690 965 OFFCURVE",
"682 992 OFFCURVE",
"665 1008 CURVE SMOOTH",
"653 1020 OFFCURVE",
"625 1028 OFFCURVE",
"581 1032 CURVE",
"581 1106 LINE",
"663 1107 OFFCURVE",
"743 1120 OFFCURVE",
"821 1147 CURVE",
"821 227 LINE SMOOTH",
"821 171 OFFCURVE",
"828 132 OFFCURVE",
"841 111 CURVE SMOOTH",
"854 90 OFFCURVE",
"881 77 OFFCURVE",
"921 74 CURVE",
"921 0 LINE"
);
},
{
closed = 1;
nodes = (
"160 1368 LINE",
"223 1476 OFFCURVE",
"296 1530 OFFCURVE",
"381 1530 CURVE SMOOTH",
"432 1530 OFFCURVE",
"486 1511 OFFCURVE",
"541 1474 CURVE SMOOTH",
"582 1446 OFFCURVE",
"623 1432 OFFCURVE",
"663 1432 CURVE SMOOTH",
"728 1432 OFFCURVE",
"779 1461 OFFCURVE",
"817 1518 CURVE",
"864 1458 LINE",
"801 1351 OFFCURVE",
"728 1297 OFFCURVE",
"644 1297 CURVE SMOOTH",
"593 1297 OFFCURVE",
"543 1313 OFFCURVE",
"494 1346 CURVE SMOOTH",
"445 1379 OFFCURVE",
"400 1395 OFFCURVE",
"361 1395 CURVE SMOOTH",
"296 1395 OFFCURVE",
"245 1366 OFFCURVE",
"207 1309 CURVE"
);
}
);
};
layerId = "4E782664-D0D5-4FED-AFC2-B9212141A2ED";
paths = (
{
closed = 1;
nodes = (
"996 0 LINE",
"975 162 LINE",
"866 27 OFFCURVE",
"741 -41 OFFCURVE",
"599 -41 CURVE SMOOTH",
"450 -41 OFFCURVE",
"342 19 OFFCURVE",
"275 138 CURVE SMOOTH",
"235 209 OFFCURVE",
"215 300 OFFCURVE",
"215 410 CURVE SMOOTH",
"215 887 LINE SMOOTH",
"215 948 OFFCURVE",
"203 987 OFFCURVE",
"178 1004 CURVE SMOOTH",
"157 1018 OFFCURVE",
"108 1027 OFFCURVE",
"31 1032 CURVE",
"31 1106 LINE",
"140 1107 OFFCURVE",
"249 1120 OFFCURVE",
"358 1147 CURVE",
"358 418 LINE SMOOTH",
"358 305 OFFCURVE",
"385 219 OFFCURVE",
"438 158 CURVE SMOOTH",
"485 105 OFFCURVE",
"549 78 OFFCURVE",
"630 78 CURVE SMOOTH",
"760 78 OFFCURVE",
"872 154 OFFCURVE",
"965 307 CURVE",
"965 887 LINE SMOOTH",
"965 950 OFFCURVE",
"951 989 OFFCURVE",
"924 1006 CURVE SMOOTH",
"904 1019 OFFCURVE",
"857 1027 OFFCURVE",
"782 1032 CURVE",
"782 1106 LINE",
"903 1107 OFFCURVE",
"1012 1120 OFFCURVE",
"1110 1147 CURVE",
"1110 268 LINE SMOOTH",
"1110 191 OFFCURVE",
"1121 140 OFFCURVE",
"1144 113 CURVE SMOOTH",
"1162 92 OFFCURVE",
"1203 79 OFFCURVE",
"1268 74 CURVE",
"1268 0 LINE"
);
},
{
closed = 1;
nodes = (
"305 1368 LINE",
"368 1476 OFFCURVE",
"441 1530 OFFCURVE",
"526 1530 CURVE SMOOTH",
"577 1530 OFFCURVE",
"631 1511 OFFCURVE",
"686 1474 CURVE SMOOTH",
"727 1446 OFFCURVE",
"768 1432 OFFCURVE",
"808 1432 CURVE SMOOTH",
"873 1432 OFFCURVE",
"924 1461 OFFCURVE",
"962 1518 CURVE",
"1009 1458 LINE",
"946 1351 OFFCURVE",
"873 1297 OFFCURVE",
"789 1297 CURVE SMOOTH",
"738 1297 OFFCURVE",
"688 1313 OFFCURVE",
"639 1346 CURVE SMOOTH",
"590 1379 OFFCURVE",
"545 1395 OFFCURVE",
"506 1395 CURVE SMOOTH",
"441 1395 OFFCURVE",
"390 1366 OFFCURVE",
"352 1309 CURVE"
);
}
);
vertWidth = 2048;
width = 1311;
}
);
unicode = 0169;
},
{
color = 3;
glyphname = wcircumflex;
lastChange = "2022-04-07 18:22:07 +0000";
layers = (
{
background = {
paths = (
{
closed = 1;
nodes = (
"35 1106 LINE",
"275 1106 LINE",
"275 1032 LINE",
"240 1019 OFFCURVE",
"222 997 OFFCURVE",
"222 968 CURVE SMOOTH",
"222 959 OFFCURVE",
"223 949 OFFCURVE",
"225 936 CURVE SMOOTH",
"352 244 LINE",
"361 244 LINE",
"465 1000 LINE",
"592 1000 LINE",
"705 244 LINE",
"713 244 LINE",
"821 938 LINE SMOOTH",
"823 953 OFFCURVE",
"825 965 OFFCURVE",
"825 972 CURVE SMOOTH",
"825 1009 OFFCURVE",
"808 1029 OFFCURVE",
"774 1032 CURVE",
"774 1106 LINE",
"985 1106 LINE",
"985 1032 LINE",
"983 1031 OFFCURVE",
"981 1031 OFFCURVE",
"980 1030 CURVE",
"954 1017 OFFCURVE",
"937 1003 OFFCURVE",
"930 989 CURVE SMOOTH",
"923 977 OFFCURVE",
"918 959 OFFCURVE",
"914 934 CURVE SMOOTH",
"750 -20 LINE",
"641 -20 LINE",
"518 739 LINE",
"510 739 LINE",
"402 -20 LINE",
"297 -20 LINE",
"98 936 LINE SMOOTH",
"87 991 OFFCURVE",
"66 1023 OFFCURVE",
"35 1032 CURVE"
);
},
{
closed = 1;
nodes = (
"446 1573 LINE",
"613 1573 LINE",
"874 1270 LINE",
"747 1270 LINE",
"529 1460 LINE",
"312 1270 LINE",
"185 1270 LINE"
);
}
);
};
layerId = "4E782664-D0D5-4FED-AFC2-B9212141A2ED";
paths = (
{
closed = 1;
nodes = (
"6 1106 LINE",
"477 1106 LINE",
"477 1032 LINE",
"374 1023 OFFCURVE",
"322 999 OFFCURVE",
"322 960 CURVE SMOOTH",
"322 949 OFFCURVE",
"327 931 OFFCURVE",
"336 905 CURVE SMOOTH",
"575 233 LINE",
"584 233 LINE",
"837 1000 LINE",
"975 1000 LINE",
"1212 229 LINE",
"1220 229 LINE",
"1454 881 LINE SMOOTH",
"1463 907 OFFCURVE",
"1468 929 OFFCURVE",
"1468 946 CURVE SMOOTH",
"1468 976 OFFCURVE",
"1453 998 OFFCURVE",
"1423 1011 CURVE SMOOTH",
"1400 1021 OFFCURVE",
"1364 1028 OFFCURVE",
"1315 1032 CURVE",
"1315 1106 LINE",
"1743 1106 LINE",
"1743 1032 LINE",
"1659 1021 OFFCURVE",
"1599 964 OFFCURVE",
"1562 862 CURVE SMOOTH",
"1245 -20 LINE",
"1159 -20 LINE",
"895 809 LINE",
"889 809 LINE",
"608 -20 LINE",
"522 -20 LINE",
"201 879 LINE SMOOTH",
"167 974 OFFCURVE",
"101 1025 OFFCURVE",
"6 1032 CURVE"
);
},
{
closed = 1;
nodes = (
"811 1573 LINE",
"978 1573 LINE",
"1239 1270 LINE",
"1112 1270 LINE",
"894 1460 LINE",
"677 1270 LINE",
"550 1270 LINE"
);
}
);
vertWidth = 2048;
width = 1761;
}
);
unicode = 0175;
},
{
color = 3;
glyphname = ycircumflex;
lastChange = "2022-04-07 18:22:07 +0000";
layers = (
{
background = {
paths = (
{
closed = 1;
nodes = (
"84 1106 LINE",
"428 1106 LINE",
"428 1032 LINE",
"371 1026 OFFCURVE",
"342 1010 OFFCURVE",
"342 984 CURVE SMOOTH",
"342 971 OFFCURVE",
"347 953 OFFCURVE",
"354 930 CURVE SMOOTH",
"555 299 LINE",
"725 893 LINE SMOOTH",
"734 926 OFFCURVE",
"739 952 OFFCURVE",
"739 973 CURVE SMOOTH",
"739 999 OFFCURVE",
"714 1023 OFFCURVE",
"660 1031 CURVE SMOOTH",
"653 1032 LINE",
"653 1106 LINE",
"950 1106 LINE",
"950 1032 LINE",
"921 1025 OFFCURVE",
"900 1016 OFFCURVE",
"887 1004 CURVE SMOOTH",
"868 988 OFFCURVE",
"850 950 OFFCURVE",
"832 891 CURVE SMOOTH",
"573 57 LINE SMOOTH",
"542 -43 OFFCURVE",
"509 -117 OFFCURVE",
"472 -164 CURVE SMOOTH",
"431 -217 OFFCURVE",
"377 -244 OFFCURVE",
"312 -244 CURVE SMOOTH",
"241 -244 OFFCURVE",
"187 -215 OFFCURVE",
"152 -157 CURVE SMOOTH",
"135 -130 OFFCURVE",
"126 -102 OFFCURVE",
"126 -73 CURVE SMOOTH",
"126 -42 OFFCURVE",
"134 -17 OFFCURVE",
"150 2 CURVE SMOOTH",
"170 27 OFFCURVE",
"197 39 OFFCURVE",
"231 39 CURVE SMOOTH",
"267 39 OFFCURVE",
"295 24 OFFCURVE",
"316 -7 CURVE SMOOTH",
"328 -25 OFFCURVE",
"334 -45 OFFCURVE",
"334 -67 CURVE SMOOTH",
"334 -102 OFFCURVE",
"320 -132 OFFCURVE",
"291 -156 CURVE",
"338 -153 OFFCURVE",
"374 -132 OFFCURVE",
"399 -95 CURVE SMOOTH",
"422 -62 OFFCURVE",
"444 -10 OFFCURVE",
"465 61 CURVE SMOOTH",
"483 123 LINE",
"209 938 LINE SMOOTH",
"191 991 OFFCURVE",
"149 1022 OFFCURVE",
"84 1032 CURVE"
);
},
{
closed = 1;
nodes = (
"456 1573 LINE",
"623 1573 LINE",
"884 1270 LINE",
"757 1270 LINE",
"539 1460 LINE",
"322 1270 LINE",
"195 1270 LINE"
);
}
);
};
layerId = "4E782664-D0D5-4FED-AFC2-B9212141A2ED";
paths = (
{
closed = 1;
nodes = (
"29 1106 LINE",
"549 1106 LINE",
"549 1032 LINE",
"483 1025 OFFCURVE",
"442 1017 OFFCURVE",
"425 1010 CURVE SMOOTH",
"398 999 OFFCURVE",
"385 984 OFFCURVE",
"385 966 CURVE SMOOTH",
"385 944 OFFCURVE",
"392 920 OFFCURVE",
"406 893 CURVE SMOOTH",
"701 299 LINE",
"942 830 LINE SMOOTH",
"958 866 OFFCURVE",
"967 896 OFFCURVE",
"967 920 CURVE SMOOTH",
"967 980 OFFCURVE",
"916 1017 OFFCURVE",
"815 1032 CURVE",
"815 1106 LINE",
"1299 1106 LINE",
"1299 1032 LINE",
"1236 1031 OFFCURVE",
"1185 1007 OFFCURVE",
"1144 958 CURVE SMOOTH",
"1115 923 OFFCURVE",
"1085 872 OFFCURVE",
"1053 805 CURVE SMOOTH",
"717 94 LINE SMOOTH",
"675 5 OFFCURVE",
"632 -66 OFFCURVE",
"590 -117 CURVE SMOOTH",
"520 -202 OFFCURVE",
"441 -244 OFFCURVE",
"352 -244 CURVE SMOOTH",
"308 -244 OFFCURVE",
"268 -233 OFFCURVE",
"231 -212 CURVE SMOOTH",
"167 -175 OFFCURVE",
"135 -124 OFFCURVE",
"135 -57 CURVE SMOOTH",
"135 -20 OFFCURVE",
"147 10 OFFCURVE",
"172 35 CURVE SMOOTH",
"194 57 OFFCURVE",
"221 68 OFFCURVE",
"253 68 CURVE SMOOTH",
"285 68 OFFCURVE",
"311 57 OFFCURVE",
"332 35 CURVE SMOOTH",
"353 12 OFFCURVE",
"363 -16 OFFCURVE",
"363 -51 CURVE SMOOTH",
"363 -88 OFFCURVE",
"345 -120 OFFCURVE",
"308 -147 CURVE",
"372 -147 OFFCURVE",
"424 -128 OFFCURVE",
"463 -90 CURVE SMOOTH",
"498 -56 OFFCURVE",
"534 -4 OFFCURVE",
"570 66 CURVE SMOOTH",
"613 150 LINE",
"250 881 LINE SMOOTH",
"208 965 OFFCURVE",
"135 1015 OFFCURVE",
"29 1032 CURVE"
);
},
{
closed = 1;
nodes = (
"596 1573 LINE",
"763 1573 LINE",
"1024 1270 LINE",
"897 1270 LINE",
"679 1460 LINE",
"462 1270 LINE",
"335 1270 LINE"
);
}
);
vertWidth = 2048;
width = 1311;
}
);
unicode = 0177;
},
{
color = 3;
glyphname = fi;
lastChange = "2022-04-07 18:22:07 +0000";
layers = (
{
background = {
paths = (
{
closed = 1;
nodes = (
"94 74 LINE",
"175 77 OFFCURVE",
"227 90 OFFCURVE",
"251 113 CURVE SMOOTH",
"274 134 OFFCURVE",
"286 176 OFFCURVE",
"286 238 CURVE SMOOTH",
"286 1008 LINE",
"53 1008 LINE",
"53 1106 LINE",
"286 1106 LINE",
"286 1217 LINE SMOOTH",
"286 1443 OFFCURVE",
"443 1612 OFFCURVE",
"721 1612 CURVE SMOOTH",
"921 1612 OFFCURVE",
"1097 1534 OFFCURVE",
"1097 1399 CURVE SMOOTH",
"1097 1378 OFFCURVE",
"1092 1359 OFFCURVE",
"1083 1342 CURVE SMOOTH",
"1061 1302 OFFCURVE",
"1028 1282 OFFCURVE",
"984 1282 CURVE SMOOTH",
"947 1282 OFFCURVE",
"918 1297 OFFCURVE",
"897 1328 CURVE SMOOTH",
"884 1347 OFFCURVE",
"878 1368 OFFCURVE",
"878 1393 CURVE SMOOTH",
"878 1435 OFFCURVE",
"896 1464 OFFCURVE",
"931 1479 CURVE",
"887 1504 OFFCURVE",
"819 1516 OFFCURVE",
"725 1516 CURVE SMOOTH",
"521 1516 OFFCURVE",
"429 1387 OFFCURVE",
"429 1215 CURVE SMOOTH",
"429 1106 LINE",
"731 1106 LINE SMOOTH",
"831 1106 OFFCURVE",
"941 1120 OFFCURVE",
"1061 1147 CURVE",
"1061 238 LINE SMOOTH",
"1061 174 OFFCURVE",
"1074 130 OFFCURVE",
"1099 107 CURVE SMOOTH",
"1122 86 OFFCURVE",
"1175 75 OFFCURVE",
"1257 74 CURVE",
"1257 0 LINE",
"711 0 LINE",
"711 74 LINE",
"803 77 OFFCURVE",
"861 91 OFFCURVE",
"884 116 CURVE SMOOTH",
"905 138 OFFCURVE",
"916 179 OFFCURVE",
"916 238 CURVE SMOOTH",
"916 887 LINE SMOOTH",
"916 978 OFFCURVE",
"864 1008 OFFCURVE",
"731 1008 CURVE SMOOTH",
"429 1008 LINE",
"429 238 LINE SMOOTH",
"429 173 OFFCURVE",
"441 130 OFFCURVE",
"465 110 CURVE SMOOTH",
"488 90 OFFCURVE",
"539 78 OFFCURVE",
"617 74 CURVE",
"617 0 LINE",
"94 0 LINE"
);
}
);
};
layerId = "4E782664-D0D5-4FED-AFC2-B9212141A2ED";
paths = (
{
closed = 1;
nodes = (
"94 74 LINE",
"175 77 OFFCURVE",
"227 90 OFFCURVE",
"251 113 CURVE SMOOTH",
"274 134 OFFCURVE",
"286 176 OFFCURVE",
"286 238 CURVE SMOOTH",
"286 1008 LINE",
"53 1008 LINE",
"53 1106 LINE",
"286 1106 LINE",
"286 1217 LINE SMOOTH",
"286 1443 OFFCURVE",
"443 1612 OFFCURVE",
"721 1612 CURVE SMOOTH",
"921 1612 OFFCURVE",
"1097 1534 OFFCURVE",
"1097 1399 CURVE SMOOTH",
"1097 1378 OFFCURVE",
"1092 1359 OFFCURVE",
"1083 1342 CURVE SMOOTH",
"1061 1302 OFFCURVE",
"1028 1282 OFFCURVE",
"984 1282 CURVE SMOOTH",
"947 1282 OFFCURVE",
"918 1297 OFFCURVE",
"897 1328 CURVE SMOOTH",
"884 1347 OFFCURVE",
"878 1368 OFFCURVE",
"878 1393 CURVE SMOOTH",
"878 1435 OFFCURVE",
"896 1464 OFFCURVE",
"931 1479 CURVE",
"887 1504 OFFCURVE",
"819 1516 OFFCURVE",
"725 1516 CURVE SMOOTH",
"521 1516 OFFCURVE",
"429 1387 OFFCURVE",
"429 1215 CURVE SMOOTH",
"429 1106 LINE",
"731 1106 LINE SMOOTH",
"831 1106 OFFCURVE",
"941 1120 OFFCURVE",
"1061 1147 CURVE",
"1061 238 LINE SMOOTH",
"1061 174 OFFCURVE",
"1074 130 OFFCURVE",
"1099 107 CURVE SMOOTH",
"1122 86 OFFCURVE",
"1175 75 OFFCURVE",
"1257 74 CURVE",
"1257 0 LINE",
"711 0 LINE",
"711 74 LINE",
"803 77 OFFCURVE",
"861 91 OFFCURVE",
"884 116 CURVE SMOOTH",
"905 138 OFFCURVE",
"916 179 OFFCURVE",
"916 238 CURVE SMOOTH",
"916 887 LINE SMOOTH",
"916 978 OFFCURVE",
"864 1008 OFFCURVE",
"731 1008 CURVE SMOOTH",
"429 1008 LINE",
"429 238 LINE SMOOTH",
"429 173 OFFCURVE",
"441 130 OFFCURVE",
"465 110 CURVE SMOOTH",
"488 90 OFFCURVE",
"539 78 OFFCURVE",
"617 74 CURVE",
"617 0 LINE",
"94 0 LINE"
);
}
);
vertWidth = 2048;
width = 1311;
}
);
unicode = FB01;
},
{
color = 3;
glyphname = fl;
lastChange = "2022-04-07 18:22:07 +0000";
layers = (
{
background = {
paths = (
{
closed = 1;
nodes = (
"94 74 LINE",
"175 77 OFFCURVE",
"227 90 OFFCURVE",
"251 113 CURVE SMOOTH",
"274 134 OFFCURVE",
"286 176 OFFCURVE",
"286 238 CURVE SMOOTH",
"286 1008 LINE",
"53 1008 LINE",
"53 1106 LINE",
"286 1106 LINE",
"286 1217 LINE SMOOTH",
"286 1443 OFFCURVE",
"450 1612 OFFCURVE",
"741 1612 CURVE SMOOTH",
"827 1612 OFFCURVE",
"959 1595 OFFCURVE",
"1061 1579 CURVE",
"1061 238 LINE SMOOTH",
"1061 173 OFFCURVE",
"1073 130 OFFCURVE",
"1098 109 CURVE SMOOTH",
"1120 90 OFFCURVE",
"1170 78 OFFCURVE",
"1249 74 CURVE",
"1249 0 LINE",
"726 0 LINE",
"726 74 LINE",
"809 77 OFFCURVE",
"862 91 OFFCURVE",
"885 116 CURVE SMOOTH",
"906 138 OFFCURVE",
"916 179 OFFCURVE",
"916 238 CURVE SMOOTH",
"916 1008 LINE",
"429 1008 LINE",
"429 238 LINE SMOOTH",
"429 173 OFFCURVE",
"441 130 OFFCURVE",
"465 110 CURVE SMOOTH",
"488 90 OFFCURVE",
"539 78 OFFCURVE",
"617 74 CURVE",
"617 0 LINE",
"94 0 LINE"
);
},
{
closed = 1;
nodes = (
"916 1106 LINE",
"916 1371 LINE SMOOTH",
"916 1489 OFFCURVE",
"883 1510 OFFCURVE",
"745 1516 CURVE",
"527 1516 OFFCURVE",
"429 1387 OFFCURVE",
"429 1215 CURVE SMOOTH",
"429 1106 LINE"
);
}
);
};
layerId = "4E782664-D0D5-4FED-AFC2-B9212141A2ED";
paths = (
{
closed = 1;
nodes = (
"94 74 LINE",
"175 77 OFFCURVE",
"227 90 OFFCURVE",
"251 113 CURVE SMOOTH",
"274 134 OFFCURVE",
"286 176 OFFCURVE",
"286 238 CURVE SMOOTH",
"286 1008 LINE",
"53 1008 LINE",
"53 1106 LINE",
"286 1106 LINE",
"286 1217 LINE SMOOTH",
"286 1443 OFFCURVE",
"450 1612 OFFCURVE",
"741 1612 CURVE SMOOTH",
"827 1612 OFFCURVE",
"959 1595 OFFCURVE",
"1061 1579 CURVE",
"1061 238 LINE SMOOTH",
"1061 173 OFFCURVE",
"1073 130 OFFCURVE",
"1098 109 CURVE SMOOTH",
"1120 90 OFFCURVE",
"1170 78 OFFCURVE",
"1249 74 CURVE",
"1249 0 LINE",
"726 0 LINE",
"726 74 LINE",
"809 77 OFFCURVE",
"862 91 OFFCURVE",
"885 116 CURVE SMOOTH",
"906 138 OFFCURVE",
"916 179 OFFCURVE",
"916 238 CURVE SMOOTH",
"916 1008 LINE",
"429 1008 LINE",
"429 238 LINE SMOOTH",
"429 173 OFFCURVE",
"441 130 OFFCURVE",
"465 110 CURVE SMOOTH",
"488 90 OFFCURVE",
"539 78 OFFCURVE",
"617 74 CURVE",
"617 0 LINE",
"94 0 LINE"
);
},
{
closed = 1;
nodes = (
"916 1106 LINE",
"916 1371 LINE SMOOTH",
"916 1489 OFFCURVE",
"883 1510 OFFCURVE",
"745 1516 CURVE",
"527 1516 OFFCURVE",
"429 1387 OFFCURVE",
"429 1215 CURVE SMOOTH",
"429 1106 LINE"
);
}
);
vertWidth = 2048;
width = 1272;
}
);
unicode = FB02;
},
{
color = 4;
glyphname = "Gje-cy";
lastChange = "2022-04-07 18:22:07 +0000";
layers = (
{
layerId = "4E782664-D0D5-4FED-AFC2-B9212141A2ED";
paths = (
{
closed = 1;
nodes = (
"408 1556 LINE",
"1585 1556 LINE",
"1626 1106 LINE",
"1554 1106 LINE",
"1533 1231 OFFCURVE",
"1490 1321 OFFCURVE",
"1425 1376 CURVE SMOOTH",
"1364 1428 OFFCURVE",
"1276 1454 OFFCURVE",
"1161 1454 CURVE SMOOTH",
"985 1454 LINE SMOOTH",
"899 1454 OFFCURVE",
"842 1442 OFFCURVE",
"813 1418 CURVE SMOOTH",
"786 1395 OFFCURVE",
"772 1349 OFFCURVE",
"772 1280 CURVE SMOOTH",
"772 260 LINE SMOOTH",
"772 189 OFFCURVE",
"786 142 OFFCURVE",
"815 117 CURVE SMOOTH",
"842 94 OFFCURVE",
"905 79 OFFCURVE",
"1003 74 CURVE",
"1003 0 LINE",
"408 0 LINE",
"408 74 LINE",
"505 80 OFFCURVE",
"567 97 OFFCURVE",
"594 124 CURVE SMOOTH",
"616 147 OFFCURVE",
"627 193 OFFCURVE",
"627 260 CURVE SMOOTH",
"627 1296 LINE SMOOTH",
"627 1365 OFFCURVE",
"614 1411 OFFCURVE",
"588 1435 CURVE SMOOTH",
"559 1462 OFFCURVE",
"499 1477 OFFCURVE",
"408 1482 CURVE"
);
}
);
vertWidth = 2048;
width = 2048;
}
);
unicode = 0403;
},
{
color = 4;
glyphname = "Gheupturn-cy";
lastChange = "2022-04-07 18:22:07 +0000";
layers = (
{
background = {
paths = (
{
closed = 1;
nodes = (
"408 74 LINE",
"505 80 OFFCURVE",
"567 97 OFFCURVE",
"594 124 CURVE SMOOTH",
"616 147 OFFCURVE",
"627 193 OFFCURVE",
"627 260 CURVE SMOOTH",
"627 1196 LINE SMOOTH",
"627 1265 OFFCURVE",
"614 1311 OFFCURVE",
"588 1335 CURVE SMOOTH",
"559 1362 OFFCURVE",
"499 1377 OFFCURVE",
"408 1382 CURVE",
"408 1456 LINE",
"1161 1456 LINE SMOOTH",
"1397 1456 OFFCURVE",
"1513 1561 OFFCURVE",
"1554 1802 CURVE",
"1626 1802 LINE",
"1585 1354 LINE",
"985 1354 LINE SMOOTH",
"899 1354 OFFCURVE",
"842 1342 OFFCURVE",
"813 1318 CURVE SMOOTH",
"786 1295 OFFCURVE",
"772 1249 OFFCURVE",
"772 1180 CURVE SMOOTH",
"772 260 LINE SMOOTH",
"772 189 OFFCURVE",
"786 142 OFFCURVE",
"815 117 CURVE SMOOTH",
"842 94 OFFCURVE",
"905 79 OFFCURVE",
"1003 74 CURVE",
"1003 0 LINE",
"408 0 LINE"
);
}
);
};
layerId = "4E782664-D0D5-4FED-AFC2-B9212141A2ED";
paths = (
{
closed = 1;
nodes = (
"408 74 LINE",
"505 80 OFFCURVE",
"567 97 OFFCURVE",
"594 124 CURVE SMOOTH",
"616 147 OFFCURVE",
"627 193 OFFCURVE",
"627 260 CURVE SMOOTH",
"627 1196 LINE SMOOTH",
"627 1265 OFFCURVE",
"614 1311 OFFCURVE",
"588 1335 CURVE SMOOTH",
"559 1362 OFFCURVE",
"499 1377 OFFCURVE",
"408 1382 CURVE",
"408 1456 LINE",
"1161 1456 LINE SMOOTH",
"1397 1456 OFFCURVE",
"1513 1561 OFFCURVE",
"1554 1802 CURVE",
"1626 1802 LINE",
"1585 1354 LINE",
"985 1354 LINE SMOOTH",
"899 1354 OFFCURVE",
"842 1342 OFFCURVE",
"813 1318 CURVE SMOOTH",
"786 1295 OFFCURVE",
"772 1249 OFFCURVE",
"772 1180 CURVE SMOOTH",
"772 260 LINE SMOOTH",
"772 189 OFFCURVE",
"786 142 OFFCURVE",
"815 117 CURVE SMOOTH",
"842 94 OFFCURVE",
"905 79 OFFCURVE",
"1003 74 CURVE",
"1003 0 LINE",
"408 0 LINE"
);
}
);
vertWidth = 2048;
width = 2048;
}
);
unicode = 0490;
},
{
color = 4;
glyphname = "Kje-cy";
lastChange = "2022-04-07 18:22:07 +0000";
layers = (
{
background = {
paths = (
{
closed = 1;
nodes = (
"314 1454 LINE",
"711 1454 LINE",
"711 1382 LINE",
"660 1378 OFFCURVE",
"626 1369 OFFCURVE",
"607 1356 CURVE SMOOTH",
"589 1343 OFFCURVE",
"580 1317 OFFCURVE",
"580 1278 CURVE SMOOTH",
"580 176 LINE SMOOTH",
"580 141 OFFCURVE",
"590 115 OFFCURVE",
"611 98 CURVE SMOOTH",
"625 87 OFFCURVE",
"658 79 OFFCURVE",
"711 72 CURVE",
"711 0 LINE",
"314 0 LINE",
"314 72 LINE",
"367 78 OFFCURVE",
"402 88 OFFCURVE",
"419 102 CURVE SMOOTH",
"436 117 OFFCURVE",
"445 141 OFFCURVE",
"445 176 CURVE SMOOTH",
"445 1278 LINE SMOOTH",
"445 1317 OFFCURVE",
"436 1343 OFFCURVE",
"418 1356 CURVE SMOOTH",
"399 1369 OFFCURVE",
"365 1378 OFFCURVE",
"314 1382 CURVE"
);
},
{
closed = 1;
nodes = (
"823 1800 LINE",
"777 1642 OFFCURVE",
"673 1563 OFFCURVE",
"511 1563 CURVE SMOOTH",
"349 1563 OFFCURVE",
"246 1642 OFFCURVE",
"201 1800 CURVE",
"285 1800 LINE",
"320 1719 OFFCURVE",
"396 1678 OFFCURVE",
"512 1678 CURVE SMOOTH",
"627 1678 OFFCURVE",
"702 1719 OFFCURVE",
"739 1800 CURVE"
);
},
{
closed = 1;
nodes = (
"281 1556 LINE",
"833 1556 LINE",
"833 1482 LINE",
"740 1473 OFFCURVE",
"682 1459 OFFCURVE",
"660 1438 CURVE SMOOTH",
"641 1420 OFFCURVE",
"631 1381 OFFCURVE",
"631 1321 CURVE SMOOTH",
"631 747 LINE",
"1300 1382 LINE SMOOTH",
"1315 1396 OFFCURVE",
"1323 1409 OFFCURVE",
"1323 1422 CURVE SMOOTH",
"1323 1437 OFFCURVE",
"1303 1451 OFFCURVE",
"1264 1464 CURVE SMOOTH",
"1235 1473 OFFCURVE",
"1196 1479 OFFCURVE",
"1147 1482 CURVE",
"1147 1556 LINE",
"1700 1556 LINE",
"1700 1482 LINE",
"1636 1475 OFFCURVE",
"1583 1461 OFFCURVE",
"1541 1439 CURVE SMOOTH",
"1508 1422 OFFCURVE",
"1474 1396 OFFCURVE",
"1438 1362 CURVE SMOOTH",
"989 940 LINE",
"1616 203 LINE SMOOTH",
"1675 133 OFFCURVE",
"1755 90 OFFCURVE",
"1855 74 CURVE",
"1855 0 LINE",
"1282 0 LINE",
"1282 74 LINE",
"1398 83 OFFCURVE",
"1456 102 OFFCURVE",
"1456 130 CURVE SMOOTH",
"1456 146 OFFCURVE",
"1446 165 OFFCURVE",
"1427 188 CURVE SMOOTH",
"893 837 LINE",
"631 596 LINE",
"631 235 LINE SMOOTH",
"631 174 OFFCURVE",
"644 133 OFFCURVE",
"669 112 CURVE SMOOTH",
"690 95 OFFCURVE",
"744 83 OFFCURVE",
"833 74 CURVE",
"833 0 LINE",
"281 0 LINE",
"281 74 LINE",
"374 82 OFFCURVE",
"432 97 OFFCURVE",
"454 118 CURVE SMOOTH",
"474 137 OFFCURVE",
"484 176 OFFCURVE",
"484 235 CURVE SMOOTH",
"484 1321 LINE SMOOTH",
"484 1382 OFFCURVE",
"473 1422 OFFCURVE",
"451 1441 CURVE SMOOTH",
"427 1462 OFFCURVE",
"370 1476 OFFCURVE",
"281 1482 CURVE"
);
}
);
};
layerId = "4E782664-D0D5-4FED-AFC2-B9212141A2ED";
paths = (
{
closed = 1;
nodes = (
"631 546 LINE",
"631 235 LINE SMOOTH",
"631 174 OFFCURVE",
"644 133 OFFCURVE",
"669 112 CURVE SMOOTH",
"690 95 OFFCURVE",
"744 83 OFFCURVE",
"833 74 CURVE",
"833 0 LINE",
"281 0 LINE",
"281 74 LINE",
"374 82 OFFCURVE",
"432 97 OFFCURVE",
"454 118 CURVE SMOOTH",
"474 137 OFFCURVE",
"484 176 OFFCURVE",
"484 235 CURVE SMOOTH",
"484 1221 LINE SMOOTH",
"484 1282 OFFCURVE",
"473 1322 OFFCURVE",
"451 1341 CURVE SMOOTH",
"427 1362 OFFCURVE",
"370 1376 OFFCURVE",
"281 1382 CURVE",
"281 1456 LINE",
"833 1456 LINE",
"833 1382 LINE",
"740 1373 OFFCURVE",
"682 1359 OFFCURVE",
"660 1338 CURVE SMOOTH",
"641 1320 OFFCURVE",
"631 1281 OFFCURVE",
"631 1221 CURVE SMOOTH",
"631 697 LINE",
"1300 1282 LINE SMOOTH",
"1316 1296 OFFCURVE",
"1323 1309 OFFCURVE",
"1323 1322 CURVE SMOOTH",
"1323 1337 OFFCURVE",
"1303 1351 OFFCURVE",
"1264 1364 CURVE SMOOTH",
"1235 1373 OFFCURVE",
"1196 1379 OFFCURVE",
"1147 1382 CURVE",
"1147 1456 LINE",
"1700 1456 LINE",
"1700 1382 LINE",
"1636 1375 OFFCURVE",
"1583 1361 OFFCURVE",
"1541 1339 CURVE SMOOTH",
"1508 1322 OFFCURVE",
"1475 1295 OFFCURVE",
"1438 1262 CURVE SMOOTH"
);
},
{
closed = 1;
nodes = (
"1616 203 LINE SMOOTH",
"1678 136 OFFCURVE",
"1755 90 OFFCURVE",
"1855 74 CURVE",
"1855 0 LINE",
"1282 0 LINE",
"1282 74 LINE",
"1398 83 OFFCURVE",
"1456 102 OFFCURVE",
"1456 130 CURVE SMOOTH",
"1456 146 OFFCURVE",
"1447 166 OFFCURVE",
"1427 188 CURVE SMOOTH",
"882 799 LINE",
"978 902 LINE"
);
},
{
closed = 1;
nodes = (
"1229 1800 LINE",
"1292 1659 LINE",
"782 1563 LINE",
"754 1628 LINE"
);
}
);
vertWidth = 2048;
width = 2048;
}
);
unicode = 040C;
},
{
color = 4;
glyphname = "Ushort-cy";
lastChange = "2022-04-07 18:22:07 +0000";
layers = (
{
background = {
paths = (
{
closed = 1;
nodes = (
"631 546 LINE",
"631 235 LINE SMOOTH",
"631 174 OFFCURVE",
"644 133 OFFCURVE",
"669 112 CURVE SMOOTH",
"690 95 OFFCURVE",
"744 83 OFFCURVE",
"833 74 CURVE",
"833 0 LINE",
"281 0 LINE",
"281 74 LINE",
"374 82 OFFCURVE",
"432 97 OFFCURVE",
"454 118 CURVE SMOOTH",
"474 137 OFFCURVE",
"484 176 OFFCURVE",
"484 235 CURVE SMOOTH",
"484 1221 LINE SMOOTH",
"484 1282 OFFCURVE",
"473 1322 OFFCURVE",
"451 1341 CURVE SMOOTH",
"427 1362 OFFCURVE",
"370 1376 OFFCURVE",
"281 1382 CURVE",
"281 1456 LINE",
"833 1456 LINE",
"833 1382 LINE",
"740 1373 OFFCURVE",
"682 1359 OFFCURVE",
"660 1338 CURVE SMOOTH",
"641 1320 OFFCURVE",
"631 1281 OFFCURVE",
"631 1221 CURVE SMOOTH",
"631 697 LINE",
"1300 1282 LINE SMOOTH",
"1316 1296 OFFCURVE",
"1323 1309 OFFCURVE",
"1323 1322 CURVE SMOOTH",
"1323 1337 OFFCURVE",
"1303 1351 OFFCURVE",
"1264 1364 CURVE SMOOTH",
"1235 1373 OFFCURVE",
"1196 1379 OFFCURVE",
"1147 1382 CURVE",
"1147 1456 LINE",
"1700 1456 LINE",
"1700 1382 LINE",
"1636 1375 OFFCURVE",
"1583 1361 OFFCURVE",
"1541 1339 CURVE SMOOTH",
"1508 1322 OFFCURVE",
"1475 1295 OFFCURVE",
"1438 1262 CURVE SMOOTH"
);
},
{
closed = 1;
nodes = (
"1616 203 LINE SMOOTH",
"1678 136 OFFCURVE",
"1755 90 OFFCURVE",
"1855 74 CURVE",
"1855 0 LINE",
"1282 0 LINE",
"1282 74 LINE",
"1398 83 OFFCURVE",
"1456 102 OFFCURVE",
"1456 130 CURVE SMOOTH",
"1456 146 OFFCURVE",
"1447 166 OFFCURVE",
"1427 188 CURVE SMOOTH",
"882 799 LINE",
"978 902 LINE"
);
},
{
closed = 1;
nodes = (
"1162 1642 OFFCURVE",
"1145 1667 OFFCURVE",
"1145 1708 CURVE SMOOTH",
"1145 1745 OFFCURVE",
"1161 1772 OFFCURVE",
"1192 1789 CURVE SMOOTH",
"1206 1796 OFFCURVE",
"1221 1800 OFFCURVE",
"1237 1800 CURVE SMOOTH",
"1268 1800 OFFCURVE",
"1293 1786 OFFCURVE",
"1312 1757 CURVE SMOOTH",
"1322 1741 OFFCURVE",
"1327 1724 OFFCURVE",
"1327 1705 CURVE SMOOTH",
"1327 1652 OFFCURVE",
"1301 1606 OFFCURVE",
"1249 1569 CURVE SMOOTH",
"1185 1522 OFFCURVE",
"1101 1499 OFFCURVE",
"998 1499 CURVE SMOOTH",
"911 1499 OFFCURVE",
"837 1517 OFFCURVE",
"776 1552 CURVE SMOOTH",
"707 1591 OFFCURVE",
"672 1641 OFFCURVE",
"672 1702 CURVE SMOOTH",
"672 1737 OFFCURVE",
"685 1763 OFFCURVE",
"710 1782 CURVE SMOOTH",
"726 1794 OFFCURVE",
"743 1800 OFFCURVE",
"762 1800 CURVE SMOOTH",
"789 1800 OFFCURVE",
"812 1790 OFFCURVE",
"830 1770 CURVE SMOOTH",
"846 1753 OFFCURVE",
"854 1732 OFFCURVE",
"854 1709 CURVE SMOOTH",
"854 1667 OFFCURVE",
"837 1642 OFFCURVE",
"802 1635 CURVE",
"847 1602 OFFCURVE",
"912 1585 OFFCURVE",
"997 1585 CURVE SMOOTH",
"1085 1585 OFFCURVE",
"1151 1602 OFFCURVE",
"1196 1635 CURVE"
);
},
{
closed = 1;
nodes = (
"295 1556 LINE",
"909 1556 LINE",
"909 1482 LINE",
"819 1479 OFFCURVE",
"760 1471 OFFCURVE",
"731 1458 CURVE SMOOTH",
"708 1447 OFFCURVE",
"696 1431 OFFCURVE",
"696 1410 CURVE SMOOTH",
"696 1397 OFFCURVE",
"701 1381 OFFCURVE",
"711 1364 CURVE SMOOTH",
"1112 649 LINE",
"1434 1349 LINE SMOOTH",
"1442 1367 OFFCURVE",
"1446 1384 OFFCURVE",
"1446 1400 CURVE SMOOTH",
"1446 1450 OFFCURVE",
"1378 1477 OFFCURVE",
"1243 1482 CURVE",
"1243 1556 LINE",
"1782 1556 LINE",
"1782 1482 LINE",
"1714 1477 OFFCURVE",
"1662 1462 OFFCURVE",
"1627 1436 CURVE SMOOTH",
"1598 1416 OFFCURVE",
"1574 1386 OFFCURVE",
"1555 1347 CURVE SMOOTH",
"1550 1338 OFFCURVE",
"1054 299 OFFCURVE",
"1033 263 CURVE SMOOTH",
"921 72 OFFCURVE",
"831 -39 OFFCURVE",
"649 -39 CURVE SMOOTH",
"485 -39 OFFCURVE",
"356 73 OFFCURVE",
"356 231 CURVE SMOOTH",
"356 259 OFFCURVE",
"363 283 OFFCURVE",
"376 304 CURVE SMOOTH",
"398 339 OFFCURVE",
"430 356 OFFCURVE",
"472 356 CURVE SMOOTH",
"491 356 OFFCURVE",
"508 352 OFFCURVE",
"524 344 CURVE SMOOTH",
"565 323 OFFCURVE",
"586 290 OFFCURVE",
"586 243 CURVE SMOOTH",
"586 184 OFFCURVE",
"555 147 OFFCURVE",
"494 133 CURVE",
"521 88 OFFCURVE",
"570 65 OFFCURVE",
"643 65 CURVE SMOOTH",
"775 65 OFFCURVE",
"858 185 OFFCURVE",
"952 350 CURVE SMOOTH",
"981 401 OFFCURVE",
"1006 451 OFFCURVE",
"1026 500 CURVE",
"561 1343 LINE SMOOTH",
"535 1390 OFFCURVE",
"501 1425 OFFCURVE",
"458 1446 CURVE SMOOTH",
"419 1465 OFFCURVE",
"365 1477 OFFCURVE",
"295 1482 CURVE"
);
}
);
};
layerId = "4E782664-D0D5-4FED-AFC2-B9212141A2ED";
paths = (
{
closed = 1;
nodes = (
"561 1243 LINE SMOOTH",
"534 1290 OFFCURVE",
"501 1325 OFFCURVE",
"458 1346 CURVE SMOOTH",
"419 1365 OFFCURVE",
"365 1377 OFFCURVE",
"295 1382 CURVE",
"295 1456 LINE",
"909 1456 LINE",
"909 1382 LINE",
"819 1379 OFFCURVE",
"760 1371 OFFCURVE",
"731 1358 CURVE SMOOTH",
"708 1347 OFFCURVE",
"696 1331 OFFCURVE",
"696 1310 CURVE SMOOTH",
"696 1297 OFFCURVE",
"701 1281 OFFCURVE",
"711 1264 CURVE SMOOTH",
"1121 576 LINE",
"1034 426 LINE"
);
},
{
closed = 1;
nodes = (
"1434 1249 LINE",
"1444 1267 OFFCURVE",
"1446 1284 OFFCURVE",
"1446 1300 CURVE SMOOTH",
"1446 1350 OFFCURVE",
"1378 1377 OFFCURVE",
"1243 1382 CURVE",
"1243 1456 LINE",
"1782 1456 LINE",
"1782 1382 LINE",
"1714 1377 OFFCURVE",
"1662 1362 OFFCURVE",
"1627 1336 CURVE SMOOTH",
"1598 1316 OFFCURVE",
"1574 1286 OFFCURVE",
"1555 1247 CURVE SMOOTH",
"1550 1238 OFFCURVE",
"1064 299 OFFCURVE",
"1043 263 CURVE SMOOTH",
"930 71 OFFCURVE",
"836 -39 OFFCURVE",
"649 -39 CURVE SMOOTH",
"485 -39 OFFCURVE",
"356 73 OFFCURVE",
"356 231 CURVE SMOOTH",
"356 259 OFFCURVE",
"363 283 OFFCURVE",
"376 304 CURVE SMOOTH",
"398 339 OFFCURVE",
"430 356 OFFCURVE",
"472 356 CURVE SMOOTH",
"491 356 OFFCURVE",
"508 352 OFFCURVE",
"524 344 CURVE SMOOTH",
"565 323 OFFCURVE",
"586 290 OFFCURVE",
"586 243 CURVE SMOOTH",
"586 184 OFFCURVE",
"555 147 OFFCURVE",
"494 133 CURVE",
"521 88 OFFCURVE",
"570 65 OFFCURVE",
"643 65 CURVE SMOOTH",
"779 65 OFFCURVE",
"865 185 OFFCURVE",
"962 350 CURVE"
);
},
{
closed = 1;
nodes = (
"1232 1642 OFFCURVE",
"1215 1667 OFFCURVE",
"1215 1708 CURVE SMOOTH",
"1215 1745 OFFCURVE",
"1231 1772 OFFCURVE",
"1262 1789 CURVE SMOOTH",
"1276 1796 OFFCURVE",
"1291 1800 OFFCURVE",
"1307 1800 CURVE SMOOTH",
"1338 1800 OFFCURVE",
"1363 1786 OFFCURVE",
"1382 1757 CURVE SMOOTH",
"1392 1741 OFFCURVE",
"1397 1724 OFFCURVE",
"1397 1705 CURVE SMOOTH",
"1397 1652 OFFCURVE",
"1371 1606 OFFCURVE",
"1319 1569 CURVE SMOOTH",
"1255 1522 OFFCURVE",
"1171 1499 OFFCURVE",
"1068 1499 CURVE SMOOTH",
"981 1499 OFFCURVE",
"907 1517 OFFCURVE",
"846 1552 CURVE SMOOTH",
"777 1591 OFFCURVE",
"742 1641 OFFCURVE",
"742 1702 CURVE SMOOTH",
"742 1737 OFFCURVE",
"755 1763 OFFCURVE",
"780 1782 CURVE SMOOTH",
"796 1794 OFFCURVE",
"813 1800 OFFCURVE",
"832 1800 CURVE SMOOTH",
"859 1800 OFFCURVE",
"882 1790 OFFCURVE",
"900 1770 CURVE SMOOTH",
"916 1753 OFFCURVE",
"924 1732 OFFCURVE",
"924 1709 CURVE SMOOTH",
"924 1667 OFFCURVE",
"907 1642 OFFCURVE",
"872 1635 CURVE",
"917 1602 OFFCURVE",
"982 1585 OFFCURVE",
"1067 1585 CURVE SMOOTH",
"1155 1585 OFFCURVE",
"1221 1602 OFFCURVE",
"1266 1635 CURVE"
);
}
);
vertWidth = 2048;
width = 2048;
}
);
unicode = 040E;
},
{
color = 4;
glyphname = "Dzhe-cy";
lastChange = "2022-04-07 18:22:07 +0000";
layers = (
{
background = {
paths = (
{
closed = 1;
nodes = (
"973 -105 OFFCURVE",
"914 0 OFFCURVE",
"809 0 CURVE SMOOTH",
"242 0 LINE",
"242 73 LINE",
"287 76 OFFCURVE",
"320 79 OFFCURVE",
"343 83 CURVE SMOOTH",
"390 92 OFFCURVE",
"420 111 OFFCURVE",
"433 140 CURVE SMOOTH",
"441 157 OFFCURVE",
"445 188 OFFCURVE",
"445 235 CURVE SMOOTH",
"445 1320 LINE SMOOTH",
"445 1383 OFFCURVE",
"436 1423 OFFCURVE",
"417 1440 CURVE SMOOTH",
"394 1463 OFFCURVE",
"336 1477 OFFCURVE",
"242 1482 CURVE",
"242 1556 LINE",
"795 1556 LINE",
"795 1482 LINE",
"715 1477 OFFCURVE",
"662 1468 OFFCURVE",
"637 1455 CURVE SMOOTH",
"606 1439 OFFCURVE",
"590 1394 OFFCURVE",
"590 1320 CURVE SMOOTH",
"590 252 LINE SMOOTH",
"590 191 OFFCURVE",
"601 150 OFFCURVE",
"623 131 CURVE SMOOTH",
"644 112 OFFCURVE",
"693 102 OFFCURVE",
"772 102 CURVE SMOOTH",
"1276 102 LINE SMOOTH",
"1355 102 OFFCURVE",
"1405 112 OFFCURVE",
"1426 131 CURVE SMOOTH",
"1448 151 OFFCURVE",
"1459 191 OFFCURVE",
"1459 252 CURVE SMOOTH",
"1459 1320 LINE SMOOTH",
"1459 1381 OFFCURVE",
"1450 1421 OFFCURVE",
"1431 1440 CURVE SMOOTH",
"1410 1462 OFFCURVE",
"1351 1476 OFFCURVE",
"1254 1482 CURVE",
"1254 1556 LINE",
"1807 1556 LINE",
"1807 1482 LINE",
"1716 1477 OFFCURVE",
"1658 1464 OFFCURVE",
"1635 1443 CURVE SMOOTH",
"1614 1426 OFFCURVE",
"1604 1385 OFFCURVE",
"1604 1320 CURVE SMOOTH",
"1604 235 LINE SMOOTH",
"1604 172 OFFCURVE",
"1614 131 OFFCURVE",
"1635 112 CURVE SMOOTH",
"1659 91 OFFCURVE",
"1716 78 OFFCURVE",
"1807 73 CURVE",
"1807 0 LINE",
"1239 0 LINE SMOOTH",
"1134 0 OFFCURVE",
"1075 -105 OFFCURVE",
"1064 -244 CURVE",
"984 -244 LINE"
);
}
);
};
layerId = "4E782664-D0D5-4FED-AFC2-B9212141A2ED";
paths = (
{
closed = 1;
nodes = (
"973 -105 OFFCURVE",
"914 0 OFFCURVE",
"809 0 CURVE SMOOTH",
"242 0 LINE",
"242 73 LINE",
"287 76 OFFCURVE",
"320 79 OFFCURVE",
"343 83 CURVE SMOOTH",
"390 92 OFFCURVE",
"420 111 OFFCURVE",
"433 140 CURVE SMOOTH",
"441 157 OFFCURVE",
"445 188 OFFCURVE",
"445 235 CURVE SMOOTH",
"445 1320 LINE SMOOTH",
"445 1383 OFFCURVE",
"436 1423 OFFCURVE",
"417 1440 CURVE SMOOTH",
"394 1463 OFFCURVE",
"336 1477 OFFCURVE",
"242 1482 CURVE",
"242 1556 LINE",
"795 1556 LINE",
"795 1482 LINE",
"715 1477 OFFCURVE",
"662 1468 OFFCURVE",
"637 1455 CURVE SMOOTH",
"606 1439 OFFCURVE",
"590 1394 OFFCURVE",
"590 1320 CURVE SMOOTH",
"590 252 LINE SMOOTH",
"590 191 OFFCURVE",
"601 150 OFFCURVE",
"623 131 CURVE SMOOTH",
"644 112 OFFCURVE",
"693 102 OFFCURVE",
"772 102 CURVE SMOOTH",
"1276 102 LINE SMOOTH",
"1355 102 OFFCURVE",
"1405 112 OFFCURVE",
"1426 131 CURVE SMOOTH",
"1448 151 OFFCURVE",
"1459 191 OFFCURVE",
"1459 252 CURVE SMOOTH",
"1459 1320 LINE SMOOTH",
"1459 1381 OFFCURVE",
"1450 1421 OFFCURVE",
"1431 1440 CURVE SMOOTH",
"1410 1462 OFFCURVE",
"1351 1476 OFFCURVE",
"1254 1482 CURVE",
"1254 1556 LINE",
"1807 1556 LINE",
"1807 1482 LINE",
"1716 1477 OFFCURVE",
"1658 1464 OFFCURVE",
"1635 1443 CURVE SMOOTH",
"1614 1426 OFFCURVE",
"1604 1385 OFFCURVE",
"1604 1320 CURVE SMOOTH",
"1604 235 LINE SMOOTH",
"1604 172 OFFCURVE",
"1614 131 OFFCURVE",
"1635 112 CURVE SMOOTH",
"1659 91 OFFCURVE",
"1716 78 OFFCURVE",
"1807 73 CURVE",
"1807 0 LINE",
"1239 0 LINE SMOOTH",
"1134 0 OFFCURVE",
"1075 -105 OFFCURVE",
"1064 -244 CURVE",
"984 -244 LINE"
);
}
);
vertWidth = 2048;
width = 2048;
}
);
unicode = 040F;
},
{
color = 4;
glyphname = "Lje-cy";
lastChange = "2022-04-07 18:22:07 +0000";
layers = (
{
background = {
paths = (
{
closed = 1;
nodes = (
"133 -39 OFFCURVE",
"-3 54 OFFCURVE",
"-3 206 CURVE SMOOTH",
"-3 240 OFFCURVE",
"6 269 OFFCURVE",
"23 294 CURVE SMOOTH",
"48 331 OFFCURVE",
"83 350 OFFCURVE",
"128 350 CURVE SMOOTH",
"175 350 OFFCURVE",
"212 329 OFFCURVE",
"238 286 CURVE SMOOTH",
"249 267 OFFCURVE",
"255 246 OFFCURVE",
"255 221 CURVE SMOOTH",
"255 151 OFFCURVE",
"221 111 OFFCURVE",
"154 102 CURVE",
"183 73 OFFCURVE",
"230 59 OFFCURVE",
"295 59 CURVE SMOOTH",
"528 59 OFFCURVE",
"608 338 OFFCURVE",
"608 1145 CURVE SMOOTH",
"608 1357 OFFCURVE",
"611 1453 OFFCURVE",
"506 1473 CURVE SMOOTH",
"483 1477 OFFCURVE",
"450 1480 OFFCURVE",
"405 1482 CURVE",
"405 1556 LINE",
"1492 1556 LINE",
"1492 1482 LINE",
"1334 1475 OFFCURVE",
"1289 1461 OFFCURVE",
"1289 1321 CURVE SMOOTH",
"1289 887 LINE",
"1496 887 LINE SMOOTH",
"1798 887 OFFCURVE",
"2040 766 OFFCURVE",
"2040 446 CURVE SMOOTH",
"2040 122 OFFCURVE",
"1839 0 OFFCURVE",
"1546 0 CURVE SMOOTH",
"937 0 LINE",
"937 74 LINE",
"1034 80 OFFCURVE",
"1093 94 OFFCURVE",
"1114 116 CURVE SMOOTH",
"1133 135 OFFCURVE",
"1142 175 OFFCURVE",
"1142 236 CURVE SMOOTH",
"1142 1304 LINE SMOOTH",
"1142 1436 OFFCURVE",
"1114 1454 OFFCURVE",
"966 1454 CURVE SMOOTH",
"893 1454 LINE SMOOTH",
"792 1454 OFFCURVE",
"732 1448 OFFCURVE",
"716 1372 CURVE SMOOTH",
"709 1341 OFFCURVE",
"710 1239 OFFCURVE",
"710 1068 CURVE SMOOTH",
"711 246 OFFCURVE",
"606 -39 OFFCURVE",
"299 -39 CURVE SMOOTH"
);
},
{
closed = 1;
nodes = (
"1505 103 LINE SMOOTH",
"1721 103 OFFCURVE",
"1868 183 OFFCURVE",
"1868 446 CURVE SMOOTH",
"1868 672 OFFCURVE",
"1744 785 OFFCURVE",
"1496 785 CURVE SMOOTH",
"1289 785 LINE",
"1289 252 LINE SMOOTH",
"1289 193 OFFCURVE",
"1302 153 OFFCURVE",
"1328 133 CURVE SMOOTH",
"1355 113 OFFCURVE",
"1409 103 OFFCURVE",
"1492 103 CURVE SMOOTH"
);
}
);
};
layerId = "4E782664-D0D5-4FED-AFC2-B9212141A2ED";
paths = (
{
closed = 1;
nodes = (
"133 -39 OFFCURVE",
"-3 54 OFFCURVE",
"-3 206 CURVE SMOOTH",
"-3 240 OFFCURVE",
"6 269 OFFCURVE",
"23 294 CURVE SMOOTH",
"48 331 OFFCURVE",
"83 350 OFFCURVE",
"128 350 CURVE SMOOTH",
"175 350 OFFCURVE",
"212 329 OFFCURVE",
"238 286 CURVE SMOOTH",
"249 267 OFFCURVE",
"255 246 OFFCURVE",
"255 221 CURVE SMOOTH",
"255 151 OFFCURVE",
"221 111 OFFCURVE",
"154 102 CURVE",
"183 73 OFFCURVE",
"230 59 OFFCURVE",
"295 59 CURVE SMOOTH",
"528 59 OFFCURVE",
"608 338 OFFCURVE",
"608 1145 CURVE SMOOTH",
"608 1357 OFFCURVE",
"611 1453 OFFCURVE",
"506 1473 CURVE SMOOTH",
"483 1477 OFFCURVE",
"450 1480 OFFCURVE",
"405 1482 CURVE",
"405 1556 LINE",
"1492 1556 LINE",
"1492 1482 LINE",
"1334 1475 OFFCURVE",
"1289 1461 OFFCURVE",
"1289 1321 CURVE SMOOTH",
"1289 887 LINE",
"1496 887 LINE SMOOTH",
"1798 887 OFFCURVE",
"2040 766 OFFCURVE",
"2040 446 CURVE SMOOTH",
"2040 122 OFFCURVE",
"1839 0 OFFCURVE",
"1546 0 CURVE SMOOTH",
"937 0 LINE",
"937 74 LINE",
"1034 80 OFFCURVE",
"1093 94 OFFCURVE",
"1114 116 CURVE SMOOTH",
"1133 135 OFFCURVE",
"1142 175 OFFCURVE",
"1142 236 CURVE SMOOTH",
"1142 1304 LINE SMOOTH",
"1142 1436 OFFCURVE",
"1114 1454 OFFCURVE",
"966 1454 CURVE SMOOTH",
"893 1454 LINE SMOOTH",
"792 1454 OFFCURVE",
"732 1448 OFFCURVE",
"716 1372 CURVE SMOOTH",
"709 1341 OFFCURVE",
"710 1239 OFFCURVE",
"710 1068 CURVE SMOOTH",
"711 246 OFFCURVE",
"606 -39 OFFCURVE",
"299 -39 CURVE SMOOTH"
);
},
{
closed = 1;
nodes = (
"1505 103 LINE SMOOTH",
"1721 103 OFFCURVE",
"1868 183 OFFCURVE",
"1868 446 CURVE SMOOTH",
"1868 672 OFFCURVE",
"1744 785 OFFCURVE",
"1496 785 CURVE SMOOTH",
"1289 785 LINE",
"1289 252 LINE SMOOTH",
"1289 193 OFFCURVE",
"1302 153 OFFCURVE",
"1328 133 CURVE SMOOTH",
"1355 113 OFFCURVE",
"1409 103 OFFCURVE",
"1492 103 CURVE SMOOTH"
);
}
);
vertWidth = 2048;
width = 2048;
}
);
unicode = 0409;
},
